<?xml version="1.0" encoding="utf-8"?>
<!-- Generator: Adobe Illustrator 16.0.0, SVG Export Plug-In . SVG Version: 6.00 Build 0)  -->
<!DOCTYPE svg PUBLIC "-//W3C//DTD SVG 1.1//EN" "http://www.w3.org/Graphics/SVG/1.1/DTD/svg11.dtd">
<svg version="1.1" id="Layer_1" xmlns="http://www.w3.org/2000/svg" xmlns:xlink="http://www.w3.org/1999/xlink" x="0px" y="0px"
	 width="187.423px" height="256.501px" viewBox="0 0 187.423 256.501" enable-background="new 0 0 187.423 256.501"
	 xml:space="preserve">
<polygon fill="#F7B77C" points="141.584,101.086 151.498,103.486 161.674,88.248 146.981,80.771 "/>
<polygon fill="#E76124" points="162.16,51.897 153.706,51.897 152.682,63.704 153.706,80.667 162.16,80.667 "/>
<rect x="145.259" y="51.898" fill="#F47831" width="8.447" height="28.769"/>
<polygon fill="#EEAC1F" points="162.16,74.128 153.706,74.128 152.682,77.245 153.706,80.666 162.16,80.666 "/>
<rect x="145.259" y="74.129" fill="#FBBD18" width="8.447" height="6.538"/>
<g>
	<defs>
		<rect id="SVGID_1_" x="19.032" y="10.918" width="159.367" height="245.583"/>
	</defs>
	<clipPath id="SVGID_2_">
		<use xlink:href="#SVGID_1_"  overflow="visible"/>
	</clipPath>
	<path clip-path="url(#SVGID_2_)" fill="#484848" d="M162.168,49.253h-8.462l-1.024,0.416l1.024,0.526h1.5
		c0.183,0,0.332,0.149,0.332,0.334c0,0.184-0.149,0.333-0.332,0.333h-1.5l-1.024,0.26l1.024,0.775h8.455v28.769h-8.455l-1.024,2.042
		l1.024,6.3h8.462c1.026,0,1.867-0.81,1.867-1.811V51.071C164.035,50.066,163.194,49.253,162.168,49.253 M155.398,83.473
		c-0.284,0-0.516-0.23-0.516-0.515c0-0.284,0.231-0.516,0.516-0.516c0.285,0,0.518,0.232,0.518,0.516
		C155.916,83.243,155.684,83.473,155.398,83.473 M158.784,83.473c-0.285,0-0.515-0.23-0.515-0.515c0-0.284,0.229-0.516,0.515-0.516
		c0.282,0,0.515,0.232,0.515,0.516C159.299,83.243,159.066,83.473,158.784,83.473"/>
	<path clip-path="url(#SVGID_2_)" fill="#555554" d="M152.207,50.195h1.498v-0.942h-8.451c-1.036,0-1.876,0.813-1.876,1.818v36.126
		c0,1.001,0.84,1.811,1.876,1.811h8.451v-8.342h-8.445V51.897h8.445v-1.035h-1.498c-0.185,0-0.333-0.149-0.333-0.333
		C151.874,50.345,152.022,50.195,152.207,50.195 M148.629,83.473c-0.283,0-0.513-0.23-0.513-0.515c0-0.284,0.229-0.516,0.513-0.516
		c0.286,0,0.517,0.232,0.517,0.516C149.146,83.243,148.915,83.473,148.629,83.473 M152.016,83.473c-0.286,0-0.517-0.23-0.517-0.515
		c0-0.284,0.23-0.516,0.517-0.516c0.285,0,0.513,0.232,0.513,0.516C152.528,83.243,152.301,83.473,152.016,83.473"/>
	<path clip-path="url(#SVGID_2_)" fill="#B0432F" d="M155.206,50.862c0.183,0,0.332-0.149,0.332-0.332
		c0-0.185-0.149-0.334-0.332-0.334h-1.5v0.666H155.206z"/>
	<path clip-path="url(#SVGID_2_)" fill="#DE5C3F" d="M151.875,50.53c0,0.183,0.147,0.332,0.332,0.332h1.499v-0.666h-1.499
		C152.022,50.196,151.875,50.345,151.875,50.53"/>
	<path clip-path="url(#SVGID_2_)" fill="#E16D5D" d="M148.629,82.442c-0.285,0-0.513,0.232-0.513,0.516
		c0,0.284,0.228,0.515,0.513,0.515c0.286,0,0.517-0.231,0.517-0.515C149.146,82.674,148.915,82.442,148.629,82.442"/>
	<path clip-path="url(#SVGID_2_)" fill="#E16D5D" d="M152.016,82.442c-0.286,0-0.517,0.232-0.517,0.516
		c0,0.284,0.23,0.515,0.517,0.515c0.285,0,0.513-0.231,0.513-0.515C152.528,82.674,152.301,82.442,152.016,82.442"/>
	<path clip-path="url(#SVGID_2_)" fill="#CF5752" d="M155.399,82.442c-0.285,0-0.517,0.232-0.517,0.516
		c0,0.284,0.231,0.515,0.517,0.515c0.284,0,0.516-0.231,0.516-0.515C155.915,82.674,155.684,82.442,155.399,82.442"/>
	<path clip-path="url(#SVGID_2_)" fill="#CF5752" d="M158.784,82.442c-0.285,0-0.515,0.232-0.515,0.516
		c0,0.284,0.229,0.515,0.515,0.515c0.282,0,0.515-0.231,0.515-0.515C159.299,82.674,159.066,82.442,158.784,82.442"/>
	<path clip-path="url(#SVGID_2_)" fill="#C35238" d="M150.829,50.54c0,0.236-0.19,0.427-0.429,0.427
		c-0.236,0-0.426-0.191-0.426-0.427c0-0.238,0.189-0.429,0.426-0.429C150.639,50.111,150.829,50.302,150.829,50.54"/>
	<path clip-path="url(#SVGID_2_)" fill="#EAE3DA" d="M157.274,61.631c0-1.978-2.097-3.574-4.683-3.574l-0.359,3.322l0.359,3.822
		C155.178,65.201,157.274,63.604,157.274,61.631"/>
	<path clip-path="url(#SVGID_2_)" fill="#EEAC1F" d="M157.75,60.05c0.237,0.493,0.373,1.035,0.373,1.606
		c0,1.255-0.64,2.381-1.63,3.175c-0.988,0.789-2.334,1.268-3.81,1.271c-0.028,0-0.06-0.003-0.092-0.003
		c0.837,0.638,1.961,1.039,3.205,1.039c0.39,0,0.775-0.041,1.154-0.118l1.965,1.477l0.07-2.377c0.926-0.695,1.445-1.661,1.445-2.702
		C160.432,61.925,159.331,60.644,157.75,60.05"/>
	<path clip-path="url(#SVGID_2_)" fill="#F9F4ED" d="M147.91,61.631c0,1.138,0.549,2.031,1.568,2.674l0.063,2.008l1.506-1.3
		c0.518,0.152,0.952,0.188,1.544,0.188v-7.144C150.006,58.057,147.91,59.653,147.91,61.631"/>
	<path clip-path="url(#SVGID_2_)" fill="#484848" d="M152.592,57.129L152.592,57.129l-0.359,0.512l0.359,0.415
		c2.586,0,4.683,1.596,4.683,3.574c0,1.973-2.097,3.571-4.683,3.571l-0.359,0.47l0.359,0.456c3.088,0,5.608-2.017,5.608-4.497
		S155.68,57.129,152.592,57.129"/>
	<path clip-path="url(#SVGID_2_)" fill="#555554" d="M146.981,61.631c0,1.258,0.634,2.423,1.748,3.269l0.09,2.877l2.38-1.793
		c0.45,0.097,0.918,0.144,1.393,0.144v-0.457v-0.47c-0.592,0-1.026-0.036-1.544-0.188l-1.505,1.3l-0.064-2.008
		c-1.02-0.643-1.568-1.536-1.568-2.674c0-1.978,2.096-3.574,4.682-3.574v-0.416V57.13C149.501,57.13,146.981,59.151,146.981,61.631"
		/>
	<path clip-path="url(#SVGID_2_)" fill="#F7B77C" d="M159.309,73.887l-7.124-0.668c0,0-9.461,4.166-11,6.771
		c-2.146,3.633,0.399,15.949,0.399,15.949c9.734-0.685,7.935-14.551,7.935-14.551l2.59-2.582c0.196-0.262,0.479-0.63,0.875-1.141
		c0.072-0.093,0.139-0.184,0.202-0.275C159.676,78.164,159.309,73.887,159.309,73.887"/>
	<path clip-path="url(#SVGID_2_)" fill="#F7B77C" d="M166.764,70.832c0,0.736-0.597,1.334-1.334,1.334h-5.314
		c-0.735,0-1.333-0.598-1.333-1.334v-1.466c0-0.737,0.598-1.334,1.333-1.334h5.314c0.737,0,1.334,0.597,1.334,1.334V70.832z"/>
	<path clip-path="url(#SVGID_2_)" fill="#F7B77C" d="M166.764,75.455c0,0.736-0.597,1.333-1.334,1.333h-5.314
		c-0.735,0-1.333-0.597-1.333-1.333v-1.467c0-0.736,0.598-1.333,1.333-1.333h5.314c0.737,0,1.334,0.597,1.334,1.333V75.455z"/>
	<path clip-path="url(#SVGID_2_)" fill="#F7B77C" d="M166.764,80.256c0,0.736-0.597,1.333-1.334,1.333h-5.314
		c-0.735,0-1.333-0.597-1.333-1.333v-1.467c0-0.737,0.598-1.334,1.333-1.334h5.314c0.737,0,1.334,0.597,1.334,1.334V80.256z"/>
	<path clip-path="url(#SVGID_2_)" fill="#F7B77C" d="M166.764,84.966c0,0.737-0.597,1.334-1.334,1.334h-5.314
		c-0.735,0-1.333-0.597-1.333-1.334V83.5c0-0.737,0.598-1.334,1.333-1.334h5.314c0.737,0,1.334,0.597,1.334,1.334V84.966z"/>
	<path clip-path="url(#SVGID_2_)" fill="#524FA1" d="M119.537,136.486c-12.369,0-24.762-6.431-31.626-14.011l12.229-11.075
		c4.503,4.971,15.313,10.509,23.905,7.974c9.471-2.794,13.339-14.868,14.916-24.506l16.284,2.665
		c-4.241,25.914-16.77,34.787-26.531,37.667C125.716,136.085,122.626,136.486,119.537,136.486"/>
	<path clip-path="url(#SVGID_2_)" fill="#755239" d="M87.757,250.567c0,0,0.042-1.636,3.316-1.133
		c3.273,0.504,5.371,1.049,6.587,0.84c1.218-0.21,1.218,3.273,1.009,3.399c-0.211,0.126-5.247,0.84-5.583,0.714
		C92.751,254.261,87.757,250.567,87.757,250.567"/>
	<path clip-path="url(#SVGID_2_)" fill="#D3C1AE" d="M86.876,256.359c0,0-1.594,1.091-1.05,3.986
		c0.253,1.049,3.267,0.725,9.478,3.621c6.211,2.894,14.524,5.34,23.797,0.39c0.965-0.505,1.722-4.407-1.637-4.701
		C114.107,259.361,86.876,256.359,86.876,256.359"/>
	<path clip-path="url(#SVGID_2_)" fill="#F7B77C" d="M100.192,253.338c0,0.766-0.718,1.384-1.603,1.384h-7.781
		c-0.886,0-1.604-0.618-1.604-1.384v-10.66c0-0.764,0.718-1.384,1.604-1.384h7.781c0.885,0,1.603,0.62,1.603,1.384V253.338z"/>
	<path clip-path="url(#SVGID_2_)" fill="#E76124" d="M87.757,250.567c0,0-1.384,5.078-1.342,6.254
		c3.859,1.176,2.678,0.684,6.497,2.487c3.818,1.805,19.056,6.892,25.728,1.313c0.839-0.84-1.007-5.757-10.364-8.023
		c-1.806-0.712-4.531-3.581-5.58-5.093c-1.762-0.503-4.363,1.343-7.469,4.195C92.121,254.555,87.884,249.225,87.757,250.567"/>
	<path clip-path="url(#SVGID_2_)" fill="#D3C1AE" d="M104.691,254.439c-0.008-0.013-0.514-0.914-0.319-2.052
		c-0.459,0.115-0.938,0.28-1.404,0.516c-0.087,0.043-0.188,0.041-0.273-0.006c-0.085-0.045-0.142-0.13-0.151-0.226
		c-0.063-0.568-0.037-1.095,0.082-1.59c-0.084,0.009-0.17,0.018-0.258,0.025c-0.614,0.063-1.317,0.136-2.126,0.205
		c-0.116,0.012-0.221-0.047-0.277-0.143c-0.06-0.097-0.057-0.218,0.008-0.313c1.401-2.13,4.046-2.019,4.152-2.019
		c0.118,0.006,0.221,0.08,0.263,0.189c0.041,0.107,0.015,0.231-0.068,0.313c-0.34,0.341-0.609,0.693-0.806,1.063
		c0.929-0.082,1.624-0.109,2.191-0.009c0.11,0.02,0.199,0.1,0.231,0.206c0.031,0.107,0,0.223-0.079,0.298
		c-0.252,0.238-0.442,0.48-0.584,0.719c1.043-0.131,1.809-0.047,1.862-0.04c0.16,0.02,0.275,0.165,0.258,0.328
		c-0.021,0.159-0.161,0.276-0.327,0.257c-0.015-0.001-0.91-0.099-2.066,0.094c-0.279,1.014,0.176,1.84,0.203,1.89
		c0.08,0.142,0.031,0.321-0.11,0.402c-0.047,0.026-0.097,0.039-0.146,0.039C104.845,254.588,104.745,254.535,104.691,254.439
		 M105.038,250.923c-0.476-0.011-1.058,0.027-1.779,0.096c-0.114,0.37-0.167,0.759-0.157,1.172c0.495-0.21,0.992-0.354,1.457-0.452
		C104.666,251.47,104.823,251.196,105.038,250.923 M103.417,249.469c-0.68,0.092-1.736,0.368-2.54,1.195
		c0.524-0.049,0.999-0.099,1.432-0.143c0.179-0.019,0.351-0.036,0.517-0.052C102.971,250.122,103.168,249.79,103.417,249.469"/>
	<path clip-path="url(#SVGID_2_)" fill="#755239" d="M61.376,250.567c0,0-0.042-1.636-3.316-1.133
		c-3.273,0.504-5.371,1.049-6.588,0.84c-1.217-0.21-1.217,3.273-1.008,3.399c0.211,0.126,5.247,0.84,5.583,0.714
		C56.381,254.261,61.376,250.567,61.376,250.567"/>
	<path clip-path="url(#SVGID_2_)" fill="#E2D4C3" d="M62.257,256.359c0,0,1.594,1.091,1.049,3.986
		c-0.252,1.049-3.267,0.725-9.476,3.621c-6.212,2.894-14.525,5.34-23.798,0.39c-0.965-0.505-1.721-4.407,1.637-4.701
		C35.025,259.361,62.257,256.359,62.257,256.359"/>
	<path clip-path="url(#SVGID_2_)" fill="#FDC387" d="M48.94,253.338c0,0.766,0.717,1.384,1.603,1.384h7.781
		c0.886,0,1.604-0.618,1.604-1.384v-10.66c0-0.764-0.718-1.384-1.604-1.384h-7.781c-0.886,0-1.603,0.62-1.603,1.384V253.338z"/>
	<path clip-path="url(#SVGID_2_)" fill="#F47831" d="M61.376,250.567c0,0,1.384,5.078,1.342,6.254
		c-3.86,1.176-2.679,0.684-6.497,2.487c-3.818,1.805-19.056,6.892-25.728,1.313c-0.839-0.84,1.007-5.757,10.364-8.023
		c1.806-0.712,4.531-3.581,5.58-5.093c1.762-0.503,4.364,1.343,7.469,4.195C57.012,254.555,61.249,249.225,61.376,250.567"/>
	<path clip-path="url(#SVGID_2_)" fill="#E2D4C3" d="M44.278,254.588c-0.049,0-0.1-0.014-0.145-0.039
		c-0.142-0.081-0.191-0.262-0.11-0.402c0.027-0.049,0.483-0.876,0.202-1.89c-1.156-0.192-2.051-0.096-2.066-0.093
		c-0.166,0.019-0.307-0.099-0.327-0.26c-0.019-0.161,0.097-0.308,0.258-0.326c0.053-0.007,0.819-0.091,1.861,0.039
		c-0.141-0.237-0.331-0.479-0.582-0.718c-0.081-0.076-0.112-0.191-0.08-0.298c0.032-0.106,0.121-0.187,0.231-0.205
		c0.568-0.102,1.263-0.074,2.191,0.007c-0.196-0.371-0.464-0.722-0.805-1.063c-0.083-0.082-0.109-0.205-0.068-0.314
		s0.145-0.183,0.261-0.188c0.108,0,2.753-0.111,4.156,2.02c0.061,0.094,0.064,0.215,0.007,0.313
		c-0.058,0.096-0.164,0.153-0.279,0.142c-0.807-0.07-1.51-0.142-2.127-0.204c-0.087-0.009-0.172-0.018-0.256-0.026
		c0.118,0.495,0.144,1.021,0.083,1.59c-0.011,0.096-0.068,0.18-0.152,0.227c-0.086,0.046-0.187,0.047-0.274,0.004
		c-0.468-0.233-0.946-0.398-1.404-0.515c0.194,1.138-0.312,2.039-0.32,2.053C44.479,254.534,44.38,254.588,44.278,254.588
		 M44.667,251.738c0.465,0.097,0.96,0.242,1.457,0.453c0.008-0.415-0.044-0.803-0.156-1.173c-0.725-0.069-1.305-0.106-1.781-0.097
		C44.401,251.195,44.559,251.47,44.667,251.738 M46.399,250.47c0.166,0.016,0.337,0.034,0.517,0.052
		c0.433,0.045,0.907,0.093,1.432,0.143c-0.804-0.827-1.861-1.104-2.541-1.195C46.057,249.79,46.253,250.121,46.399,250.47"/>
	<polygon clip-path="url(#SVGID_2_)" fill="#F7B77C" points="82.049,97.506 74.829,97.506 74.042,103.436 74.829,109.467 
		82.049,109.467 	"/>
	<rect x="67.595" y="97.506" clip-path="url(#SVGID_2_)" fill="#FDC387" width="7.233" height="11.961"/>
	<path clip-path="url(#SVGID_2_)" fill="#FBF27F" d="M61.587,246.401H47.193v-66.704l24.223,2.352c0,0-1.12,0.629-3.912,5.297
		C63.699,193.708,61.587,246.401,61.587,246.401"/>
	<path clip-path="url(#SVGID_2_)" fill="#FBF27F" d="M88.071,246.401h14.394v-66.704l-24.225,2.352c0,0,1.123,0.629,3.914,5.297
		C85.959,193.708,88.071,246.401,88.071,246.401"/>
	<path clip-path="url(#SVGID_2_)" fill="#FBF27F" d="M47.193,158.418v22.845c0,0,20.724,1.571,27.636,1.571l0.786-9.961
		l-0.786-14.455H47.193z"/>
	<path clip-path="url(#SVGID_2_)" fill="#FBF27F" d="M74.829,158.418v24.416c6.911,0,27.635-1.571,27.635-1.571v-22.845H74.829z"/>
	<path clip-path="url(#SVGID_2_)" fill="#684731" d="M63.881,245.615c0,0.435-0.342,0.786-0.764,0.786H45.296
		c-0.423,0-0.764-0.352-0.764-0.786v-5.893c0-0.435,0.341-0.785,0.764-0.785h17.821c0.422,0,0.764,0.351,0.764,0.785V245.615z"/>
	<path clip-path="url(#SVGID_2_)" fill="#684731" d="M104.781,245.615c0,0.435-0.343,0.786-0.764,0.786H86.194
		c-0.421,0-0.764-0.352-0.764-0.786v-5.893c0-0.435,0.343-0.785,0.764-0.785h17.823c0.421,0,0.764,0.351,0.764,0.785V245.615z"/>
	<path clip-path="url(#SVGID_2_)" fill="#F7B77C" d="M30.187,187.094l0.777,2.515c0.241,0.772,1.063,1.206,1.837,0.967
		c0.558-0.174,0.937-0.654,1.013-1.198c0,0,0.002,0,0.004,0.002c0.594-0.547,0.912,0.166,0.912,0.166
		c0.241,0.775,1.061,1.207,1.837,0.967c0.702-0.217,1.118-0.917,1.009-1.624h0.003c0.356-0.635,0.739-0.02,0.739-0.02
		s0.004-0.001,0.007-0.003c0.301,0.663,1.048,1.021,1.762,0.798c0.647-0.199,1.049-0.809,1.026-1.452h0.003
		c0.218-0.819,0.902-0.374,0.902-0.374l0.002-0.002c0.37,0.309,0.881,0.432,1.373,0.278c0.772-0.239,1.207-1.062,0.968-1.835
		c-0.223-1.377,0.968-1.063,0.968-1.063s0-0.005-0.001-0.006c0.298,0.116,0.635,0.142,0.964,0.039
		c0.774-0.239,1.207-1.06,0.967-1.832l-0.73-2.365c-1.928-9.539-4.487-7.372-6.276-8.608c-1.79-1.237-3.039-5.584-3.039-5.584
		s-7.18,2.22-9.192,2.845c2.287,6.773,1.147,6.295,0.254,9.194C27.621,181.022,29.263,185.076,30.187,187.094"/>
	<path clip-path="url(#SVGID_2_)" fill="#6E69B0" d="M25.669,174.028c-6.637-19.978-6.274-36.163,1.079-48.105
		c7.99-12.978,21.284-15.854,25.168-16.425l2.404,16.324c-2.097,0.309-9.274,1.853-13.523,8.753
		c-4.61,7.487-4.425,19.331,0.531,34.25L25.669,174.028z"/>
	<path clip-path="url(#SVGID_2_)" fill="#6E69B0" d="M53.582,109.074c-4.901,0-8.875,3.654-8.875,10.099l2.485,45.294h27.777
		l0.785-24.826l-0.785-30.567H53.582z"/>
	<path clip-path="url(#SVGID_2_)" fill="#524FA1" d="M105.126,119.173c0-6.446-3.974-10.099-8.876-10.099H74.829v55.392h27.634
		L105.126,119.173z"/>
	<polygon clip-path="url(#SVGID_2_)" fill="#8B85C0" points="62.857,127.167 71.629,117.769 60.212,109.074 55.024,109.074 	"/>
	<polygon clip-path="url(#SVGID_2_)" fill="#3D3C79" points="87.01,127.167 78.253,117.688 89.76,109.074 94.843,109.074 	"/>
	<polygon clip-path="url(#SVGID_2_)" fill="#EAE3DA" points="74.822,108.288 74.036,115.777 74.822,126.003 74.846,126.065 
		78.252,117.687 89.725,109.073 	"/>
	<polygon clip-path="url(#SVGID_2_)" fill="#F9F4ED" points="60.212,109.074 71.628,117.769 74.822,126.002 74.822,108.289 	"/>
	<path clip-path="url(#SVGID_2_)" fill="#FCEE23" d="M57.603,164.466v-54.917c0-0.577-0.467-1.043-1.045-1.043h-3.066
		c-0.577,0-1.045,0.466-1.045,1.043v54.917H57.603z"/>
	<path clip-path="url(#SVGID_2_)" fill="#FCEE23" d="M96.694,164.466v-54.917c0-0.577-0.468-1.043-1.045-1.043h-3.066
		c-0.577,0-1.045,0.466-1.045,1.043v54.917H96.694z"/>
	<path clip-path="url(#SVGID_2_)" fill="#FCEE23" d="M58.806,167.309c0,1.265-1.025,2.287-2.288,2.287H53.53
		c-1.263,0-2.287-1.022-2.287-2.287v-2.987c0-1.264,1.024-2.288,2.287-2.288h2.988c1.263,0,2.288,1.024,2.288,2.288V167.309z"/>
	<path clip-path="url(#SVGID_2_)" fill="#FCEE23" d="M97.897,167.309c0,1.265-1.025,2.287-2.288,2.287h-2.988
		c-1.263,0-2.287-1.022-2.287-2.287v-2.987c0-1.264,1.024-2.288,2.287-2.288h2.988c1.263,0,2.288,1.024,2.288,2.288V167.309z"/>
	<path clip-path="url(#SVGID_2_)" fill="#F7B77C" d="M106.043,68.422c-0.071,1.775-0.724,3.936-2.495,3.837
		c-1.773-0.097-3.131-1.616-3.031-3.388l0.591-10.653c0.098-1.773,1.616-3.13,3.388-3.031c1.773,0.097,3.304,1.632,3.032,3.387
		C107.147,61.035,106.237,63.605,106.043,68.422"/>
	<path clip-path="url(#SVGID_2_)" fill="#FDC387" d="M43.614,68.422c0.072,1.775,0.724,3.936,2.496,3.837
		c1.773-0.097,3.13-1.616,3.031-3.388L48.55,58.218c-0.098-1.773-1.615-3.13-3.388-3.031c-1.773,0.097-3.303,1.632-3.032,3.387
		C42.51,61.035,43.42,63.605,43.614,68.422"/>
	<path clip-path="url(#SVGID_2_)" fill="#FDC387" d="M102.404,74.785c0,8.403-5.29,15.214-13.692,15.214H60.946
		c-8.403,0-13.693-6.811-13.693-15.214l-1.521-35.373c0-8.403,5.29-15.214,13.693-15.214h30.808c8.403,0,13.693,6.811,13.693,15.214
		L102.404,74.785z"/>
	<path clip-path="url(#SVGID_2_)" fill="#F7B77C" d="M90.113,24.198H74.709V90h13.883c8.403,0,13.692-6.812,13.692-15.215
		l1.521-35.373C103.805,31.01,98.516,24.198,90.113,24.198"/>
	<path clip-path="url(#SVGID_2_)" fill="#755239" d="M61.209,80.378c-6.773,5.697-12.982-6.413-12.982-15.263l-0.949-25.171
		c-0.636,1.727-3.029-4.378-3.029-0.148l2.896,35.581c0,24.346,27.564,31.238,27.564,31.238l0.76-16.928l-0.76-13.872
		C66.367,75.827,64.09,77.955,61.209,80.378"/>
	<path clip-path="url(#SVGID_2_)" fill="#684731" d="M88.208,80.378c6.773,5.697,12.981-6.413,12.981-15.263l0.936-25.298
		c0.638,1.727,2.955-6.44,2.955-2.21l-2.808,37.77c0,24.346-27.564,31.238-27.564,31.238v-30.8
		C83.05,75.827,85.326,77.955,88.208,80.378"/>
	<path clip-path="url(#SVGID_2_)" fill="#F7B77C" d="M75.112,91.945c-8.348,0-9.971-7.611-9.691-8.265
		c0.279-0.653,1.103-0.981,1.837-0.734c0.075,0.026,7.693,2.524,15.14,0.001c0.736-0.248,1.559,0.08,1.84,0.733
		C84.518,84.334,82.122,91.945,75.112,91.945"/>
	<path clip-path="url(#SVGID_2_)" fill="#684731" d="M83.755,52.696c6.833-2.256,13.675-0.03,13.744-0.008
		c1.161,0.37,2.669-2.415,1.51-2.79c-0.345-0.111-8.672-3.493-17.349-0.809C80.491,49.451,82.558,53.092,83.755,52.696"/>
	<path clip-path="url(#SVGID_2_)" fill="#755239" d="M65.935,52.696c-1.5-0.632-2.938-1.721-5.457-1.742
		c-4.611-0.038-8.237,1.718-8.287,1.734c-1.161,0.37-2.669-2.415-1.509-2.79c0.24-0.078,4.339-2.497,9.73-2.597
		c2.364-0.045,5.58,0.755,7.618,1.788C69.121,49.643,67.098,53.185,65.935,52.696"/>
	<path clip-path="url(#SVGID_2_)" fill="#FDC387" d="M69.215,74.879c0,1.673,2.583,3.032,5.634,3.072l-0.134-33.848
		C72.654,46.679,69.215,74.879,69.215,74.879"/>
	<path clip-path="url(#SVGID_2_)" fill="#F7B77C" d="M77.747,55.664c-1.22-7.247-2.132-10.737-3.031-11.562v33.849
		c0.045,0,0.089,0.003,0.133,0.003c3.113,0,5.635-1.377,5.635-3.076C80.483,74.878,79.416,65.592,77.747,55.664"/>
	<path clip-path="url(#SVGID_2_)" fill="#FDC387" d="M72.032,75.942c0,0.832-0.82,1.506-1.832,1.506
		c-1.011,0-1.831-0.674-1.831-1.506c0-0.831,0.82-1.506,1.831-1.506C71.212,74.437,72.032,75.111,72.032,75.942"/>
	<path clip-path="url(#SVGID_2_)" fill="#F7B77C" d="M81.263,75.942c0,0.832-0.82,1.506-1.832,1.506
		c-1.011,0-1.832-0.674-1.832-1.506c0-0.831,0.821-1.506,1.832-1.506C80.442,74.437,81.263,75.111,81.263,75.942"/>
	<path clip-path="url(#SVGID_2_)" fill="#755239" d="M74.708,11.19c-3.661-0.273-7.754-0.065-12.345,0.902
		C49.609,14.782,51.032,23.02,51.032,23.02c-1.884-1.332-5.604-0.418-6.941,7.545c-1.395,8.303,1.763,13.986,1.763,13.986
		s0.974,0.494,1.422-4.232c0-12.159,6.846-5.624,6.846-5.624s0.105-0.158,0.319-0.413c0.002-0.002,4.336-5.071,20.268-0.136
		l0.761-11.947L74.708,11.19z"/>
	<path clip-path="url(#SVGID_2_)" fill="#684731" d="M74.708,11.19v22.955c21.205,6.623,30.522,10.39,30.524,1.805
		C105.233,26.569,100.952,12.369,74.708,11.19"/>
	<path clip-path="url(#SVGID_2_)" fill="#D65237" d="M67.022,85.771c0,0,1.781,4.912,7.634,5.387
		c3.318,0.016,6.789-3.166,7.518-5.387C74.994,85.96,67.022,85.771,67.022,85.771"/>
	<path clip-path="url(#SVGID_2_)" fill="#FFFFFF" d="M66.596,83.962c0,0,8.746,2.477,16.07,0c0.285,1.427-0.697,2.251-0.697,2.251
		s-6.213,2.551-14.818-0.205C66.675,85.247,66.596,83.962,66.596,83.962"/>
	<path clip-path="url(#SVGID_2_)" fill="#484848" d="M93.426,57.353c0,1.523-1.234,2.758-2.758,2.758
		c-1.523,0-2.757-1.235-2.757-2.758s1.234-2.757,2.757-2.757C92.192,54.596,93.426,55.83,93.426,57.353"/>
	<path clip-path="url(#SVGID_2_)" fill="#F9F4ED" d="M92.285,56.767c0,0.516-0.417,0.935-0.935,0.935
		c-0.517,0-0.934-0.419-0.934-0.935c0-0.517,0.417-0.936,0.934-0.936C91.868,55.831,92.285,56.25,92.285,56.767"/>
	<path clip-path="url(#SVGID_2_)" fill="#484848" d="M61.286,57.353c0,1.523-1.235,2.758-2.758,2.758s-2.758-1.235-2.758-2.758
		s1.235-2.757,2.758-2.757S61.286,55.83,61.286,57.353"/>
	<path clip-path="url(#SVGID_2_)" fill="#F9F4ED" d="M60.145,56.767c0,0.516-0.417,0.935-0.935,0.935
		c-0.516,0-0.933-0.419-0.933-0.935c0-0.517,0.417-0.936,0.933-0.936C59.728,55.831,60.145,56.25,60.145,56.767"/>
	<path clip-path="url(#SVGID_2_)" fill-rule="evenodd" clip-rule="evenodd" fill="#D3C1AE" d="M173.224,69.34
		c3.196-3.281,5.176-7.759,5.176-12.705c0-5.119-2.136-9.744-5.514-13.044l-1.327,1.328c3.043,2.961,4.961,7.117,4.961,11.716
		c0,4.428-1.766,8.44-4.618,11.378L173.224,69.34z"/>
	<path clip-path="url(#SVGID_2_)" fill-rule="evenodd" clip-rule="evenodd" fill="#D3C1AE" d="M172.29,56.635
		c0-3.421-1.468-6.496-3.784-8.669l1.327-1.327c2.665,2.509,4.331,6.059,4.331,9.996c0,3.763-1.513,7.172-3.981,9.663l-1.328-1.327
		C170.973,62.824,172.29,59.881,172.29,56.635"/>
	<path clip-path="url(#SVGID_2_)" fill-rule="evenodd" clip-rule="evenodd" fill="#D3C1AE" d="M167.905,56.635
		c0,2.042-0.816,3.892-2.133,5.25l1.333,1.327c1.648-1.701,2.679-4.017,2.679-6.577c0-2.733-1.178-5.19-3.032-6.91l-1.327,1.327
		C166.94,52.434,167.905,54.423,167.905,56.635"/>
	<path clip-path="url(#SVGID_2_)" fill-rule="evenodd" clip-rule="evenodd" fill="#D3C1AE" d="M134.188,69.34l1.322-1.327
		c-2.854-2.938-4.617-6.95-4.617-11.378c0-4.599,1.918-8.755,4.96-11.716l-1.328-1.328c-3.379,3.3-5.513,7.925-5.513,13.044
		C129.013,61.581,130.991,66.059,134.188,69.34"/>
	<path clip-path="url(#SVGID_2_)" fill-rule="evenodd" clip-rule="evenodd" fill="#D3C1AE" d="M135.123,56.635
		c0,3.246,1.317,6.189,3.434,8.336l-1.327,1.327c-2.469-2.491-3.98-5.9-3.98-9.663c0-3.937,1.666-7.487,4.331-9.996l1.326,1.327
		C136.589,50.139,135.123,53.214,135.123,56.635"/>
	<path clip-path="url(#SVGID_2_)" fill-rule="evenodd" clip-rule="evenodd" fill="#D3C1AE" d="M139.507,56.635
		c0-2.212,0.965-4.201,2.481-5.583l-1.328-1.327c-1.854,1.72-3.032,4.177-3.032,6.91c0,2.56,1.029,4.876,2.68,6.577l1.332-1.327
		C140.323,60.527,139.507,58.677,139.507,56.635"/>
</g>
</svg>
