<?xml version="1.0" encoding="utf-8"?>
<!-- Generator: Adobe Illustrator 16.0.0, SVG Export Plug-In . SVG Version: 6.00 Build 0)  -->
<!DOCTYPE svg PUBLIC "-//W3C//DTD SVG 1.1//EN" "http://www.w3.org/Graphics/SVG/1.1/DTD/svg11.dtd">
<svg version="1.1" id="Layer_1" xmlns="http://www.w3.org/2000/svg" xmlns:xlink="http://www.w3.org/1999/xlink" x="0px" y="0px"
	 width="558.447px" height="155.423px" viewBox="0 0 558.447 155.423" enable-background="new 0 0 558.447 155.423"
	 xml:space="preserve">
<polygon fill="#FFED00" points="0,-0.001 0,155.423 46.446,155.423 46.446,134.278 23.495,134.278 23.495,21.144 46.446,21.144 
	46.446,-0.001 "/>
<polygon fill="#FFED00" points="512.001,-0.001 512.001,20.964 534.953,20.964 534.953,134.459 512.001,134.459 512.001,155.423 
	558.447,155.423 558.447,-0.001 "/>
<g>
	<defs>
		<rect id="SVGID_1_" width="558.447" height="155.423"/>
	</defs>
	<clipPath id="SVGID_2_">
		<use xlink:href="#SVGID_1_"  overflow="visible"/>
	</clipPath>
	<path clip-path="url(#SVGID_2_)" fill="#FFFFFF" d="M73.651,63.866c0-3.807,3.222-7.321,10.835-7.321
		c6.59,0,13.326,1.171,17.719,5.125l11.715-11.861c-7.323-6.882-17.28-8.932-29.141-8.932c-15.521,0-29.432,8.493-29.432,24.307
		c0,14.057,8.493,20.062,22.258,21.379l12.006,1.171c6.004,0.586,8.055,3.223,8.055,7.029c0,5.71-6.883,7.907-13.472,7.907
		c-5.857,0-14.058-0.878-20.354-7.175l-12.446,12.444c9.665,9.666,20.5,10.984,32.507,10.984c18.011,0,32.361-8.054,32.361-24.894
		c0-12.886-7.614-20.939-22.696-22.403L81.56,70.456C74.822,69.87,73.651,66.648,73.651,63.866 M209.243,118.045h19.036V69.284
		c0-8.346-2.196-15.521-8.347-21.671c-4.245-4.247-11.128-6.736-18.742-6.736c-9.519,0-16.4,2.928-22.844,9.664
		c-4.832-6.589-11.714-9.664-20.207-9.664c-7.029,0-14.056,2.782-19.035,7.907v-7.029h-18.597v76.29h19.037V71.92
		c0-10.397,6.734-13.911,12.738-13.911c6.003,0,12.594,3.514,12.594,13.911v46.125h19.036V71.481
		c0-9.958,6.882-13.472,12.738-13.472c6.004,0,12.593,3.514,12.593,13.911V118.045z M277.186,89.93c0,4.687-0.731,7.76-2.781,9.665
		c-3.369,3.22-6.736,3.661-12.008,3.661c-7.468,0-10.982-3.515-10.982-8.786c0-5.418,3.806-8.639,10.69-8.639h15.081V89.93z
		 M277.625,118.045h18.596V67.82c0-17.864-11.129-26.943-32.508-26.943c-12.739,0-20.06,2.343-27.527,10.543l12.152,11.861
		c3.955-4.54,7.322-6.297,14.644-6.297c10.104,0,14.203,3.661,14.203,12.007v3.807h-18.011c-17.717,0-26.064,9.958-26.064,22.111
		c0,6.735,2.196,12.886,6.296,17.133c4.539,4.539,10.836,6.734,19.475,6.734c8.787,0,13.619-2.195,18.744-7.32V118.045z
		 M371.922,62.54h13.475V43.944h-13.475V21.402h-19.035v21.862h-0.04c-3.371-1.682-7.051-2.387-11.525-2.387
		c-8.2,0-15.521,3.807-19.183,8.2v-7.322h-18.596v76.29h19.035V72.066c0-9.664,6.442-14.057,12.3-14.057
		c4.686,0,7.175,1.611,10.104,4.539l0.01-0.008h7.896v33.687c0,10.836,6.589,21.818,22.111,21.818h10.396v-16.107h-6.882
		c-4.539,0-6.59-2.488-6.59-6.883V62.54z M405.893,72.798c0.146-3.367,0.586-5.417,1.757-8.199c2.051-4.54,6.298-7.908,12.74-7.908
		s10.689,3.368,12.739,7.908c1.171,2.782,1.611,4.832,1.757,8.199H405.893z M405.893,85.831h47.736v-8.493
		c0-20.94-12.007-36.461-33.239-36.461c-19.768,0-33.24,14.057-33.24,38.95c0,30.896,17.279,39.097,35.29,39.097
		c13.765,0,21.231-4.247,28.993-12.007l-11.567-11.276c-4.833,4.832-8.934,7.174-17.279,7.174
		C411.896,102.814,405.893,95.641,405.893,85.831 M515.273,48.052c-5.271-5.272-10.543-7.175-18.011-7.175
		c-8.2,0-15.521,3.807-19.182,8.2v-7.322h-18.598v76.29h19.036V72.066c0-9.664,6.443-14.057,12.301-14.057
		c4.686,0,7.175,1.611,10.104,4.539L515.273,48.052z"/>
</g>
</svg>
