<?xml version="1.0" encoding="utf-8"?>
<!-- Generator: Adobe Illustrator 16.0.0, SVG Export Plug-In . SVG Version: 6.00 Build 0)  -->
<!DOCTYPE svg PUBLIC "-//W3C//DTD SVG 1.1//EN" "http://www.w3.org/Graphics/SVG/1.1/DTD/svg11.dtd">
<svg version="1.1" id="Layer_1" xmlns="http://www.w3.org/2000/svg" xmlns:xlink="http://www.w3.org/1999/xlink" x="0px" y="0px"
	 width="146.823px" height="55.135px" viewBox="0 0 146.823 55.135" enable-background="new 0 0 146.823 55.135"
	 xml:space="preserve">
<g>
	<defs>
		<rect id="SVGID_1_" width="146.823" height="55.135"/>
	</defs>
	<clipPath id="SVGID_2_">
		<use xlink:href="#SVGID_1_"  overflow="visible"/>
	</clipPath>
	<path clip-path="url(#SVGID_2_)" fill="#969696" d="M9.297,16.099c1.01-0.861,2.139-1.604,3.356-2.168
		c2.109-0.951,4.396-1.367,6.713-1.367c4.931,0,9.624,1.307,13.01,5.02c3.475,3.862,4.515,9.06,4.515,14.109V53.05
		c0,2.436-1.931,2.049-4.96,2.049c-2.852,0-4.664,0.298-4.664-1.96V33.267c0-2.82-0.356-6.475-2.138-8.792
		c-1.575-2.049-3.981-2.643-6.446-2.643c-2.762,0-5.228,0.772-6.832,3.118c-1.99,2.911-2.287,7.961-2.287,11.377v16.871
		c0,2.287-2.257,1.9-5.079,1.9C1.663,55.099,0,55.515,0,53.168V14.762c0-2.435,1.663-2.019,4.574-2.019
		c2.941,0,4.723-0.446,4.723,1.99V16.099"/>
	<path clip-path="url(#SVGID_2_)" fill="#969696" d="M88.069,21.683h-5.525c-1.812,0-1.604-2.495-1.604-4.96
		c0-2.317-0.06-4.099,1.545-4.099h5.584V2.554c0-1.99,1.218-2.554,4.782-2.554c3.535,0,4.781,0.505,4.781,2.554v10.07h4.546
		c2.346,0,2.316,1.336,2.316,4.604c0,3-0.06,4.425-2.108,4.425h-4.754v31.634c0,2.257-1.752,1.813-4.633,1.813
		c-2.644,0-4.931,0.326-4.931-1.753V21.683z"/>
	<path clip-path="url(#SVGID_2_)" fill="#969696" d="M72.208,25.396c-0.03,0-0.178,0.535-0.149,0.535
		C72,25.96,71.941,25.99,71.881,26.02c-0.059,0.029-0.089,0.059-0.148,0.089l-1.842,1.218l-18.059,9.802
		c0.089,0.297,0.267,0.92,0.416,1.188c0.534,0.921,1.396,1.604,2.435,1.871c1.248,0.326,2.555,0,3.683-0.624l19.07-10.455
		c0.95-0.505,1.574-1.337,1.96-2.317c1.308-3.416-4.157-8.317-6.029-9.743c-2.079-1.574-4.455-2.851-6.861-3.564
		c0.446,0.297,0.921,0.713,1.337,1.01c2.346,1.782,3.92,4.188,5.436,6.713c0.653,0.95,0.742,1.752,0.297,2.911
		c-0.089,0.237-0.268,0.327-0.387,0.534C72.921,25.099,72.683,25.04,72.208,25.396"/>
	<path clip-path="url(#SVGID_2_)" fill="#969696" d="M59.228,20.376h-0.089c-0.297-0.03-0.594-0.03-0.921-0.03h-0.089
		c-0.327,0-0.624,0-0.951,0.03h-0.029c-0.327,0.03-0.654,0.059-0.98,0.089h-0.06c-1.426,0.178-2.732,0.564-4.01,1.129
		c-12.534,5.733-10.782,24.921,2.971,27.891c1.039,0.208,2.138,0.327,3.178,0.327c0.624,0,1.307-0.061,1.93-0.119
		c0.119,0,0.208-0.03,0.327-0.061c0.802-0.117,1.604-0.297,2.347-0.563c0.772-0.267,1.574-0.594,2.317-0.98
		c1.544-0.802,2.881-1.87,4.069-3.148c0.148-0.148,0.267-0.326,0.416-0.476c0.742-0.949,1.425-1.989,1.93-3.059
		c-0.207,0.326-0.445,0.653-0.683,0.95c-1.099,1.396-2.495,2.466-4.039,3.297c-1.426,0.743-2.911,1.277-4.515,1.485
		c-1.545,0.208-3.089,0.148-4.634-0.179c-1.515-0.327-2.94-0.891-4.277-1.723c-3.683-2.257-6.357-7.544-6.238-11.821
		c0.179-6.327,5.139-11.941,11.436-12.713c0.594-0.06,1.188-0.119,1.812-0.089h-0.03c-0.089,0-0.148-0.03-0.238-0.03
		C59.881,20.435,59.555,20.406,59.228,20.376"/>
	<path clip-path="url(#SVGID_2_)" fill="#969696" d="M80.406,37.01c-0.535-0.979-1.337-1.634-2.406-1.96
		c-1.04-0.327-2.109-0.208-3.089,0.326c-0.98,0.535-1.634,1.337-1.96,2.377C72.564,39,72,40.159,71.257,41.228
		c-0.504,1.069-1.158,2.079-1.901,3.03c-0.118,0.178-0.267,0.326-0.415,0.476c-1.129,1.276-2.495,2.316-4.01,3.118
		c-0.743,0.387-1.485,0.713-2.287,0.98c-0.743,0.267-1.545,0.445-2.317,0.563c-0.119,0.03-0.208,0.03-0.327,0.061
		c-0.624,0.089-1.277,0.118-1.901,0.118c-1.069,0-2.109-0.089-3.148-0.326c-13.604-2.911-15.327-21.862-2.941-27.535
		c1.247-0.564,2.554-0.951,3.95-1.129h0.06c0.327-0.029,0.653-0.059,0.98-0.089h0.03c0.327-0.03,0.624-0.03,0.95-0.03h0.089
		c0.297,0,0.624,0.03,0.921,0.03h0.089c0.297,0.03,0.594,0.06,0.891,0.089h0.06c0.059,0,0.119,0.03,0.178,0.03h0.03
		c3.178,0.03,6.356,1.129,8.792,3.208l0.356,0.297L69,24.327c-4.931,2.703-9.861,5.406-14.792,8.138
		c-1.069,0.594-1.96,1.515-2.317,2.703c-0.208,0.713-0.208,1.486,0,2.198l17.97-9.861l2.436-1.337
		c0.06-0.029,0.089-0.059,0.149-0.089c0.059-0.029,0.118-0.059,0.148-0.089c0.476-0.327,0.862-0.772,1.159-1.277
		c0.118-0.208,0.207-0.416,0.297-0.654c0.415-1.128,0.148-2.227-0.505-3.178c-1.515-2.524-3.416-4.722-5.763-6.505
		c-0.416-0.326-0.831-0.623-1.277-0.891c-8.109-2.435-17.317,0.03-22.812,7.07c-3.416,4.366-5.079,9.742-4.544,15.267
		c0.267,2.821,1.128,5.524,2.465,8.02c1.396,2.554,3.208,4.841,5.495,6.653c2.168,1.692,4.574,2.97,7.218,3.713
		c2.614,0.743,5.317,0.951,8.02,0.683c2.821-0.297,5.495-1.157,7.99-2.524c2.495-1.336,4.841-3.029,6.683-5.168
		c1.842-2.079,3-4.604,3.653-7.277C81.059,39,80.911,37.961,80.406,37.01"/>
	<path clip-path="url(#SVGID_2_)" fill="#969696" d="M127.188,54.387c0.654-0.208,1.308-0.446,1.961-0.743
		c2.614-1.129,4.99-2.732,7.01-4.752c1.99-2.02,3.564-4.367,4.693-6.98c1.01-2.347,1.574-4.842,1.723-7.396
		c0.029-0.356,0.029-0.742,0.029-1.099v-0.564v-0.355c-0.089-2.675-0.683-5.258-1.782-7.694c-0.386-0.891-0.86-1.752-1.337-2.584
		c-0.949-1.604-2.108-3.089-3.444-4.425c-1.427-1.426-3.03-2.674-4.782-3.654c-0.119-0.059-0.208-0.119-0.327-0.178
		c-0.594-0.327-1.218-0.654-1.842-0.921c-0.268-0.119-0.534-0.238-0.802-0.327h0.06c-0.03,0-0.06-0.029-0.06-0.029
		c-0.861-0.119-1.693-0.179-2.584-0.179h-0.029h-0.03c-2.911,0.119-5.763,0.713-8.466,1.901c-2.524,1.099-4.841,2.614-6.772,4.575
		c-1.931,1.93-3.416,4.188-4.484,6.713c-1.129,2.613-1.634,5.405-1.634,8.256c0,2.911,0.505,5.792,1.692,8.466
		c1.07,2.524,2.614,4.812,4.604,6.713c1.961,1.9,4.218,3.386,6.743,4.396c2.286,0.951,4.692,1.456,7.157,1.574
		c0.03,0,0.061,0,0.09-0.029h-0.09C125.376,54.892,126.268,54.653,127.188,54.387 M123.327,49.545c-1.932,0-3.803-0.356-5.584-1.129
		c-1.724-0.742-3.268-1.782-4.604-3.089c-1.337-1.337-2.376-2.882-3.119-4.604c-0.771-1.782-1.099-3.653-1.099-5.584
		s0.356-3.832,1.129-5.643c0.742-1.724,1.752-3.298,3.089-4.634c1.307-1.337,2.881-2.376,4.604-3.089
		c1.781-0.773,3.652-1.129,5.584-1.129c0.416,0,0.831,0.03,1.218,0.059h-0.03h0.03c0.327-0.029,0.652-0.029,0.95-0.029
		c1.781,0,3.505,0.326,5.139,1.039c1.574,0.683,3,1.604,4.247,2.822c1.218,1.218,2.169,2.644,2.822,4.248
		c0.683,1.634,1.01,3.356,1.01,5.139c0,1.753-0.327,3.475-1.01,5.108c-0.387,0.921-0.861,1.782-1.455,2.556v0.028
		c0,0,0-0.028,0.028-0.028c-0.712,1.365-1.603,2.643-2.702,3.742c-1.337,1.337-2.91,2.376-4.634,3.089
		C127.158,49.158,125.258,49.545,123.327,49.545"/>
	<path clip-path="url(#SVGID_2_)" fill="#969696" d="M145.129,25.604c-1.129-2.525-2.673-4.812-4.604-6.772
		c-1.931-1.931-4.218-3.476-6.713-4.604c-1.752-0.773-3.594-1.307-5.495-1.545c0.238,0.089,0.476,0.208,0.713,0.297
		c0.624,0.297,1.248,0.594,1.843,0.921c0.117,0.059,0.208,0.119,0.325,0.178c1.754,1.01,3.357,2.228,4.782,3.683
		c1.337,1.337,2.496,2.822,3.446,4.426c0.505,0.832,0.951,1.693,1.337,2.584c1.069,2.466,1.663,5.05,1.782,7.723v0.357v0.563
		c0,0.356,0,0.742-0.03,1.099c-0.119,2.555-0.683,5.05-1.723,7.396c-1.128,2.584-2.703,4.96-4.693,6.979
		c-2.019,2.051-4.396,3.624-7.01,4.754c-0.653,0.267-1.308,0.533-1.96,0.741c-0.861,0.268-1.752,0.476-2.645,0.654
		c0.327,0,0.685,0.029,1.011,0.029c2.882,0,5.732-0.534,8.377-1.693c2.523-1.099,4.811-2.614,6.741-4.574
		c1.901-1.96,3.416-4.218,4.516-6.713c1.129-2.584,1.692-5.346,1.692-8.168C146.852,31.04,146.287,28.248,145.129,25.604"/>
	<path clip-path="url(#SVGID_2_)" fill="#969696" d="M117.624,21.683c-1.724,0.743-3.297,1.782-4.634,3.119
		c-1.337,1.336-2.406,2.94-3.118,4.663c-0.773,1.782-1.129,3.714-1.129,5.645c0,1.93,0.355,3.831,1.099,5.614
		c0.742,1.722,1.782,3.297,3.148,4.633c1.307,1.337,2.882,2.377,4.634,3.119c1.782,0.771,3.683,1.129,5.614,1.129
		c1.931,0,3.86-0.357,5.673-1.129c1.723-0.742,3.327-1.752,4.664-3.119c1.099-1.1,1.989-2.376,2.701-3.742
		c-0.415,0.564-0.86,1.099-1.365,1.604c-1.219,1.217-2.673,2.197-4.277,2.851c-1.634,0.683-3.386,1.04-5.168,1.04
		c-1.753,0-3.505-0.327-5.139-1.01c-1.574-0.684-3.03-1.635-4.248-2.853c-1.218-1.217-2.198-2.673-2.852-4.217
		c-0.713-1.604-1.04-3.357-1.04-5.139c0-1.782,0.357-3.535,1.04-5.168c0.684-1.575,1.604-3.061,2.852-4.278
		c1.218-1.217,2.674-2.198,4.248-2.851c1.307-0.564,2.732-0.891,4.129-0.98c-0.387-0.03-0.803-0.06-1.188-0.06
		C121.307,20.584,119.436,20.94,117.624,21.683"/>
</g>
</svg>
