<?xml version="1.0" encoding="utf-8"?>
<!-- Generator: Adobe Illustrator 16.0.0, SVG Export Plug-In . SVG Version: 6.00 Build 0)  -->
<!DOCTYPE svg PUBLIC "-//W3C//DTD SVG 1.1//EN" "http://www.w3.org/Graphics/SVG/1.1/DTD/svg11.dtd">
<svg version="1.1" id="Layer_1" xmlns="http://www.w3.org/2000/svg" xmlns:xlink="http://www.w3.org/1999/xlink" x="0px" y="0px"
	 width="99.076px" height="113.386px" viewBox="0 0 99.076 113.386" enable-background="new 0 0 99.076 113.386"
	 xml:space="preserve">
<g>
	<defs>
		<rect id="SVGID_1_" width="99.076" height="113.386"/>
	</defs>
	<clipPath id="SVGID_2_">
		<use xlink:href="#SVGID_1_"  overflow="visible"/>
	</clipPath>
	<path clip-path="url(#SVGID_2_)" fill="#848484" d="M94.063,96.035c0,4.469-1.068,8.412-3.748,11.453
		c-3.404,3.93-8.591,5.898-15.021,5.898c-12.888,0-30.594-7.514-46.69-20.934C10.549,77.273,0,58.663,0,45.251
		c0-4.469,1.254-8.226,3.767-11.27c3.569-4.282,8.935-6.069,15.543-6.069c6.054,0,13.456,1.939,20.913,5.022l-9.449,52.111H55.27
		c5.259,0,9.036-3.261,10.117-8.803l4.013-23.573C84.702,66.958,94.063,83.802,94.063,96.035 M29.866,0
		c-3.223,0-5.901,2.163-6.615,5.558l-2.857,15.548h25.532l-10.96,60.439H55.27c2.71,0,5.762-1.255,6.667-5.89l9.285-54.55h18.364
		c3.235,0,5.907-2.148,6.624-5.54L99.076,0H29.866z"/>
</g>
</svg>
