<?xml version="1.0" encoding="utf-8"?>
<!-- Generator: Adobe Illustrator 16.0.0, SVG Export Plug-In . SVG Version: 6.00 Build 0)  -->
<!DOCTYPE svg PUBLIC "-//W3C//DTD SVG 1.1//EN" "http://www.w3.org/Graphics/SVG/1.1/DTD/svg11.dtd">
<svg version="1.1" id="Layer_1" xmlns="http://www.w3.org/2000/svg" xmlns:xlink="http://www.w3.org/1999/xlink" x="0px" y="0px"
	 width="944.188px" height="844.984px" viewBox="0 0 944.188 844.984" enable-background="new 0 0 944.188 844.984"
	 xml:space="preserve">
<g>
	<defs>
		<rect id="SVGID_1_" width="944.188" height="844.984"/>
	</defs>
	<clipPath id="SVGID_2_">
		<use xlink:href="#SVGID_1_"  overflow="visible"/>
	</clipPath>
	<polygon clip-path="url(#SVGID_2_)" fill="#F8B77C" points="372.384,376.31 347.586,475.941 431.401,504.498 451.701,405.642 	"/>
	<g clip-path="url(#SVGID_2_)">
		<defs>
			<rect id="SVGID_3_" width="944.188" height="844.984"/>
		</defs>
		<clipPath id="SVGID_4_">
			<use xlink:href="#SVGID_3_"  overflow="visible"/>
		</clipPath>
		<path clip-path="url(#SVGID_4_)" fill="#F8B77C" d="M391.164,210.419c7.517,0.583,13.021,7.463,12.309,15.362l5.576,90.873
			c-0.719,7.9-21.409,16.552-28.918,15.964c-7.509-0.585-21.257,28.444-20.549,20.544l16.689-129.503
			C376.99,215.761,383.655,209.831,391.164,210.419"/>
		<path clip-path="url(#SVGID_4_)" fill="#F8B77C" d="M529.227,293.05c16.7,15.134,18.134,41.905,3.212,59.795l-59.71,71.574
			c-14.927,17.893-40.557,20.125-57.257,4.99l-44.083-39.957c-16.691-15.138-18.126-41.909-3.2-59.802l59.71-71.572
			c14.923-17.891,40.553-20.122,57.251-4.986L529.227,293.05z"/>
		<path clip-path="url(#SVGID_4_)" fill="#514EA0" d="M466.327,464.154c-42.642,175.936-116.741,293.044-220.229,348.062
			C133.614,872.009,29.292,834.214,0,821.202l55.641-130.385c15.822,7.026,72.115,27.492,131.908-4.297
			c64.886-34.492,116.015-122.186,147.86-253.576L466.327,464.154z"/>
	</g>
	<g clip-path="url(#SVGID_2_)">
		<defs>
			<polygon id="SVGID_5_" points="401.69,5.984 401.712,418.508 938,418.508 937.977,5.984 			"/>
		</defs>
		<clipPath id="SVGID_6_">
			<use xlink:href="#SVGID_5_"  overflow="visible"/>
		</clipPath>
		<rect x="402.583" y="5.961" clip-path="url(#SVGID_6_)" fill="#1AB4B1" width="534.273" height="412.651"/>
		<polygon clip-path="url(#SVGID_6_)" fill="#FEF140" points="938,418.612 867.04,418.612 867.04,404.862 924.249,404.862 
			924.249,19.711 867.04,19.711 867.04,5.962 938,5.962 		"/>
		<polygon clip-path="url(#SVGID_6_)" fill="#FEF140" points="472.543,418.612 401.583,418.612 401.583,5.962 472.543,5.962 
			472.543,19.711 415.334,19.711 415.334,404.862 472.543,404.862 		"/>
		<path clip-path="url(#SVGID_6_)" fill="#FFFFFF" d="M433.409,218.161h-3.806l-0.779,2.116h1.11c0.138,0,0.237,0.027,0.297,0.079
			c0.059,0.053,0.089,0.123,0.089,0.211c0,0.082-0.03,0.151-0.089,0.206c-0.06,0.056-0.159,0.083-0.297,0.083h-2.165
			c-0.137,0-0.236-0.027-0.296-0.083c-0.06-0.055-0.09-0.124-0.09-0.206c0-0.088,0.03-0.158,0.09-0.211
			c0.06-0.052,0.159-0.079,0.296-0.079h0.449l2.557-6.908h-1.709c-0.138,0-0.237-0.026-0.297-0.079
			c-0.06-0.053-0.09-0.123-0.09-0.21c0-0.087,0.03-0.157,0.09-0.21c0.06-0.053,0.159-0.08,0.297-0.08h2.916l2.827,7.487h0.448
			c0.138,0,0.236,0.027,0.296,0.079c0.06,0.053,0.09,0.123,0.09,0.211c0,0.082-0.03,0.151-0.09,0.206
			c-0.06,0.056-0.158,0.083-0.296,0.083h-2.158c-0.143,0-0.244-0.027-0.304-0.083c-0.059-0.055-0.089-0.124-0.089-0.206
			c0-0.088,0.03-0.158,0.089-0.211c0.06-0.052,0.161-0.079,0.304-0.079h1.103L433.409,218.161z M433.188,217.583l-1.599-4.213
			h-0.214l-1.551,4.213H433.188z M451.284,212.204v8.073h0.772c0.142,0,0.243,0.027,0.303,0.079c0.06,0.053,0.09,0.123,0.09,0.211
			c0,0.082-0.03,0.151-0.09,0.206c-0.06,0.056-0.161,0.083-0.303,0.083h-1.359v-1.151c-0.671,0.919-1.523,1.379-2.557,1.379
			c-0.524,0-1.026-0.139-1.507-0.417c-0.48-0.278-0.859-0.675-1.137-1.19c-0.278-0.514-0.417-1.045-0.417-1.592
			c0-0.552,0.139-1.084,0.417-1.596c0.278-0.512,0.657-0.909,1.137-1.189c0.481-0.281,0.985-0.421,1.514-0.421
			c1.011,0,1.861,0.46,2.55,1.379v-3.268h-0.772c-0.142,0-0.243-0.027-0.303-0.082c-0.06-0.056-0.09-0.127-0.09-0.214
			c0-0.083,0.03-0.152,0.09-0.207c0.06-0.055,0.161-0.083,0.303-0.083H451.284z M450.697,217.885c0-0.735-0.248-1.356-0.744-1.861
			c-0.496-0.506-1.087-0.759-1.772-0.759c-0.689,0-1.282,0.253-1.779,0.759c-0.496,0.505-0.744,1.126-0.744,1.861
			c0,0.731,0.248,1.35,0.744,1.858c0.497,0.508,1.09,0.762,1.779,0.762c0.685,0,1.276-0.254,1.772-0.762
			C450.449,219.235,450.697,218.616,450.697,217.885 M460.052,218.009h-5.902c0.101,0.749,0.415,1.352,0.941,1.81
			c0.527,0.457,1.178,0.686,1.955,0.686c0.432,0,0.885-0.072,1.358-0.214c0.473-0.143,0.86-0.331,1.158-0.565
			c0.088-0.069,0.163-0.104,0.228-0.104c0.073,0,0.138,0.029,0.193,0.086c0.055,0.058,0.083,0.126,0.083,0.204
			c0,0.078-0.037,0.154-0.111,0.227c-0.22,0.23-0.612,0.445-1.175,0.645c-0.563,0.2-1.141,0.3-1.734,0.3
			c-0.993,0-1.821-0.325-2.486-0.976c-0.664-0.65-0.996-1.437-0.996-2.361c0-0.841,0.312-1.563,0.934-2.165
			c0.623-0.602,1.394-0.903,2.313-0.903c0.947,0,1.726,0.309,2.338,0.927C459.76,216.225,460.061,217.026,460.052,218.009
			 M459.466,217.423c-0.115-0.639-0.417-1.158-0.907-1.558c-0.489-0.4-1.072-0.6-1.748-0.6c-0.675,0-1.257,0.198-1.744,0.593
			s-0.79,0.917-0.91,1.565H459.466z M463.415,215.472v4.805h1.027c0.138,0,0.237,0.027,0.297,0.079
			c0.059,0.053,0.089,0.123,0.089,0.211c0,0.082-0.03,0.151-0.089,0.206c-0.06,0.056-0.159,0.083-0.297,0.083h-2.806
			c-0.138,0-0.237-0.027-0.296-0.083c-0.06-0.055-0.09-0.124-0.09-0.206c0-0.088,0.03-0.158,0.09-0.211
			c0.059-0.052,0.158-0.079,0.296-0.079h1.193v-4.805h-1.11c-0.138,0-0.237-0.028-0.296-0.083c-0.06-0.055-0.09-0.126-0.09-0.213
			c0-0.083,0.03-0.152,0.09-0.207c0.059-0.055,0.158-0.083,0.296-0.083h1.11v-0.855c0-0.538,0.155-0.976,0.465-1.316
			c0.311-0.341,0.666-0.511,1.066-0.511c0.312,0,0.65,0.065,1.013,0.193c0.193,0.069,0.29,0.175,0.29,0.318
			c0,0.082-0.026,0.15-0.076,0.203c-0.051,0.053-0.113,0.079-0.186,0.079c-0.033,0-0.083-0.011-0.152-0.034
			c-0.372-0.115-0.664-0.173-0.876-0.173c-0.262,0-0.473,0.095-0.634,0.283c-0.216,0.257-0.324,0.577-0.324,0.958v0.855h1.027
			c0.138,0,0.237,0.028,0.297,0.083c0.059,0.055,0.089,0.126,0.089,0.214c0,0.082-0.03,0.151-0.089,0.206
			c-0.06,0.055-0.159,0.083-0.297,0.083H463.415z M468.02,214.886v5.391h1.069c0.142,0,0.244,0.027,0.303,0.079
			c0.06,0.053,0.09,0.123,0.09,0.211c0,0.082-0.03,0.151-0.09,0.206c-0.059,0.056-0.161,0.083-0.303,0.083h-2.758
			c-0.138,0-0.236-0.027-0.296-0.083c-0.06-0.055-0.09-0.124-0.09-0.206c0-0.088,0.029-0.158,0.086-0.211
			c0.058-0.052,0.158-0.079,0.3-0.079h1.11v-4.805h-0.82c-0.138,0-0.237-0.028-0.297-0.083c-0.059-0.055-0.089-0.126-0.089-0.213
			c0-0.083,0.03-0.152,0.089-0.207c0.06-0.055,0.159-0.083,0.297-0.083H468.02z M468.014,213.411h-0.855v-1.496h0.855V213.411z
			 M471.99,214.886v0.876c0.405-0.409,0.77-0.692,1.096-0.848c0.327-0.157,0.694-0.235,1.104-0.235c0.441,0,0.844,0.095,1.206,0.283
			c0.258,0.138,0.491,0.366,0.7,0.686c0.209,0.319,0.314,0.647,0.314,0.982v3.647h0.488c0.139,0,0.237,0.027,0.298,0.079
			c0.059,0.053,0.089,0.123,0.089,0.211c0,0.082-0.03,0.151-0.089,0.206c-0.061,0.056-0.159,0.083-0.298,0.083h-1.551
			c-0.143,0-0.244-0.027-0.303-0.083c-0.061-0.055-0.09-0.124-0.09-0.206c0-0.088,0.029-0.158,0.09-0.211
			c0.059-0.052,0.16-0.079,0.303-0.079h0.482v-3.55c0-0.409-0.149-0.755-0.448-1.038c-0.298-0.282-0.698-0.424-1.199-0.424
			c-0.382,0-0.713,0.077-0.993,0.231c-0.28,0.154-0.68,0.537-1.2,1.147v3.633h0.655c0.139,0,0.237,0.027,0.297,0.079
			c0.06,0.053,0.09,0.123,0.09,0.211c0,0.082-0.03,0.151-0.09,0.206c-0.06,0.056-0.158,0.083-0.297,0.083h-1.889
			c-0.138,0-0.237-0.027-0.296-0.083c-0.06-0.055-0.09-0.124-0.09-0.206c0-0.088,0.03-0.158,0.09-0.211
			c0.059-0.052,0.158-0.079,0.296-0.079h0.655v-4.805h-0.489c-0.138,0-0.237-0.028-0.297-0.083c-0.06-0.055-0.089-0.126-0.089-0.213
			c0-0.083,0.029-0.152,0.089-0.207c0.06-0.055,0.159-0.083,0.297-0.083H471.99z M482.641,214.886v5.391h2.275
			c0.142,0,0.243,0.027,0.303,0.079c0.061,0.053,0.09,0.123,0.09,0.211c0,0.082-0.029,0.151-0.09,0.206
			c-0.06,0.056-0.161,0.083-0.303,0.083h-5.129c-0.139,0-0.237-0.027-0.297-0.083c-0.061-0.055-0.091-0.124-0.091-0.206
			c0-0.088,0.03-0.158,0.091-0.211c0.06-0.052,0.158-0.079,0.297-0.079h2.274v-4.805h-1.688c-0.139,0-0.238-0.028-0.3-0.083
			c-0.063-0.055-0.094-0.124-0.094-0.206c0-0.088,0.029-0.159,0.09-0.214c0.06-0.055,0.16-0.083,0.304-0.083H482.641z
			 M482.62,213.411h-0.855v-1.496h0.855V213.411z M489.617,214.886h3.143c0.138,0,0.237,0.028,0.297,0.083
			c0.061,0.055,0.089,0.126,0.089,0.214c0,0.082-0.028,0.151-0.089,0.206c-0.06,0.055-0.159,0.083-0.297,0.083h-3.143v3.854
			c0,0.335,0.134,0.616,0.402,0.841c0.27,0.225,0.663,0.338,1.183,0.338c0.391,0,0.813-0.059,1.269-0.176
			c0.455-0.117,0.81-0.25,1.063-0.397c0.091-0.059,0.167-0.089,0.227-0.089c0.074,0,0.138,0.028,0.193,0.086
			c0.055,0.057,0.083,0.125,0.083,0.203c0,0.069-0.03,0.134-0.09,0.193c-0.147,0.152-0.505,0.316-1.072,0.493
			c-0.568,0.177-1.111,0.266-1.63,0.266c-0.676,0-1.214-0.159-1.614-0.476c-0.399-0.317-0.599-0.745-0.599-1.282v-3.854h-1.069
			c-0.138,0-0.237-0.028-0.297-0.083c-0.06-0.055-0.089-0.126-0.089-0.213c0-0.083,0.029-0.152,0.089-0.207
			c0.06-0.055,0.159-0.083,0.297-0.083h1.069v-1.71c0-0.137,0.026-0.236,0.082-0.296c0.055-0.06,0.124-0.09,0.207-0.09
			c0.087,0,0.158,0.03,0.214,0.09c0.055,0.06,0.083,0.159,0.083,0.296V214.886z M499.585,214.886v5.391h2.274
			c0.143,0,0.243,0.027,0.304,0.079c0.06,0.053,0.09,0.123,0.09,0.211c0,0.082-0.03,0.151-0.09,0.206
			c-0.061,0.056-0.161,0.083-0.304,0.083h-5.13c-0.138,0-0.235-0.027-0.296-0.083c-0.06-0.055-0.09-0.124-0.09-0.206
			c0-0.088,0.03-0.158,0.09-0.211c0.061-0.052,0.158-0.079,0.296-0.079h2.275v-4.805h-1.689c-0.138,0-0.237-0.028-0.3-0.083
			c-0.062-0.055-0.093-0.124-0.093-0.206c0-0.088,0.03-0.159,0.09-0.214c0.061-0.055,0.161-0.083,0.303-0.083H499.585z
			 M499.563,213.411h-0.854v-1.496h0.854V213.411z M508.256,220.856h-0.979l-2.379-5.384h-0.593c-0.138,0-0.236-0.028-0.297-0.083
			c-0.059-0.055-0.089-0.126-0.089-0.213c0-0.083,0.03-0.152,0.089-0.207c0.061-0.055,0.159-0.083,0.297-0.083h2.172
			c0.138,0,0.236,0.028,0.296,0.083c0.061,0.055,0.091,0.126,0.091,0.214c0,0.082-0.03,0.151-0.091,0.206
			c-0.06,0.055-0.158,0.083-0.296,0.083h-0.959l2.124,4.805h0.255l2.082-4.805h-0.965c-0.138,0-0.236-0.028-0.297-0.083
			c-0.06-0.055-0.089-0.126-0.089-0.213c0-0.083,0.029-0.152,0.089-0.207c0.061-0.055,0.159-0.083,0.297-0.083h2.179
			c0.143,0,0.242,0.028,0.3,0.083c0.058,0.055,0.086,0.126,0.086,0.214c0,0.082-0.028,0.151-0.086,0.206
			c-0.058,0.055-0.157,0.083-0.3,0.083h-0.587L508.256,220.856z M519.354,218.009h-5.901c0.101,0.749,0.415,1.352,0.94,1.81
			c0.527,0.457,1.179,0.686,1.955,0.686c0.433,0,0.885-0.072,1.358-0.214c0.474-0.143,0.859-0.331,1.158-0.565
			c0.088-0.069,0.164-0.104,0.228-0.104c0.073,0,0.138,0.029,0.193,0.086c0.055,0.058,0.083,0.126,0.083,0.204
			c0,0.078-0.037,0.154-0.111,0.227c-0.22,0.23-0.612,0.445-1.175,0.645c-0.563,0.2-1.142,0.3-1.734,0.3
			c-0.993,0-1.821-0.325-2.484-0.976c-0.665-0.65-0.997-1.437-0.997-2.361c0-0.841,0.312-1.563,0.935-2.165
			c0.622-0.602,1.394-0.903,2.313-0.903c0.945,0,1.725,0.309,2.337,0.927C519.063,216.225,519.364,217.026,519.354,218.009
			 M518.769,217.423c-0.114-0.639-0.417-1.158-0.906-1.558s-1.072-0.6-1.747-0.6c-0.677,0-1.259,0.198-1.745,0.593
			c-0.487,0.395-0.79,0.917-0.91,1.565H518.769z M532.714,214.679c0.979,0,1.778,0.423,2.399,1.269v-1.062h1.357
			c0.138,0,0.237,0.028,0.297,0.083c0.06,0.055,0.089,0.126,0.089,0.214c0,0.082-0.029,0.151-0.089,0.206
			c-0.06,0.055-0.159,0.083-0.297,0.083h-0.779v5.784c0,0.386-0.083,0.731-0.248,1.034c-0.109,0.202-0.294,0.411-0.552,0.627
			c-0.257,0.216-0.492,0.37-0.703,0.462c-0.211,0.092-0.493,0.138-0.848,0.138H531.7c-0.139,0-0.237-0.026-0.296-0.079
			c-0.061-0.053-0.091-0.123-0.091-0.21c0-0.088,0.03-0.159,0.091-0.214c0.059-0.055,0.157-0.083,0.296-0.083l1.662,0.007
			c0.34,0,0.646-0.087,0.92-0.262s0.5-0.43,0.679-0.765c0.101-0.193,0.152-0.439,0.152-0.738v-1.737
			c-0.621,0.85-1.42,1.275-2.399,1.275c-0.796,0-1.482-0.295-2.058-0.885c-0.577-0.591-0.866-1.302-0.866-2.134
			s0.289-1.542,0.866-2.13C531.231,214.973,531.918,214.679,532.714,214.679 M535.113,217.692c0-0.68-0.233-1.255-0.7-1.724
			c-0.466-0.468-1.024-0.703-1.672-0.703c-0.648,0-1.204,0.236-1.668,0.707c-0.465,0.471-0.697,1.044-0.697,1.72
			c0,0.68,0.232,1.256,0.697,1.727c0.464,0.471,1.02,0.706,1.668,0.706c0.647,0,1.206-0.235,1.672-0.706
			C534.88,218.948,535.113,218.373,535.113,217.692 M543.619,220.856v-0.848c-0.79,0.717-1.646,1.076-2.564,1.076
			c-0.565,0-0.996-0.154-1.29-0.462c-0.381-0.405-0.571-0.876-0.571-1.413v-3.737h-0.779c-0.139,0-0.237-0.028-0.296-0.083
			c-0.061-0.055-0.091-0.126-0.091-0.213c0-0.083,0.03-0.152,0.091-0.207c0.059-0.055,0.157-0.083,0.296-0.083h1.357v4.323
			c0,0.376,0.12,0.687,0.359,0.93c0.239,0.244,0.537,0.366,0.896,0.366c0.941,0,1.806-0.432,2.592-1.296v-3.737h-1.068
			c-0.138,0-0.237-0.028-0.297-0.083c-0.061-0.055-0.089-0.126-0.089-0.213c0-0.083,0.028-0.152,0.089-0.207
			c0.06-0.055,0.159-0.083,0.297-0.083h1.647v5.391h0.489c0.139,0,0.237,0.027,0.296,0.079c0.061,0.053,0.091,0.123,0.091,0.211
			c0,0.082-0.03,0.151-0.091,0.206c-0.059,0.056-0.157,0.083-0.296,0.083H543.619z M550.416,214.886v5.391h2.274
			c0.143,0,0.244,0.027,0.304,0.079c0.06,0.053,0.09,0.123,0.09,0.211c0,0.082-0.03,0.151-0.09,0.206
			c-0.06,0.056-0.161,0.083-0.304,0.083h-5.129c-0.138,0-0.236-0.027-0.297-0.083c-0.06-0.055-0.09-0.124-0.09-0.206
			c0-0.088,0.03-0.158,0.09-0.211c0.061-0.052,0.159-0.079,0.297-0.079h2.275v-4.805h-1.689c-0.138,0-0.237-0.028-0.3-0.083
			c-0.062-0.055-0.093-0.124-0.093-0.206c0-0.088,0.029-0.159,0.089-0.214c0.061-0.055,0.161-0.083,0.304-0.083H550.416z
			 M550.395,213.411h-0.854v-1.496h0.854V213.411z M561.418,212.204v8.073h0.771c0.143,0,0.244,0.027,0.304,0.079
			c0.06,0.053,0.09,0.123,0.09,0.211c0,0.082-0.03,0.151-0.09,0.206c-0.06,0.056-0.161,0.083-0.304,0.083h-1.357v-1.151
			c-0.671,0.919-1.524,1.379-2.559,1.379c-0.523,0-1.025-0.139-1.506-0.417c-0.48-0.278-0.859-0.675-1.138-1.19
			c-0.278-0.514-0.417-1.045-0.417-1.592c0-0.552,0.139-1.084,0.417-1.596c0.278-0.512,0.657-0.909,1.138-1.189
			c0.48-0.281,0.984-0.421,1.514-0.421c1.011,0,1.86,0.46,2.551,1.379v-3.268h-0.772c-0.143,0-0.244-0.027-0.304-0.082
			c-0.059-0.056-0.089-0.127-0.089-0.214c0-0.083,0.03-0.152,0.089-0.207c0.06-0.055,0.161-0.083,0.304-0.083H561.418z
			 M560.832,217.885c0-0.735-0.248-1.356-0.745-1.861c-0.496-0.506-1.087-0.759-1.772-0.759c-0.688,0-1.281,0.253-1.777,0.759
			c-0.497,0.505-0.745,1.126-0.745,1.861c0,0.731,0.248,1.35,0.745,1.858c0.496,0.508,1.089,0.762,1.777,0.762
			c0.686,0,1.276-0.254,1.772-0.762C560.584,219.235,560.832,218.616,560.832,217.885 M570.186,218.009h-5.9
			c0.101,0.749,0.414,1.352,0.94,1.81c0.526,0.457,1.179,0.686,1.954,0.686c0.433,0,0.885-0.072,1.358-0.214
			c0.474-0.143,0.859-0.331,1.159-0.565c0.087-0.069,0.162-0.104,0.227-0.104c0.074,0,0.138,0.029,0.193,0.086
			c0.055,0.058,0.083,0.126,0.083,0.204c0,0.078-0.037,0.154-0.11,0.227c-0.221,0.23-0.613,0.445-1.176,0.645
			c-0.563,0.2-1.142,0.3-1.734,0.3c-0.992,0-1.821-0.325-2.484-0.976c-0.664-0.65-0.996-1.437-0.996-2.361
			c0-0.841,0.311-1.563,0.934-2.165c0.623-0.602,1.395-0.903,2.313-0.903c0.946,0,1.726,0.309,2.337,0.927
			C569.894,216.225,570.195,217.026,570.186,218.009 M569.6,217.423c-0.115-0.639-0.417-1.158-0.906-1.558s-1.071-0.6-1.747-0.6
			c-0.677,0-1.258,0.198-1.744,0.593c-0.488,0.395-0.791,0.917-0.91,1.565H569.6z M582.807,214.886h3.145
			c0.138,0,0.236,0.028,0.297,0.083c0.059,0.055,0.089,0.126,0.089,0.214c0,0.082-0.03,0.151-0.089,0.206
			c-0.061,0.055-0.159,0.083-0.297,0.083h-3.145v3.854c0,0.335,0.135,0.616,0.404,0.841c0.268,0.225,0.662,0.338,1.182,0.338
			c0.392,0,0.813-0.059,1.27-0.176c0.455-0.117,0.808-0.25,1.061-0.397c0.092-0.059,0.168-0.089,0.229-0.089
			c0.072,0,0.138,0.028,0.192,0.086c0.056,0.057,0.083,0.125,0.083,0.203c0,0.069-0.029,0.134-0.09,0.193
			c-0.146,0.152-0.505,0.316-1.072,0.493c-0.567,0.177-1.11,0.266-1.631,0.266c-0.675,0-1.213-0.159-1.612-0.476
			c-0.4-0.317-0.601-0.745-0.601-1.282v-3.854h-1.068c-0.138,0-0.236-0.028-0.297-0.083c-0.06-0.055-0.09-0.126-0.09-0.213
			c0-0.083,0.03-0.152,0.09-0.207c0.061-0.055,0.159-0.083,0.297-0.083h1.068v-1.71c0-0.137,0.028-0.236,0.083-0.296
			s0.124-0.09,0.207-0.09c0.087,0,0.158,0.03,0.213,0.09c0.057,0.06,0.083,0.159,0.083,0.296V214.886z M595.705,217.885
			c0,0.882-0.316,1.636-0.948,2.261s-1.394,0.938-2.285,0.938c-0.9,0-1.666-0.314-2.296-0.941c-0.63-0.628-0.945-1.38-0.945-2.258
			c0-0.883,0.315-1.637,0.945-2.265c0.63-0.627,1.396-0.941,2.296-0.941c0.892,0,1.653,0.313,2.285,0.938
			S595.705,216.999,595.705,217.885 M595.119,217.885c0-0.726-0.258-1.344-0.775-1.855c-0.517-0.51-1.144-0.765-1.879-0.765
			c-0.736,0-1.362,0.257-1.879,0.769c-0.518,0.512-0.775,1.129-0.775,1.851c0,0.717,0.258,1.333,0.775,1.847
			c0.517,0.515,1.143,0.773,1.879,0.773c0.735,0,1.362-0.257,1.879-0.769C594.861,219.223,595.119,218.606,595.119,217.885
			 M609.374,214.679c0.8,0,1.45,0.196,1.951,0.586c0-0.133,0.027-0.23,0.083-0.289c0.055-0.06,0.124-0.09,0.207-0.09
			c0.087,0,0.157,0.03,0.214,0.09c0.055,0.059,0.082,0.161,0.082,0.303v0.993c0,0.138-0.027,0.237-0.082,0.296
			c-0.057,0.06-0.127,0.09-0.214,0.09c-0.078,0-0.145-0.025-0.197-0.076c-0.053-0.051-0.084-0.133-0.093-0.248
			c-0.027-0.276-0.17-0.503-0.428-0.683c-0.377-0.257-0.876-0.386-1.495-0.386c-0.648,0-1.152,0.131-1.511,0.393
			c-0.271,0.198-0.407,0.418-0.407,0.662c0,0.276,0.161,0.506,0.483,0.689c0.22,0.129,0.639,0.228,1.255,0.297
			c0.805,0.087,1.362,0.186,1.675,0.296c0.446,0.161,0.778,0.384,0.996,0.669c0.218,0.285,0.328,0.593,0.328,0.924
			c0,0.492-0.237,0.929-0.711,1.313c-0.473,0.384-1.167,0.576-2.082,0.576c-0.914,0-1.664-0.232-2.247-0.697
			c0,0.157-0.009,0.258-0.027,0.304s-0.052,0.085-0.101,0.117c-0.048,0.032-0.102,0.048-0.162,0.048c-0.082,0-0.15-0.03-0.207-0.089
			c-0.055-0.06-0.082-0.159-0.082-0.297v-1.193c0-0.137,0.026-0.236,0.079-0.296s0.123-0.09,0.21-0.09
			c0.083,0,0.153,0.029,0.211,0.087c0.058,0.057,0.086,0.134,0.086,0.231c0,0.211,0.053,0.388,0.158,0.53
			c0.161,0.221,0.417,0.404,0.77,0.548c0.352,0.145,0.782,0.218,1.293,0.218c0.753,0,1.313-0.141,1.682-0.421
			c0.368-0.28,0.551-0.577,0.551-0.889c0-0.359-0.186-0.646-0.558-0.862c-0.377-0.216-0.925-0.361-1.645-0.434
			c-0.72-0.074-1.235-0.17-1.548-0.29c-0.313-0.119-0.556-0.299-0.73-0.538s-0.263-0.496-0.263-0.772
			c0-0.496,0.244-0.89,0.731-1.182S608.699,214.679,609.374,214.679 M621.017,218.009h-5.9c0.101,0.749,0.415,1.352,0.94,1.81
			c0.526,0.457,1.178,0.686,1.955,0.686c0.432,0,0.884-0.072,1.358-0.214c0.473-0.143,0.858-0.331,1.157-0.565
			c0.088-0.069,0.163-0.104,0.228-0.104c0.074,0,0.138,0.029,0.194,0.086c0.055,0.058,0.082,0.126,0.082,0.204
			c0,0.078-0.037,0.154-0.11,0.227c-0.221,0.23-0.613,0.445-1.176,0.645c-0.563,0.2-1.142,0.3-1.733,0.3
			c-0.993,0-1.822-0.325-2.486-0.976c-0.664-0.65-0.995-1.437-0.995-2.361c0-0.841,0.311-1.563,0.934-2.165
			c0.623-0.602,1.394-0.903,2.313-0.903c0.946,0,1.726,0.309,2.337,0.927C620.726,216.225,621.027,217.026,621.017,218.009
			 M620.431,217.423c-0.114-0.639-0.417-1.158-0.906-1.558s-1.071-0.6-1.747-0.6s-1.258,0.198-1.744,0.593
			c-0.487,0.395-0.791,0.917-0.91,1.565H620.431z M626.648,212.204v8.073h2.275c0.142,0,0.244,0.027,0.303,0.079
			c0.061,0.053,0.09,0.123,0.09,0.211c0,0.082-0.029,0.151-0.09,0.206c-0.059,0.056-0.161,0.083-0.303,0.083h-5.129
			c-0.138,0-0.237-0.027-0.297-0.083c-0.061-0.055-0.089-0.124-0.089-0.206c0-0.088,0.028-0.158,0.089-0.211
			c0.06-0.052,0.159-0.079,0.297-0.079h2.275v-7.487h-1.67c-0.138,0-0.237-0.027-0.3-0.082c-0.062-0.056-0.093-0.127-0.093-0.214
			c0-0.083,0.03-0.152,0.09-0.207c0.061-0.055,0.161-0.083,0.303-0.083H626.648z M635.121,212.204v8.073h2.274
			c0.143,0,0.243,0.027,0.304,0.079c0.06,0.053,0.09,0.123,0.09,0.211c0,0.082-0.03,0.151-0.09,0.206
			c-0.061,0.056-0.161,0.083-0.304,0.083h-5.13c-0.137,0-0.235-0.027-0.296-0.083c-0.06-0.055-0.09-0.124-0.09-0.206
			c0-0.088,0.03-0.158,0.09-0.211c0.061-0.052,0.159-0.079,0.296-0.079h2.276v-7.487h-1.669c-0.139,0-0.238-0.027-0.3-0.082
			c-0.063-0.056-0.094-0.127-0.094-0.214c0-0.083,0.03-0.152,0.091-0.207c0.06-0.055,0.16-0.083,0.303-0.083H635.121z
			 M643.605,214.886v5.391h2.276c0.142,0,0.243,0.027,0.303,0.079c0.061,0.053,0.09,0.123,0.09,0.211
			c0,0.082-0.029,0.151-0.09,0.206c-0.06,0.056-0.161,0.083-0.303,0.083h-5.13c-0.138,0-0.237-0.027-0.296-0.083
			c-0.061-0.055-0.09-0.124-0.09-0.206c0-0.088,0.029-0.158,0.09-0.211c0.059-0.052,0.158-0.079,0.296-0.079h2.275v-4.805h-1.689
			c-0.138,0-0.238-0.028-0.3-0.083c-0.063-0.055-0.093-0.124-0.093-0.206c0-0.088,0.029-0.159,0.09-0.214
			c0.06-0.055,0.161-0.083,0.303-0.083H643.605z M643.586,213.411h-0.855v-1.496h0.855V213.411z M649.899,214.886v0.876
			c0.404-0.409,0.771-0.692,1.097-0.848c0.326-0.157,0.693-0.235,1.103-0.235c0.441,0,0.843,0.095,1.206,0.283
			c0.258,0.138,0.491,0.366,0.7,0.686c0.209,0.319,0.313,0.647,0.313,0.982v3.647h0.489c0.139,0,0.237,0.027,0.297,0.079
			c0.061,0.053,0.091,0.123,0.091,0.211c0,0.082-0.03,0.151-0.091,0.206c-0.06,0.056-0.158,0.083-0.297,0.083h-1.551
			c-0.142,0-0.243-0.027-0.303-0.083c-0.061-0.055-0.09-0.124-0.09-0.206c0-0.088,0.029-0.158,0.09-0.211
			c0.06-0.052,0.161-0.079,0.303-0.079h0.483v-3.55c0-0.409-0.15-0.755-0.448-1.038c-0.299-0.282-0.699-0.424-1.2-0.424
			c-0.381,0-0.712,0.077-0.993,0.231c-0.28,0.154-0.68,0.537-1.199,1.147v3.633h0.655c0.139,0,0.236,0.027,0.296,0.079
			c0.061,0.053,0.09,0.123,0.09,0.211c0,0.082-0.029,0.151-0.09,0.206c-0.06,0.056-0.157,0.083-0.296,0.083h-1.889
			c-0.139,0-0.237-0.027-0.297-0.083c-0.061-0.055-0.089-0.124-0.089-0.206c0-0.088,0.028-0.158,0.089-0.211
			c0.06-0.052,0.158-0.079,0.297-0.079h0.655v-4.805h-0.49c-0.138,0-0.237-0.028-0.296-0.083c-0.061-0.055-0.09-0.126-0.09-0.213
			c0-0.083,0.029-0.152,0.09-0.207c0.059-0.055,0.158-0.083,0.296-0.083H649.899z M659.792,214.679c0.979,0,1.779,0.423,2.398,1.269
			v-1.062h1.358c0.138,0,0.237,0.028,0.297,0.083c0.06,0.055,0.089,0.126,0.089,0.214c0,0.082-0.029,0.151-0.089,0.206
			c-0.06,0.055-0.159,0.083-0.297,0.083h-0.779v5.784c0,0.386-0.083,0.731-0.248,1.034c-0.109,0.202-0.294,0.411-0.552,0.627
			c-0.257,0.216-0.491,0.37-0.703,0.462c-0.211,0.092-0.494,0.138-0.848,0.138h-1.642c-0.138,0-0.235-0.026-0.296-0.079
			c-0.06-0.053-0.09-0.123-0.09-0.21c0-0.088,0.03-0.159,0.09-0.214c0.061-0.055,0.158-0.083,0.296-0.083l1.662,0.007
			c0.341,0,0.647-0.087,0.92-0.262c0.274-0.175,0.5-0.43,0.68-0.765c0.101-0.193,0.151-0.439,0.151-0.738v-1.737
			c-0.619,0.85-1.42,1.275-2.398,1.275c-0.795,0-1.481-0.295-2.059-0.885c-0.576-0.591-0.864-1.302-0.864-2.134
			s0.288-1.542,0.864-2.13C658.311,214.973,658.997,214.679,659.792,214.679 M662.19,217.692c0-0.68-0.232-1.255-0.699-1.724
			c-0.467-0.468-1.024-0.703-1.673-0.703c-0.647,0-1.203,0.236-1.668,0.707c-0.464,0.471-0.695,1.044-0.695,1.72
			c0,0.68,0.231,1.256,0.695,1.727c0.465,0.471,1.021,0.706,1.668,0.706c0.648,0,1.206-0.235,1.673-0.706
			C661.958,218.948,662.19,218.373,662.19,217.692 M680.424,217.885c0,0.882-0.316,1.636-0.948,2.261s-1.394,0.938-2.285,0.938
			c-0.9,0-1.667-0.314-2.296-0.941c-0.63-0.628-0.944-1.38-0.944-2.258c0-0.883,0.314-1.637,0.944-2.265
			c0.629-0.627,1.396-0.941,2.296-0.941c0.892,0,1.653,0.313,2.285,0.938S680.424,216.999,680.424,217.885 M679.838,217.885
			c0-0.726-0.259-1.344-0.776-1.855c-0.517-0.51-1.143-0.765-1.878-0.765s-1.361,0.257-1.879,0.769
			c-0.517,0.512-0.775,1.129-0.775,1.851c0,0.717,0.259,1.333,0.775,1.847c0.518,0.515,1.144,0.773,1.879,0.773
			s1.361-0.257,1.878-0.769C679.579,219.223,679.838,218.606,679.838,217.885 M683.787,214.886v0.876
			c0.404-0.409,0.77-0.692,1.096-0.848c0.327-0.157,0.694-0.235,1.104-0.235c0.441,0,0.844,0.095,1.207,0.283
			c0.257,0.138,0.49,0.366,0.699,0.686c0.209,0.319,0.313,0.647,0.313,0.982v3.647h0.49c0.138,0,0.236,0.027,0.296,0.079
			c0.06,0.053,0.09,0.123,0.09,0.211c0,0.082-0.03,0.151-0.09,0.206c-0.06,0.056-0.158,0.083-0.296,0.083h-1.552
			c-0.143,0-0.244-0.027-0.304-0.083c-0.059-0.055-0.089-0.124-0.089-0.206c0-0.088,0.03-0.158,0.089-0.211
			c0.06-0.052,0.161-0.079,0.304-0.079h0.482v-3.55c0-0.409-0.149-0.755-0.448-1.038c-0.299-0.282-0.698-0.424-1.199-0.424
			c-0.382,0-0.713,0.077-0.993,0.231c-0.28,0.154-0.68,0.537-1.199,1.147v3.633h0.654c0.139,0,0.237,0.027,0.298,0.079
			c0.059,0.053,0.089,0.123,0.089,0.211c0,0.082-0.03,0.151-0.089,0.206c-0.061,0.056-0.159,0.083-0.298,0.083h-1.889
			c-0.138,0-0.237-0.027-0.296-0.083c-0.06-0.055-0.09-0.124-0.09-0.206c0-0.088,0.03-0.158,0.09-0.211
			c0.059-0.052,0.158-0.079,0.296-0.079h0.655v-4.805h-0.489c-0.138,0-0.237-0.028-0.297-0.083c-0.061-0.055-0.09-0.126-0.09-0.213
			c0-0.083,0.029-0.152,0.09-0.207c0.06-0.055,0.159-0.083,0.297-0.083H683.787z M694.424,212.204v8.073h2.275
			c0.142,0,0.244,0.027,0.303,0.079c0.06,0.053,0.09,0.123,0.09,0.211c0,0.082-0.03,0.151-0.09,0.206
			c-0.059,0.056-0.161,0.083-0.303,0.083h-5.129c-0.139,0-0.237-0.027-0.298-0.083c-0.06-0.055-0.089-0.124-0.089-0.206
			c0-0.088,0.029-0.158,0.089-0.211c0.061-0.052,0.159-0.079,0.298-0.079h2.274v-7.487h-1.669c-0.138,0-0.238-0.027-0.3-0.082
			c-0.063-0.056-0.093-0.127-0.093-0.214c0-0.083,0.029-0.152,0.09-0.207c0.06-0.055,0.161-0.083,0.303-0.083H694.424z
			 M702.91,214.886v5.391h2.274c0.143,0,0.243,0.027,0.304,0.079c0.06,0.053,0.09,0.123,0.09,0.211c0,0.082-0.03,0.151-0.09,0.206
			c-0.061,0.056-0.161,0.083-0.304,0.083h-5.13c-0.138,0-0.236-0.027-0.296-0.083c-0.06-0.055-0.09-0.124-0.09-0.206
			c0-0.088,0.03-0.158,0.09-0.211c0.06-0.052,0.158-0.079,0.296-0.079h2.275v-4.805h-1.689c-0.138,0-0.238-0.028-0.3-0.083
			c-0.062-0.055-0.093-0.124-0.093-0.206c0-0.088,0.029-0.159,0.09-0.214c0.06-0.055,0.161-0.083,0.303-0.083H702.91z
			 M702.889,213.411h-0.854v-1.496h0.854V213.411z M709.203,214.886v0.876c0.403-0.409,0.77-0.692,1.096-0.848
			c0.326-0.157,0.694-0.235,1.104-0.235c0.44,0,0.843,0.095,1.206,0.283c0.258,0.138,0.49,0.366,0.699,0.686
			c0.21,0.319,0.314,0.647,0.314,0.982v3.647h0.489c0.139,0,0.236,0.027,0.297,0.079c0.06,0.053,0.09,0.123,0.09,0.211
			c0,0.082-0.03,0.151-0.09,0.206c-0.061,0.056-0.158,0.083-0.297,0.083h-1.552c-0.142,0-0.243-0.027-0.303-0.083
			c-0.06-0.055-0.09-0.124-0.09-0.206c0-0.088,0.03-0.158,0.09-0.211c0.06-0.052,0.161-0.079,0.303-0.079h0.483v-3.55
			c0-0.409-0.149-0.755-0.448-1.038c-0.299-0.282-0.699-0.424-1.2-0.424c-0.381,0-0.712,0.077-0.992,0.231
			c-0.28,0.154-0.681,0.537-1.199,1.147v3.633h0.654c0.139,0,0.236,0.027,0.297,0.079c0.06,0.053,0.09,0.123,0.09,0.211
			c0,0.082-0.03,0.151-0.09,0.206c-0.061,0.056-0.158,0.083-0.297,0.083h-1.889c-0.138,0-0.237-0.027-0.297-0.083
			c-0.061-0.055-0.089-0.124-0.089-0.206c0-0.088,0.028-0.158,0.089-0.211c0.06-0.052,0.159-0.079,0.297-0.079h0.655v-4.805h-0.49
			c-0.138,0-0.237-0.028-0.296-0.083c-0.061-0.055-0.09-0.126-0.09-0.213c0-0.083,0.029-0.152,0.09-0.207
			c0.059-0.055,0.158-0.083,0.296-0.083H709.203z M722.68,218.009h-5.902c0.102,0.749,0.416,1.352,0.941,1.81
			c0.527,0.457,1.178,0.686,1.955,0.686c0.432,0,0.885-0.072,1.358-0.214c0.474-0.143,0.859-0.331,1.157-0.565
			c0.088-0.069,0.164-0.104,0.229-0.104c0.073,0,0.138,0.029,0.193,0.086c0.055,0.058,0.082,0.126,0.082,0.204
			c0,0.078-0.036,0.154-0.109,0.227c-0.221,0.23-0.613,0.445-1.176,0.645c-0.563,0.2-1.142,0.3-1.734,0.3
			c-0.993,0-1.821-0.325-2.485-0.976c-0.665-0.65-0.997-1.437-0.997-2.361c0-0.841,0.313-1.563,0.936-2.165
			c0.622-0.602,1.393-0.903,2.313-0.903c0.946,0,1.727,0.309,2.338,0.927C722.388,216.225,722.688,217.026,722.68,218.009
			 M722.094,217.423c-0.115-0.639-0.417-1.158-0.907-1.558c-0.488-0.4-1.071-0.6-1.747-0.6s-1.257,0.198-1.744,0.593
			s-0.79,0.917-0.91,1.565H722.094z"/>
		<rect x="426.579" y="182.845" clip-path="url(#SVGID_6_)" fill="#231F20" width="304.06" height="21.598"/>
		<g clip-path="url(#SVGID_6_)">
			<path fill="#FFFFFF" d="M430.873,190.105c0.47-0.099,1.213-0.173,1.968-0.173c1.077,0,1.77,0.186,2.289,0.606
				c0.433,0.322,0.693,0.817,0.693,1.473c0,0.805-0.532,1.51-1.411,1.832v0.025c0.792,0.198,1.72,0.854,1.72,2.091
				c0,0.718-0.285,1.262-0.705,1.67c-0.582,0.532-1.522,0.78-2.883,0.78c-0.743,0-1.312-0.049-1.671-0.099V190.105z M431.95,193.521
				h0.978c1.139,0,1.807-0.594,1.807-1.398c0-0.978-0.742-1.361-1.832-1.361c-0.495,0-0.779,0.037-0.953,0.074V193.521z
				 M431.95,197.518c0.21,0.037,0.52,0.05,0.903,0.05c1.114,0,2.141-0.409,2.141-1.621c0-1.139-0.978-1.609-2.153-1.609h-0.891
				V197.518z"/>
			<path fill="#FFFFFF" d="M438.41,189.994v4.938c0,1.869,0.829,2.661,1.943,2.661c1.237,0,2.029-0.816,2.029-2.661v-4.938h1.089
				v4.863c0,2.562-1.349,3.614-3.156,3.614c-1.708,0-2.995-0.978-2.995-3.564v-4.913H438.41z"/>
		</g>
		<g clip-path="url(#SVGID_6_)">
			<path fill="#FFFFFF" d="M449.722,189.994v8.341h-1.077v-8.341H449.722z"/>
		</g>
		<g clip-path="url(#SVGID_6_)">
			<path fill="#FFFFFF" d="M452.482,189.994h1.077v7.438h3.564v0.903h-4.641V189.994z"/>
		</g>
		<g clip-path="url(#SVGID_6_)">
			<path fill="#FFFFFF" d="M459.686,190.105c0.656-0.099,1.436-0.173,2.29-0.173c1.547,0,2.648,0.359,3.378,1.039
				c0.742,0.681,1.175,1.646,1.175,2.995c0,1.361-0.42,2.475-1.2,3.242c-0.78,0.779-2.067,1.2-3.688,1.2
				c-0.767,0-1.411-0.037-1.955-0.099V190.105z M460.762,197.481c0.272,0.05,0.668,0.062,1.089,0.062
				c2.302,0,3.552-1.287,3.552-3.539c0.012-1.968-1.102-3.218-3.378-3.218c-0.557,0-0.978,0.05-1.262,0.111V197.481z"/>
		</g>
		<g clip-path="url(#SVGID_6_)">
			<path fill="#FFFFFF" d="M473.695,195.711l-0.866,2.624h-1.114l2.833-8.341h1.3l2.846,8.341h-1.15l-0.892-2.624H473.695z
				 M476.43,194.87l-0.816-2.401c-0.186-0.544-0.31-1.04-0.434-1.522h-0.024c-0.124,0.495-0.26,1.002-0.421,1.51l-0.816,2.413
				H476.43z"/>
		</g>
		<g clip-path="url(#SVGID_6_)">
			<path fill="#FFFFFF" d="M481.715,198.335v-8.341h1.176l2.673,4.22c0.619,0.978,1.102,1.856,1.497,2.71l0.025-0.013
				c-0.1-1.113-0.124-2.128-0.124-3.428v-3.49h1.015v8.341h-1.089l-2.648-4.232c-0.581-0.928-1.139-1.881-1.56-2.784l-0.037,0.012
				c0.063,1.052,0.087,2.055,0.087,3.44v3.564H481.715z"/>
		</g>
		<g clip-path="url(#SVGID_6_)">
			<path fill="#FFFFFF" d="M491.232,190.105c0.656-0.099,1.436-0.173,2.289-0.173c1.547,0,2.648,0.359,3.379,1.039
				c0.742,0.681,1.176,1.646,1.176,2.995c0,1.361-0.421,2.475-1.201,3.242c-0.779,0.779-2.066,1.2-3.688,1.2
				c-0.767,0-1.41-0.037-1.955-0.099V190.105z M492.31,197.481c0.271,0.05,0.668,0.062,1.089,0.062c2.302,0,3.551-1.287,3.551-3.539
				c0.013-1.968-1.101-3.218-3.378-3.218c-0.557,0-0.978,0.05-1.262,0.111V197.481z"/>
		</g>
		<g clip-path="url(#SVGID_6_)">
			<path fill="#FFFFFF" d="M503.894,189.994h1.077v7.438h3.563v0.903h-4.641V189.994z"/>
		</g>
		<g clip-path="url(#SVGID_6_)">
			<path fill="#FFFFFF" d="M512.816,195.711l-0.866,2.624h-1.113l2.834-8.341h1.299l2.847,8.341h-1.151l-0.891-2.624H512.816z
				 M515.552,194.87l-0.817-2.401c-0.186-0.544-0.309-1.04-0.433-1.522h-0.024c-0.124,0.495-0.261,1.002-0.421,1.51l-0.817,2.413
				H515.552z"/>
		</g>
		<g clip-path="url(#SVGID_6_)">
			<path fill="#FFFFFF" d="M521.567,189.994v4.938c0,1.869,0.829,2.661,1.942,2.661c1.237,0,2.029-0.816,2.029-2.661v-4.938h1.089
				v4.863c0,2.562-1.349,3.614-3.155,3.614c-1.708,0-2.995-0.978-2.995-3.564v-4.913H521.567z"/>
		</g>
		<g clip-path="url(#SVGID_6_)">
			<path fill="#FFFFFF" d="M529.624,198.335v-8.341h1.176l2.673,4.22c0.619,0.978,1.102,1.856,1.497,2.71l0.025-0.013
				c-0.1-1.113-0.124-2.128-0.124-3.428v-3.49h1.015v8.341h-1.089l-2.648-4.232c-0.581-0.928-1.139-1.881-1.56-2.784l-0.037,0.012
				c0.063,1.052,0.087,2.055,0.087,3.44v3.564H529.624z"/>
		</g>
		<g clip-path="url(#SVGID_6_)">
			<path fill="#FFFFFF" d="M544.909,198.063c-0.396,0.198-1.188,0.396-2.203,0.396c-2.352,0-4.121-1.485-4.121-4.22
				c0-2.611,1.77-4.38,4.356-4.38c1.039,0,1.695,0.223,1.979,0.371l-0.26,0.878c-0.408-0.198-0.99-0.346-1.683-0.346
				c-1.955,0-3.255,1.25-3.255,3.44c0,2.042,1.176,3.354,3.205,3.354c0.656,0,1.324-0.136,1.757-0.346L544.909,198.063z"/>
		</g>
		<g clip-path="url(#SVGID_6_)">
			<path fill="#FFFFFF" d="M548.857,189.994v3.49h4.034v-3.49h1.089v8.341h-1.089v-3.911h-4.034v3.911h-1.077v-8.341H548.857z"/>
		</g>
		<g clip-path="url(#SVGID_6_)">
			<path fill="#FFFFFF" d="M561.518,195.711l-0.866,2.624h-1.113l2.834-8.341h1.299l2.847,8.341h-1.151l-0.891-2.624H561.518z
				 M564.253,194.87l-0.817-2.401c-0.186-0.544-0.309-1.04-0.433-1.522h-0.024c-0.124,0.495-0.261,1.002-0.421,1.51l-0.817,2.413
				H564.253z"/>
		</g>
		<g clip-path="url(#SVGID_6_)">
			<path fill="#FFFFFF" d="M569.538,198.335v-8.341h1.176l2.673,4.22c0.619,0.978,1.102,1.856,1.497,2.71l0.025-0.013
				c-0.1-1.113-0.124-2.128-0.124-3.428v-3.49h1.015v8.341h-1.089l-2.648-4.232c-0.581-0.928-1.139-1.881-1.56-2.784l-0.037,0.012
				c0.063,1.052,0.087,2.055,0.087,3.44v3.564H569.538z"/>
		</g>
		<g clip-path="url(#SVGID_6_)">
			<path fill="#FFFFFF" d="M586.63,194.424h-3.242v3.007h3.613v0.903h-4.69v-8.341h4.505v0.903h-3.428v2.636h3.242V194.424z"/>
		</g>
		<g clip-path="url(#SVGID_6_)">
			<path fill="#FFFFFF" d="M592.843,194.585v0.804h-3.057v-0.804H592.843z"/>
		</g>
		<g clip-path="url(#SVGID_6_)">
			<path fill="#FFFFFF" d="M601.32,198.063c-0.396,0.198-1.188,0.396-2.203,0.396c-2.352,0-4.121-1.485-4.121-4.22
				c0-2.611,1.77-4.38,4.356-4.38c1.039,0,1.695,0.223,1.979,0.371l-0.26,0.878c-0.408-0.198-0.99-0.346-1.683-0.346
				c-1.955,0-3.255,1.25-3.255,3.44c0,2.042,1.176,3.354,3.205,3.354c0.656,0,1.324-0.136,1.757-0.346L601.32,198.063z"/>
		</g>
		<g clip-path="url(#SVGID_6_)">
			<path fill="#FFFFFF" d="M611.061,194.078c0,2.871-1.745,4.393-3.873,4.393c-2.203,0-3.75-1.708-3.75-4.232
				c0-2.648,1.646-4.38,3.873-4.38C609.588,189.858,611.061,191.603,611.061,194.078z M604.589,194.214
				c0,1.782,0.965,3.378,2.66,3.378c1.708,0,2.673-1.571,2.673-3.465c0-1.658-0.866-3.391-2.66-3.391
				C605.479,190.737,604.589,192.383,604.589,194.214z"/>
		</g>
		<g clip-path="url(#SVGID_6_)">
			<path fill="#FFFFFF" d="M621.147,194.672c-0.063-1.163-0.137-2.562-0.124-3.601h-0.037c-0.285,0.978-0.631,2.017-1.052,3.168
				l-1.473,4.047h-0.816l-1.35-3.973c-0.396-1.175-0.729-2.252-0.965-3.242h-0.024c-0.025,1.04-0.087,2.438-0.161,3.688
				l-0.223,3.576h-1.027l0.582-8.341h1.373l1.423,4.034c0.347,1.027,0.632,1.943,0.842,2.809h0.037
				c0.211-0.841,0.508-1.757,0.879-2.809l1.484-4.034h1.374l0.52,8.341h-1.052L621.147,194.672z"/>
		</g>
		<g clip-path="url(#SVGID_6_)">
			<path fill="#FFFFFF" d="M631.643,194.672c-0.063-1.163-0.137-2.562-0.124-3.601h-0.037c-0.284,0.978-0.631,2.017-1.052,3.168
				l-1.473,4.047h-0.816l-1.35-3.973c-0.396-1.175-0.729-2.252-0.965-3.242h-0.024c-0.025,1.04-0.087,2.438-0.161,3.688
				l-0.223,3.576h-1.027l0.582-8.341h1.373l1.423,4.034c0.347,1.027,0.632,1.943,0.842,2.809h0.037
				c0.211-0.841,0.508-1.757,0.879-2.809l1.484-4.034h1.374l0.52,8.341h-1.052L631.643,194.672z"/>
		</g>
		<g clip-path="url(#SVGID_6_)">
			<path fill="#FFFFFF" d="M639.415,194.424h-3.242v3.007h3.613v0.903h-4.69v-8.341h4.505v0.903h-3.428v2.636h3.242V194.424z"/>
		</g>
		<g clip-path="url(#SVGID_6_)">
			<path fill="#FFFFFF" d="M643.178,190.105c0.545-0.111,1.324-0.173,2.066-0.173c1.151,0,1.894,0.21,2.413,0.68
				c0.421,0.372,0.656,0.941,0.656,1.584c0,1.102-0.693,1.832-1.571,2.129v0.037c0.643,0.223,1.026,0.816,1.225,1.683
				c0.272,1.164,0.471,1.968,0.644,2.29h-1.113c-0.137-0.235-0.322-0.953-0.558-1.992c-0.247-1.151-0.692-1.584-1.67-1.621h-1.015
				v3.613h-1.077V190.105z M644.255,193.905h1.101c1.151,0,1.881-0.631,1.881-1.584c0-1.077-0.779-1.547-1.918-1.559
				c-0.52,0-0.891,0.049-1.063,0.099V193.905z"/>
			<path fill="#FFFFFF" d="M655.244,198.063c-0.396,0.198-1.188,0.396-2.203,0.396c-2.352,0-4.121-1.485-4.121-4.22
				c0-2.611,1.77-4.38,4.356-4.38c1.039,0,1.695,0.223,1.979,0.371l-0.26,0.878c-0.408-0.198-0.99-0.346-1.683-0.346
				c-1.955,0-3.255,1.25-3.255,3.44c0,2.042,1.176,3.354,3.205,3.354c0.656,0,1.324-0.136,1.757-0.346L655.244,198.063z"/>
		</g>
		<g clip-path="url(#SVGID_6_)">
			<path fill="#FFFFFF" d="M664.713,194.424h-3.242v3.007h3.613v0.903h-4.69v-8.341h4.505v0.903h-3.428v2.636h3.242V194.424z"/>
		</g>
		<g clip-path="url(#SVGID_6_)">
			<path fill="#FFFFFF" d="M673.029,198.335l-2.116-8.341h1.139l0.99,4.22c0.247,1.039,0.47,2.079,0.618,2.883h0.025
				c0.136-0.829,0.396-1.819,0.681-2.896l1.113-4.208h1.126l1.015,4.232c0.235,0.99,0.458,1.98,0.582,2.858h0.024
				c0.174-0.916,0.408-1.844,0.668-2.883l1.102-4.208h1.102l-2.363,8.341h-1.126l-1.053-4.344c-0.26-1.064-0.433-1.881-0.544-2.722
				h-0.024c-0.149,0.829-0.335,1.646-0.644,2.722l-1.188,4.344H673.029z"/>
		</g>
		<g clip-path="url(#SVGID_6_)">
			<path fill="#FFFFFF" d="M689.44,194.424h-3.242v3.007h3.613v0.903h-4.69v-8.341h4.505v0.903h-3.428v2.636h3.242V194.424z"/>
		</g>
		<g clip-path="url(#SVGID_6_)">
			<path fill="#FFFFFF" d="M693.203,190.105c0.471-0.099,1.213-0.173,1.968-0.173c1.076,0,1.77,0.186,2.289,0.606
				c0.434,0.322,0.693,0.817,0.693,1.473c0,0.805-0.532,1.51-1.411,1.832v0.025c0.792,0.198,1.721,0.854,1.721,2.091
				c0,0.718-0.285,1.262-0.706,1.67c-0.581,0.532-1.521,0.78-2.883,0.78c-0.743,0-1.312-0.049-1.671-0.099V190.105z M694.28,193.521
				h0.978c1.138,0,1.807-0.594,1.807-1.398c0-0.978-0.743-1.361-1.832-1.361c-0.495,0-0.779,0.037-0.952,0.074V193.521z
				 M694.28,197.518c0.21,0.037,0.52,0.05,0.903,0.05c1.113,0,2.141-0.409,2.141-1.621c0-1.139-0.978-1.609-2.153-1.609h-0.891
				V197.518z"/>
		</g>
		<g clip-path="url(#SVGID_6_)">
			<path fill="#FFFFFF" d="M701.681,197.023c0.482,0.297,1.188,0.544,1.931,0.544c1.102,0,1.745-0.582,1.745-1.423
				c0-0.78-0.446-1.225-1.572-1.658c-1.361-0.482-2.202-1.188-2.202-2.364c0-1.299,1.076-2.264,2.697-2.264
				c0.854,0,1.473,0.198,1.844,0.408l-0.297,0.878c-0.272-0.148-0.829-0.396-1.584-0.396c-1.139,0-1.571,0.681-1.571,1.25
				c0,0.78,0.507,1.163,1.658,1.609c1.41,0.544,2.128,1.225,2.128,2.45c0,1.287-0.952,2.4-2.92,2.4
				c-0.805,0-1.684-0.235-2.129-0.532L701.681,197.023z"/>
		</g>
		<g clip-path="url(#SVGID_6_)">
			<path fill="#FFFFFF" d="M710.481,189.994v8.341h-1.077v-8.341H710.481z"/>
		</g>
		<g clip-path="url(#SVGID_6_)">
			<path fill="#FFFFFF" d="M714.614,190.91h-2.537v-0.916h6.176v0.916h-2.55v7.425h-1.089V190.91z"/>
		</g>
		<g clip-path="url(#SVGID_6_)">
			<path fill="#FFFFFF" d="M724.899,194.424h-3.242v3.007h3.613v0.903h-4.69v-8.341h4.505v0.903h-3.428v2.636h3.242V194.424z"/>
		</g>
		<rect x="425.375" y="111.318" clip-path="url(#SVGID_6_)" fill="#231F20" width="136.672" height="35.061"/>
		<rect x="425.375" y="145.692" clip-path="url(#SVGID_6_)" fill="#231F20" width="245.363" height="35.061"/>
		<g clip-path="url(#SVGID_6_)">
			<path fill="#FFFFFF" d="M434.175,118.327c1.444-0.24,3.334-0.447,5.741-0.447c2.957,0,5.122,0.688,6.498,1.925
				c1.272,1.1,2.028,2.785,2.028,4.847c0,2.097-0.619,3.747-1.788,4.951c-1.581,1.685-4.16,2.544-7.082,2.544
				c-0.894,0-1.719-0.035-2.407-0.207v9.282h-2.991V118.327z M437.166,129.5c0.653,0.172,1.479,0.241,2.475,0.241
				c3.61,0,5.81-1.753,5.81-4.95c0-3.06-2.166-4.538-5.466-4.538c-1.307,0-2.304,0.103-2.819,0.241V129.5z"/>
		</g>
		<g clip-path="url(#SVGID_6_)">
			<path fill="#FFFFFF" d="M457.656,133.935l-2.406,7.288h-3.094l7.873-23.171h3.61l7.907,23.171h-3.197l-2.475-7.288H457.656z
				 M465.254,131.597l-2.269-6.669c-0.516-1.512-0.859-2.888-1.203-4.229h-0.069c-0.344,1.375-0.722,2.785-1.169,4.194l-2.269,6.704
				H465.254z"/>
		</g>
		<g clip-path="url(#SVGID_6_)">
			<path fill="#FFFFFF" d="M479.899,118.361c1.513-0.31,3.679-0.481,5.741-0.481c3.197,0,5.26,0.584,6.704,1.891
				c1.169,1.031,1.822,2.612,1.822,4.4c0,3.06-1.926,5.088-4.366,5.913v0.104c1.787,0.619,2.854,2.269,3.403,4.675
				c0.757,3.231,1.307,5.466,1.788,6.36h-3.095c-0.378-0.653-0.894-2.647-1.547-5.535c-0.688-3.197-1.925-4.4-4.641-4.504h-2.819
				v10.039h-2.991V118.361z M482.891,128.916h3.06c3.197,0,5.226-1.753,5.226-4.4c0-2.991-2.166-4.297-5.328-4.332
				c-1.444,0-2.476,0.138-2.957,0.275V128.916z"/>
		</g>
		<g clip-path="url(#SVGID_6_)">
			<path fill="#FFFFFF" d="M507.918,120.596h-7.047v-2.544h17.154v2.544h-7.082v20.627h-3.025V120.596z"/>
		</g>
		<g clip-path="url(#SVGID_6_)">
			<path fill="#FFFFFF" d="M533.702,141.223v-1.856l2.372-2.303c5.707-5.432,8.285-8.319,8.319-11.688
				c0-2.269-1.1-4.366-4.435-4.366c-2.028,0-3.713,1.031-4.744,1.891l-0.963-2.131c1.548-1.306,3.748-2.269,6.326-2.269
				c4.813,0,6.841,3.3,6.841,6.498c0,4.125-2.99,7.46-7.7,11.998l-1.788,1.65v0.068h10.038v2.51H533.702z"/>
		</g>
		<g clip-path="url(#SVGID_6_)">
			<path fill="#FFF200" d="M433.763,171.958c1.341,0.825,3.3,1.513,5.363,1.513c3.06,0,4.848-1.616,4.848-3.954
				c0-2.166-1.238-3.403-4.366-4.606c-3.782-1.341-6.119-3.3-6.119-6.566c0-3.61,2.991-6.291,7.494-6.291
				c2.372,0,4.091,0.55,5.123,1.134l-0.825,2.441c-0.756-0.413-2.303-1.1-4.4-1.1c-3.163,0-4.366,1.891-4.366,3.472
				c0,2.166,1.41,3.231,4.607,4.469c3.919,1.513,5.913,3.403,5.913,6.807c0,3.575-2.647,6.669-8.113,6.669
				c-2.234,0-4.675-0.653-5.913-1.478L433.763,171.958z"/>
		</g>
		<g clip-path="url(#SVGID_6_)">
			<path fill="#FFF200" d="M467.248,164.738h-9.007v8.354h10.039v2.51H455.25v-23.171h12.514v2.51h-9.523v7.322h9.007V164.738z"/>
		</g>
		<g clip-path="url(#SVGID_6_)">
			<path fill="#FFF200" d="M481.824,154.975h-7.047v-2.544h17.154v2.544h-7.082v20.627h-3.025V154.975z"/>
		</g>
		<g clip-path="url(#SVGID_6_)">
			<path fill="#FFF200" d="M508.674,152.431v13.717c0,5.191,2.304,7.392,5.397,7.392c3.438,0,5.638-2.269,5.638-7.392v-13.717h3.025
				v13.511c0,7.116-3.747,10.038-8.767,10.038c-4.744,0-8.319-2.716-8.319-9.901v-13.648H508.674z"/>
		</g>
		<g clip-path="url(#SVGID_6_)">
			<path fill="#FFF200" d="M534.046,152.706c1.444-0.24,3.335-0.447,5.741-0.447c2.957,0,5.123,0.688,6.498,1.925
				c1.271,1.1,2.028,2.785,2.028,4.847c0,2.097-0.619,3.747-1.788,4.951c-1.581,1.685-4.159,2.544-7.082,2.544
				c-0.894,0-1.719-0.035-2.406-0.207v9.282h-2.991V152.706z M537.037,163.878c0.653,0.172,1.479,0.241,2.476,0.241
				c3.609,0,5.81-1.753,5.81-4.95c0-3.06-2.166-4.538-5.466-4.538c-1.307,0-2.304,0.103-2.819,0.241V163.878z"/>
		</g>
		<g clip-path="url(#SVGID_6_)">
			<path fill="#FFF200" d="M565.572,171.958c1.341,0.825,3.301,1.513,5.363,1.513c3.06,0,4.847-1.616,4.847-3.954
				c0-2.166-1.237-3.403-4.365-4.606c-3.782-1.341-6.12-3.3-6.12-6.566c0-3.61,2.991-6.291,7.495-6.291
				c2.372,0,4.091,0.55,5.122,1.134l-0.825,2.441c-0.756-0.413-2.304-1.1-4.4-1.1c-3.163,0-4.366,1.891-4.366,3.472
				c0,2.166,1.41,3.231,4.606,4.469c3.92,1.513,5.913,3.403,5.913,6.807c0,3.575-2.646,6.669-8.113,6.669
				c-2.234,0-4.675-0.653-5.912-1.478L565.572,171.958z"/>
			<path fill="#FFF200" d="M584.996,152.431v9.695h11.207v-9.695h3.025v23.171h-3.025v-10.863h-11.207v10.863h-2.991v-23.171
				H584.996z"/>
		</g>
		<g clip-path="url(#SVGID_6_)">
			<path fill="#FFF200" d="M632.06,163.775c0,7.976-4.847,12.204-10.76,12.204c-6.119,0-10.417-4.744-10.417-11.757
				c0-7.357,4.572-12.17,10.761-12.17C627.969,152.053,632.06,156.9,632.06,163.775z M614.08,164.154
				c0,4.95,2.682,9.385,7.392,9.385c4.744,0,7.426-4.366,7.426-9.626c0-4.607-2.406-9.419-7.392-9.419
				C616.556,154.494,614.08,159.066,614.08,164.154z"/>
		</g>
		<g clip-path="url(#SVGID_6_)">
			<path fill="#FFF200" d="M640.449,152.706c1.444-0.24,3.335-0.447,5.741-0.447c2.957,0,5.123,0.688,6.498,1.925
				c1.271,1.1,2.028,2.785,2.028,4.847c0,2.097-0.619,3.747-1.788,4.951c-1.581,1.685-4.159,2.544-7.082,2.544
				c-0.894,0-1.719-0.035-2.406-0.207v9.282h-2.991V152.706z M643.44,163.878c0.653,0.172,1.479,0.241,2.476,0.241
				c3.609,0,5.81-1.753,5.81-4.95c0-3.06-2.166-4.538-5.466-4.538c-1.307,0-2.304,0.103-2.819,0.241V163.878z"/>
		</g>
	</g>
	<g clip-path="url(#SVGID_2_)">
		<defs>
			<polygon id="SVGID_7_" points="401.69,5.984 401.712,418.508 938,418.508 937.977,5.984 			"/>
		</defs>
		<clipPath id="SVGID_8_">
			<use xlink:href="#SVGID_7_"  overflow="visible"/>
		</clipPath>
		<g opacity="0.64" clip-path="url(#SVGID_8_)">
			<g>
				<defs>
					<rect id="SVGID_9_" x="582.403" y="12.25" width="120.644" height="71.355"/>
				</defs>
				<clipPath id="SVGID_10_">
					<use xlink:href="#SVGID_9_"  overflow="visible"/>
				</clipPath>
				<g clip-path="url(#SVGID_10_)">
					<defs>
						<rect id="SVGID_11_" x="582.403" y="12.25" width="120.643" height="71.355"/>
					</defs>
					<clipPath id="SVGID_12_">
						<use xlink:href="#SVGID_11_"  overflow="visible"/>
					</clipPath>
					<path clip-path="url(#SVGID_12_)" fill="#E4F0EF" d="M671.288,50.451c0,10.777-7.226,19.513-16.136,19.513
						c-8.913,0-16.138-8.736-16.138-19.513c0-10.776,7.225-19.513,16.138-19.513C664.063,30.938,671.288,39.674,671.288,50.451"/>
					<path clip-path="url(#SVGID_12_)" fill="#E4F0EF" d="M691.358,67.56c0,8.482-5.686,15.358-12.7,15.358
						c-7.014,0-12.698-6.876-12.698-15.358c0-8.481,5.685-15.358,12.698-15.358C685.673,52.202,691.358,59.079,691.358,67.56"/>
					<path clip-path="url(#SVGID_12_)" fill="#E4F0EF" d="M625.468,63.946c0,10.478-7.023,18.971-15.688,18.971
						s-15.688-8.493-15.688-18.971c0-10.477,7.023-18.971,15.688-18.971S625.468,53.469,625.468,63.946"/>
					<path clip-path="url(#SVGID_12_)" fill="#E4F0EF" d="M649.673,46.782c0,14.136-9.479,25.597-21.167,25.597
						c-11.69,0-21.167-11.461-21.167-25.597c0-14.136,9.477-25.595,21.167-25.595C640.194,21.187,649.673,32.646,649.673,46.782"/>
					<rect x="608.135" y="62.565" clip-path="url(#SVGID_12_)" fill="#E4F0EF" width="70.524" height="20.352"/>
					<path clip-path="url(#SVGID_12_)" fill="#E4F0EF" d="M678.625,52.418c0,5.467-3.664,9.899-8.186,9.899
						s-8.188-4.432-8.188-9.899c0-5.468,3.666-9.9,8.188-9.9S678.625,46.95,678.625,52.418"/>
				</g>
			</g>
		</g>
		<g opacity="0.56" clip-path="url(#SVGID_8_)">
			<g>
				<defs>
					<rect id="SVGID_13_" x="477.899" width="83.682" height="47.897"/>
				</defs>
				<clipPath id="SVGID_14_">
					<use xlink:href="#SVGID_13_"  overflow="visible"/>
				</clipPath>
				<g clip-path="url(#SVGID_14_)">
					<defs>
						<rect id="SVGID_15_" x="477.899" width="83.682" height="47.897"/>
					</defs>
					<clipPath id="SVGID_16_">
						<use xlink:href="#SVGID_15_"  overflow="visible"/>
					</clipPath>
					<path clip-path="url(#SVGID_16_)" fill="#ECF5F3" d="M537.449,27.08c0,6.682-4.48,12.098-10.005,12.098
						c-5.526,0-10.005-5.416-10.005-12.098c0-6.682,4.479-12.098,10.005-12.098C532.969,14.982,537.449,20.398,537.449,27.08"/>
					<path clip-path="url(#SVGID_16_)" fill="#ECF5F3" d="M549.893,37.688c0,5.259-3.525,9.522-7.874,9.522
						s-7.873-4.263-7.873-9.522c0-5.258,3.524-9.522,7.873-9.522S549.893,32.43,549.893,37.688"/>
					<path clip-path="url(#SVGID_16_)" fill="#ECF5F3" d="M509.04,35.448c0,6.497-4.354,11.762-9.727,11.762
						c-5.373,0-9.727-5.265-9.727-11.762c0-6.496,4.354-11.762,9.727-11.762C504.686,23.686,509.04,28.952,509.04,35.448"/>
					<path clip-path="url(#SVGID_16_)" fill="#ECF5F3" d="M524.048,24.806c0,8.765-5.876,15.87-13.124,15.87
						c-7.247,0-13.123-7.105-13.123-15.87c0-8.764,5.876-15.869,13.123-15.869C518.172,8.937,524.048,16.042,524.048,24.806"/>
					<rect x="498.294" y="34.591" clip-path="url(#SVGID_16_)" fill="#ECF5F3" width="43.725" height="12.619"/>
					<path clip-path="url(#SVGID_16_)" fill="#ECF5F3" d="M541.998,28.3c0,3.389-2.271,6.137-5.075,6.137s-5.075-2.748-5.075-6.137
						c0-3.39,2.271-6.138,5.075-6.138S541.998,24.91,541.998,28.3"/>
				</g>
			</g>
		</g>
	</g>
	<g clip-path="url(#SVGID_2_)">
		<defs>
			<rect id="SVGID_17_" x="698.596" y="47.21" width="234.148" height="344.84"/>
		</defs>
		<clipPath id="SVGID_18_">
			<use xlink:href="#SVGID_17_"  overflow="visible"/>
		</clipPath>
		<path clip-path="url(#SVGID_18_)" fill="#5CB8BC" d="M907.991,378.491c0,7.488-41.855,13.558-93.487,13.558
			s-93.486-6.07-93.486-13.558c0-7.488,41.854-13.558,93.486-13.558S907.991,371.003,907.991,378.491"/>
		<path clip-path="url(#SVGID_18_)" fill="#475059" d="M811.562,318.016c0,2.597-1.742,4.707-3.892,4.707h-18.087
			c-2.149,0-3.894-2.11-3.894-4.707v-8.634c0-2.601,1.744-4.709,3.894-4.709h18.087c2.149,0,3.892,2.108,3.892,4.709V318.016z"/>
		<path clip-path="url(#SVGID_18_)" fill="#363E45" d="M842.691,318.016c0,2.597-1.739,4.707-3.89,4.707H820.71
			c-2.146,0-3.89-2.11-3.89-4.707v-8.634c0-2.601,1.743-4.709,3.89-4.709h18.092c2.15,0,3.89,2.108,3.89,4.709V318.016z"/>
		<path clip-path="url(#SVGID_18_)" fill="#8060A8" d="M814.153,47.21c15.651,14.636,29.472,32.521,40.932,52.905h-40.932
			l-1.505-22.5L814.153,47.21z"/>
		<path clip-path="url(#SVGID_18_)" fill="#A793C5" d="M740.75,251.833c0,0-42.153,54.148,0,114.572
			c7.022,9.857,13.942,12.087,13.942,12.087l11.671-75.138L740.75,251.833z"/>
		<path clip-path="url(#SVGID_18_)" fill="#8060A8" d="M890.594,251.833c0,0,42.15,54.148,0,114.572
			c-4.876,7.322-11.034,10.696-11.034,10.696l-18.462-70.836L890.594,251.833z"/>
		<path clip-path="url(#SVGID_18_)" fill="#9378B6" d="M814.153,47.21c-15.652,14.636-29.471,32.521-40.925,52.905h40.925V47.21z"/>
		<path clip-path="url(#SVGID_18_)" fill="#FDF9D7" d="M773.228,100.115c-22.535,40.096-35.896,89.895-35.896,143.869
			c0,24.817,22.419,48.747,27.659,71.266h49.162V100.115H773.228z"/>
		<path clip-path="url(#SVGID_18_)" fill="#FCF6B3" d="M855.085,100.115c22.532,40.096,35.893,89.895,35.893,143.869
			c0,24.817-22.418,48.747-27.662,71.266h-49.162V100.115H855.085z"/>
		<path clip-path="url(#SVGID_18_)" fill="#B5DBDE" d="M855.431,172.745c0-22.797-18.473-41.276-41.277-41.276l-2.414,39.061
			l2.414,43.495C836.958,214.02,855.431,195.54,855.431,172.745"/>
		<path clip-path="url(#SVGID_18_)" fill="#C5E2E4" d="M773.487,172.672c0,22.799,18.475,41.28,41.278,41.28v-82.556
			C791.962,131.396,773.487,149.875,773.487,172.672"/>
		<path clip-path="url(#SVGID_18_)" fill="#E8B540" d="M814.35,190.616h-0.047v-0.76c10.319,0,14.924-2.695,16.969-4.956
			c2.211-2.442,1.99-4.935,1.988-4.959l-0.002-0.039v-12.739h0.76v12.721c0.025,0.286,0.18,2.902-2.162,5.505
			C828.741,188.851,822.853,190.609,814.35,190.616"/>
		<path clip-path="url(#SVGID_18_)" fill="#53BFA9" d="M816.257,191.705c0.628,0,1.142-0.514,1.142-1.141v-0.887
			c0-0.628-0.514-1.141-1.142-1.141h-4.461c-0.627,0-1.141,0.513-1.141,1.141v0.887c0,0.627,0.514,1.141,1.141,1.141H816.257z"/>
		<path clip-path="url(#SVGID_18_)" fill="#8060A8" d="M827.952,262.085c0-6.069-4.063-10.989-9.077-10.989h-4.722l-1.296,54.688
			l1.296,72.787c0,0,3.406-1.114,6.404-9.065C823.555,361.555,827.952,262.085,827.952,262.085"/>
		<path clip-path="url(#SVGID_18_)" fill="#9378B6" d="M810.05,251.096c-5.019,0-9.083,4.92-9.083,10.989
			c0,0,4.894,100.061,7.395,107.42c2.502,7.36,5.792,9.066,5.792,9.066V251.096H810.05z"/>
		<path clip-path="url(#SVGID_18_)" fill="#D24B27" d="M797.755,182.658c1.044-1.11,0.688-2.537,0.131-3.752
			c-0.855-1.87-0.198-3.533,1.234-4.712c0.119-0.082,1.032-0.737,1.294-1.902c0.281-1.246-0.645-2.67-0.749-4.374
			c-0.106-1.701-0.448,2.537-0.448,2.537s0.97,2.209-0.49,3.351c0,0.003,0,0.005-0.002,0.007c-1.506,1.235-2.268,3.075-1.459,4.992
			c0.491,1.16,1.131,2.424,0.271,3.557c-0.867,1.148-0.771,2.243,0.229,3.403c0.119,0.14,0.264,0.286,0.424,0.361
			C797.354,185.21,796.838,183.627,797.755,182.658"/>
		<path clip-path="url(#SVGID_18_)" fill="#C33F27" d="M830.06,168.794c0,0-2.124,0.537-1.57,3.131
			c0.557,2.593,2.706,3.192,1.815,5.222c0.763-1.187,0.552-1.74-0.898-4.073c-1.449-2.331,1.148-4.079,1.148-4.079L830.06,168.794z"
			/>
		<path clip-path="url(#SVGID_18_)" fill="#C33F27" d="M826.01,184.901c0,0-0.583,1.425,0.066,3.687
			c0.651,2.262,2.591,2.659,1.925,4.512c0.477-1.337,0.194-1.849-0.853-3.284c-1.436-1.969,0.078-4.915,0.078-4.915H826.01z"/>
		<path clip-path="url(#SVGID_18_)" fill="#D24B27" d="M806.607,196.865c0.474-1.338,0.191-1.849-0.855-3.284
			c-1.433-1.969,0.078-4.915,0.078-4.915h-1.215c0,0-0.586,1.425,0.063,3.686C805.33,194.614,807.271,195.012,806.607,196.865"/>
		<path clip-path="url(#SVGID_18_)" fill="#D24B27" d="M803.809,186.124c0,0-0.836,1.292-0.613,3.635
			c0.226,2.344,2.058,3.091,1.063,4.79c0.714-1.228,0.532-1.781-0.233-3.386c-1.049-2.199,0.979-4.815,0.979-4.815L803.809,186.124z
			"/>
		<path clip-path="url(#SVGID_18_)" fill="#D24B27" d="M799.417,172.959c0,0-0.391,1.49-2.27,2.905
			c-1.879,1.416-3.67,0.567-4.253,2.447c0.427-1.354,0.957-1.594,2.658-2.111c2.33-0.71,2.894-3.972,2.894-3.972L799.417,172.959z"
			/>
		<path clip-path="url(#SVGID_18_)" fill="#C33F27" d="M825.748,196.623c-0.651-0.858-1.026-1.88-1.299-2.91
			c-0.631-2.386,0.653-4.683,0.041-7.071c-0.066-0.263-0.174-0.495-0.293-0.713c-0.123-0.329-0.287-0.653-0.527-0.908
			c-0.81-0.855-1.655-1.017-1.711-2.97c0.021-0.11,0.034-0.218,0.064-0.331c0.029-0.118-2.555-2.209-2.529-2.32
			c-0.017,0.073,0.412,0.422,0.575,0.699c0.342,0.568,0.638,1.171,0.874,1.789c0.211,0.548,0.488,1.21,0.766,1.678
			c0,0-0.002,0-0.004-0.001l0.004,0.002c0.13,0.225,0.31,0.45,0.55,0.666c1.219,1.084,1.819,2.266,1.8,3.178
			c0,0.054,0.003,0.106,0,0.16c0,0.036-0.002,0.072-0.002,0.102c-0.059,1.382-0.475,2.832-0.264,4.274
			C824.326,195.587,825.609,196.443,825.748,196.623"/>
		<path clip-path="url(#SVGID_18_)" fill="#D24B27" d="M796.221,161.819c-0.607,5.41,3.2,14.476,3.2,14.476
			s7.315,0.405,14.612,0.527v-21.746C807.42,155.487,796.681,157.746,796.221,161.819"/>
		<path clip-path="url(#SVGID_18_)" fill="#C33F27" d="M818.7,155.267c-0.772-0.263-2.5-0.327-4.667-0.192v21.747
			c6.848,0.112,13.682-0.025,14.419-0.984c1.523-1.981,3.005-7.156,3.233-12.261C831.915,158.472,821.823,156.333,818.7,155.267"/>
		<path clip-path="url(#SVGID_18_)" fill="#FAB480" d="M827.588,175.366l1.456-0.991c0.253-0.173,0.569-0.222,0.86-0.137
			c0.295,0.085,0.531,0.298,0.652,0.577c0.623,1.449,0.709,3.072,0.241,4.578l-0.34,1.098c-0.167,1.46-0.331,2.054-1.102,2.738
			l-0.221,0.099c-0.308,0.138-0.666,0.088-0.927-0.128l-1.061-0.888L827.588,175.366z"/>
		<path clip-path="url(#SVGID_18_)" fill="#FBC08D" d="M800.432,175.366l-1.454-0.991c-0.252-0.173-0.568-0.222-0.86-0.137
			c-0.294,0.085-0.531,0.298-0.653,0.577c-0.622,1.449-0.707,3.072-0.241,4.578l0.342,1.098c0.166,1.46,0.329,2.054,1.102,2.738
			l0.218,0.099c0.311,0.138,0.67,0.088,0.928-0.128l1.063-0.888L800.432,175.366z"/>
		<path clip-path="url(#SVGID_18_)" fill="#E15526" d="M803.456,195.065c-0.784-0.96-0.41-2.098,0.109-3.05
			c0.802-1.467,0.366-2.854-0.728-3.892c-0.092-0.074-0.794-0.659-0.941-1.617c-0.154-1.027,0.675-2.128,0.86-3.503
			c0.185-1.374,0.218,2.083,0.218,2.083s-0.913,1.735,0.202,2.745c0.002,0.004,0.002,0.005,0.003,0.006
			c1.148,1.088,1.66,2.623,0.893,4.132c-0.462,0.913-1.055,1.899-0.425,2.868"/>
		<path clip-path="url(#SVGID_18_)" fill="#D24B27" d="M827.64,191.168c-0.989,0.101-1.584-0.65-1.991-1.416
			c-0.628-1.183-1.748-1.501-2.923-1.227c-0.091,0.029-0.79,0.24-1.495-0.084c-0.756-0.347-1.125-1.39-1.965-2.117
			c-0.837-0.729,1.488,0.771,1.488,0.771s0.759,1.377,1.925,1.074h0.006c1.234-0.289,2.469-0.524,3.141,0.653
			c0.404,0.712,0.79,1.938,1.718,1.945c0.935,0.004,1.493,0.662,1.697,1.636c0.025,0.117,0.044,0.25,0.019,0.363
			C829.118,191.969,828.502,191.079,827.64,191.168"/>
		<path clip-path="url(#SVGID_18_)" fill="#FCCA99" d="M810.196,198.267l-7.471-9.357c-1.881-2.38-2.822-5.112-3.039-8.332
			c-0.369-5.442-0.983-21.545-0.983-21.545l15.47-7.443l2.095,24.067l1.593,10.334l-3.688,11.451"/>
		<path clip-path="url(#SVGID_18_)" fill="#FBC08D" d="M818.402,198.384l7.023-9.473c2.018-2.845,3.164-5.816,3.164-10.902
			c0-4.763,0.859-18.975,0.859-18.975l-15.474-7.444l0.096,46.54"/>
		<path clip-path="url(#SVGID_18_)" fill="#FBC08D" d="M811.331,184.901c-0.099,0.126-0.118,0.295-0.049,0.439
			c0.072,0.143,0.218,0.235,0.376,0.235h2.76v-1.777c-0.078,0.003-0.15,0.007-0.224,0.013
			C812.464,183.923,811.685,184.452,811.331,184.901"/>
		<path clip-path="url(#SVGID_18_)" fill="#C33F27" d="M814.033,137.75l-2.428,1.797c-0.004,0-0.009-0.001-0.011-0.001l0.202,2.112
			l0.135,14.916l2.092,2.417c0.235,0.023,0.473,0.05,0.713,0.085c4.268,0.609,13.582,7.943,14.039,11.752
			c5.335-7.619,2.397-12.87,0.059-15.79c-2.422-3.021-6.674-5.12-10.335-6.09c1.297-0.381,1.549-0.891,1.485-1.318
			c1.462-0.802,2.675-2.022,2.876-4c0.506-4.931-7.674-5.841-8.808-5.879"/>
		<path clip-path="url(#SVGID_18_)" fill="#D24B27" d="M814.033,137.75c-1.192-0.047-10.34-1.305-10.074,4.212
			c0.126,2.632,1.463,4.177,2.828,5.082c-0.046,0.14-0.066,0.299-0.05,0.485c0.037,0.432,0.366,0.77,0.848,1.033
			c-3.156,0.631-6.664,2.377-9.383,6.933c-5.18,8.686,0.914,14.933,0.914,14.933s2.374-6.874,4.967-8.855
			c2.443-1.869,5.965-2.974,9.94-2.582v-9.449c0.002-0.002,0.005,0,0.01-0.002V137.75"/>
	</g>
	<g clip-path="url(#SVGID_2_)">
		<defs>
			<path id="SVGID_19_" d="M801.798,174.113l0.192,0.043c0.099,0.365,1.441,4.747,7.972,1.91c0,0-0.032-0.053-0.094-0.14
				l0.179,0.039c-0.179-0.306-1.979-2.937-4.913-2.938C804.145,173.027,803.027,173.327,801.798,174.113"/>
		</defs>
		<clipPath id="SVGID_20_">
			<use xlink:href="#SVGID_19_"  overflow="visible"/>
		</clipPath>
		<path clip-path="url(#SVGID_20_)" fill="#F6F6F7" d="M801.983,174.132c0,0,1.169,4.893,7.979,1.933
			C809.963,176.065,807.415,171.882,801.983,174.132"/>
		<path clip-path="url(#SVGID_20_)" fill="#282827" d="M804.213,175.699c0.034,0.979,0.856,1.743,1.837,1.709
			c0.976-0.033,1.741-0.854,1.708-1.833c-0.034-0.977-0.857-1.745-1.836-1.711C804.945,173.897,804.181,174.721,804.213,175.699"/>
		<path clip-path="url(#SVGID_20_)" fill="#F6F6F7" d="M804.984,175.292c0.012,0.293,0.256,0.52,0.551,0.512
			c0.293-0.011,0.523-0.258,0.513-0.551s-0.256-0.523-0.549-0.512C805.204,174.75,804.975,174.998,804.984,175.292"/>
		<path clip-path="url(#SVGID_20_)" fill="#282827" d="M801.799,174.246c-0.004,0.005-0.008,0.013-0.004,0.02
			c0.004,0.008,0.014,0.012,0.021,0.008c0.84-0.356,4.386-1.539,8.208,1.843c0.006,0.005,0.014,0.005,0.021,0
			c0.005-0.004,0.007-0.013,0.003-0.02C809.657,175.433,806.821,171.024,801.799,174.246"/>
	</g>
	<g clip-path="url(#SVGID_2_)">
		<defs>
			<path id="SVGID_21_" d="M817.719,175.965c-0.004,0.006-0.002,0.016,0.002,0.019c0.008,0.006,0.017,0.005,0.022,0
				c0.02-0.017,0.038-0.034,0.059-0.051c6.337,2.754,7.79-1.291,7.962-1.865c0.07,0.026,0.135,0.051,0.186,0.074
				c0.007,0.003,0.019,0,0.019-0.008c0.003-0.007,0.003-0.015-0.006-0.022c-0.061-0.037-0.119-0.074-0.181-0.111
				c-1.243-0.762-2.35-1.052-3.315-1.052C819.622,172.949,818.005,175.474,817.719,175.965"/>
		</defs>
		<clipPath id="SVGID_22_">
			<use xlink:href="#SVGID_21_"  overflow="visible"/>
		</clipPath>
		<path clip-path="url(#SVGID_22_)" fill="#F6F6F7" d="M825.782,174.132c0,0-1.17,4.893-7.98,1.933
			C817.802,176.065,820.35,171.882,825.782,174.132"/>
		<path clip-path="url(#SVGID_22_)" fill="#282827" d="M820.007,175.574c-0.034,0.979,0.732,1.799,1.71,1.833
			c0.979,0.036,1.801-0.73,1.834-1.71c0.036-0.978-0.732-1.8-1.71-1.833C820.862,173.83,820.043,174.596,820.007,175.574"/>
		<path clip-path="url(#SVGID_22_)" fill="#F6F6F7" d="M820.806,175.221c-0.012,0.293,0.219,0.539,0.512,0.55
			c0.294,0.009,0.54-0.219,0.553-0.512c0.009-0.296-0.22-0.541-0.515-0.552C821.061,174.698,820.816,174.928,820.806,175.221"/>
		<path clip-path="url(#SVGID_22_)" fill="#282827" d="M825.963,174.245c-5.02-3.221-7.854,1.187-8.243,1.852
			c-0.005,0.006-0.003,0.016,0.002,0.019c0.007,0.006,0.016,0.005,0.021,0c3.823-3.381,7.367-2.198,8.207-1.843
			c0.008,0.004,0.018,0,0.019-0.007C825.971,174.259,825.971,174.249,825.963,174.245"/>
	</g>
	<g clip-path="url(#SVGID_2_)">
		<defs>
			<rect id="SVGID_23_" x="698.596" y="47.21" width="234.148" height="344.84"/>
		</defs>
		<clipPath id="SVGID_24_">
			<use xlink:href="#SVGID_23_"  overflow="visible"/>
		</clipPath>
		<path clip-path="url(#SVGID_24_)" fill="#D24B27" d="M810.037,169.246c-0.428-0.612-2.034-1.416-3.662-1.647
			c-3.551-0.503-5.193,1.271-5.937,1.866c-0.022,0.017-0.024,0.05-0.009,0.074c0.016,0.023,0.049,0.034,0.072,0.019
			c3.367-2.456,7.47-0.709,9.097,0.176c0.138,0.076,0.309,0.047,0.412-0.071C810.115,169.547,810.127,169.371,810.037,169.246"/>
		<path clip-path="url(#SVGID_24_)" fill="#C33F27" d="M817.617,169.246c0.428-0.612,2.034-1.416,3.661-1.647
			c3.553-0.503,5.191,1.271,5.938,1.866c0.024,0.017,0.024,0.05,0.009,0.074c-0.018,0.023-0.049,0.034-0.072,0.019
			c-3.368-2.456-7.471-0.709-9.099,0.176c-0.135,0.076-0.306,0.047-0.412-0.071C817.539,169.547,817.526,169.371,817.617,169.246"/>
		<path clip-path="url(#SVGID_24_)" fill="#D24B27" d="M828.112,171.41c-0.242-1.505-1.595-2.093-2.893-2.392
			c-2.008-0.462-2.924-1.997-2.985-3.852c0.007-0.145,0.045-1.266-0.719-2.184c-0.815-0.983-3.474-2.297-4.888-3.25
			c-1.414-0.956,0.497,1.053,0.497,1.053s4.523,2.018,4.564,4.457c0,0.001,0.003,0.003,0.003,0.006
			c0.06,1.946,1.055,3.669,3.068,4.198c1.218,0.32,2.608,0.583,2.984,1.956c0.379,1.388,1.308,1.977,2.837,1.894
			c0.184-0.011,0.388-0.037,0.545-0.117C829.891,173.283,828.322,172.723,828.112,171.41"/>
		<path clip-path="url(#SVGID_24_)" fill="#E15526" d="M794.758,173.817c1.629-1.855,4.25-2.069,5.891-3.91
			c0.181-0.202,0.313-0.418,0.43-0.64c0.204-0.286,0.384-0.603,0.458-0.946c0.563-2.695,4.039-6.56,4.149-6.598
			c0.113-0.042-1.919,0.038-1.813,0c-0.068,0.024-0.121,0.576-0.257,0.866c-0.283,0.601-0.62,1.181-1,1.723
			c-0.337,0.48-0.73,1.081-0.967,1.57v-0.003l-0.002,0.003c-0.111,0.234-0.2,0.51-0.244,0.831c-0.22,1.614-0.863,2.773-1.633,3.266
			c-0.046,0.029-0.088,0.06-0.134,0.089c-0.03,0.018-0.062,0.037-0.085,0.054c-1.182,0.722-2.617,1.185-3.695,2.166
			c-2.726,2.472-2.717,4.016-2.791,4.229C793.414,175.5,794.054,174.62,794.758,173.817"/>
		<path clip-path="url(#SVGID_24_)" fill="#D24B27" d="M829.065,179.208c-0.632-2.387,0.651-4.682,0.041-7.073
			c-0.067-0.262-0.175-0.493-0.293-0.711c-0.123-0.33-0.288-0.653-0.53-0.908c-0.807-0.856-1.655-1.017-1.71-2.97
			c0.02-0.11,0.035-0.218,0.063-0.331c0.03-0.118-2.555-2.209-2.527-2.319c-0.019,0.072,0.412,0.421,0.578,0.697
			c0.339,0.569,0.633,1.172,0.871,1.79c0.212,0.548,0.488,1.21,0.764,1.679l-0.002-0.002l0.002,0.003
			c0.131,0.224,0.311,0.45,0.552,0.665c1.217,1.084,1.821,2.265,1.8,3.178c0,0.053,0.002,0.106,0,0.16
			c-0.003,0.037-0.003,0.072-0.003,0.102c-0.058,1.382-0.476,2.831-0.263,4.274c0.533,3.64,1.819,4.496,1.954,4.675
			C829.712,181.259,829.338,180.239,829.065,179.208"/>
		<path clip-path="url(#SVGID_24_)" fill="#E15526" d="M812.83,158.125c-1.119-0.577-4.49-1.524-7.087-0.262
			c-2.599,1.264-2.37,3.156-3.987,3.99c-1.616,0.834-1.638,4.195-1.933,5.157c0.817-0.762,0.523-3.965,2.116-4.885
			c1.595-0.921,2.041-2.219,2.56-2.812c0.519-0.594,3.582-2.115,6.742-0.965C814.402,159.496,812.83,158.125,812.83,158.125"/>
		<path clip-path="url(#SVGID_24_)" fill="#D24B27" d="M814.418,158.18c0,0,2.027-1.083,4.366-0.305
			c2.336,0.779,1.29,2.197,3.95,3.004c1.447,0.439,3.393,3.685,3.32,3.754c-0.077,0.072-1.831-2.076-2.732-2.743
			c-0.903-0.669-2.467-0.354-3.283-2.226c-0.836-1.921-4.537-1.344-4.537-1.344L814.418,158.18z"/>
		<path clip-path="url(#SVGID_24_)" fill="#D24B27" d="M824.586,164.047c-1.5-1.294-3.174-2.537-4.449-3.474
			c-1.465-1.075-2.595-1.804-5.526-2.7c-0.211-0.064-0.422-0.116-0.634-0.162l-0.444,0.58l-0.149,1.096l0.594,0.547
			c2.187,0.245,4.32,1.281,6.13,2.427c2.061,1.3,3.571,3.122,4.452,3.588c2.676,1.41,4.635,4.263,4.224,7.073
			C830.312,169.51,827.852,166.869,824.586,164.047"/>
		<path clip-path="url(#SVGID_24_)" fill="#E15526" d="M801.234,163.65c-1.069,1.743-3.341,8.316-1.918,9.967
			c0,0-0.11-5.012,2.938-8.594c1.728-2.028,3.523-3.059,6.23-3.908c1.507-0.472,3.671-1.365,5.358-1.201
			c0.043,0.004,0.087,0.014,0.134,0.02v-2.222c-1.827-0.392-3.579,0.842-5.437,1.08C805.068,159.238,802.244,162.009,801.234,163.65
			"/>
		<path clip-path="url(#SVGID_24_)" fill="#E15526" d="M805.741,160.692c-0.152,0-0.282-0.032-0.429-0.043
			c-0.257,0.511-0.54,1.125-0.697,1.622c-0.001-0.003,0-0.004-0.001-0.005l0.001,0.005c-0.079,0.248-0.127,0.532-0.123,0.855
			c0.015,1.63-0.457,2.87-1.147,3.467c-0.04,0.036-0.079,0.073-0.119,0.108c-0.027,0.023-0.055,0.046-0.077,0.066
			c-1.063,0.885-2.418,1.548-3.346,2.674c-2.337,2.838-2.11,4.366-2.153,4.588c0.198-1.06,0.704-2.022,1.285-2.916
			c1.347-2.069,3.91-2.658,5.27-4.717c0.15-0.227,0.249-0.461,0.33-0.695c0.164-0.311,0.262-0.655,0.319-1.002
			c0.214-1.344-0.315-2.116,1.668-2.987c0.095-0.06-0.429-0.394-0.328-0.449c0.029-0.016,0.038-0.265,0.037-0.618
			C806.063,160.656,805.914,160.692,805.741,160.692"/>
		<path clip-path="url(#SVGID_24_)" fill="#ED2724" d="M813.788,174.439c-0.342,0-0.668-0.137-0.911-0.38l-0.379-0.383
			c-0.761-1.089-2.011-1.74-3.337-1.74l-7.48,0.012c-0.64,0.001-1.255,0.265-1.699,0.716l0.002-0.003l-0.144,0.107
			c-0.19,0.149-0.429,0.227-0.671,0.224l-0.22-0.003c-0.071,0-0.142,0.027-0.191,0.078c-0.053,0.051-0.082,0.12-0.082,0.192v0.798
			c0,0.159,0.129,0.288,0.288,0.288h0.035c0.121,0,0.225,0.08,0.258,0.195l0.112,0.385v-0.004c0.011,0.042,0.018,0.084,0.03,0.125
			l1.318,3.58c0.571,1.842,2.25,3.078,4.179,3.078h4.197c1.035,0,1.96-0.655,2.303-1.632l1.419-3.4l0.071-0.128
			c0.222-0.396,0.637-0.644,1.09-0.656c0.015,0,0.029,0.006,0.047,0.007l1.213-0.711l-1.213-0.745H813.788z M812.119,176.223
			l-1.489,3.83c-0.228,0.652-0.846,1.09-1.536,1.09h-4.197c-1.571,0-2.939-1.007-3.403-2.508l-1.317-3.828
			c-0.148-0.477-0.06-1.002,0.237-1.403c0.295-0.402,0.769-0.643,1.27-0.643l7.471-0.013c1.069,0,2.069,0.522,2.68,1.394
			C812.256,174.748,812.362,175.526,812.119,176.223"/>
		<path clip-path="url(#SVGID_24_)" fill="#D12727" d="M829.194,173.067c-0.052-0.05-0.12-0.078-0.191-0.078l-0.221,0.003
			c-0.242,0.003-0.479-0.075-0.673-0.224l-0.143-0.108l0.002,0.003c-0.444-0.45-1.055-0.714-1.696-0.715l-7.479-0.012
			c-1.33,0-2.578,0.651-3.339,1.74l-0.38,0.383c-0.239,0.243-0.568,0.38-0.91,0.38h-0.142v1.456c0.434,0.028,0.828,0.266,1.042,0.65
			l0.069,0.128l1.422,3.399c0.342,0.978,1.267,1.632,2.302,1.632h4.198c1.928,0,3.606-1.236,4.178-3.078l1.318-3.579
			c0.012-0.041,0.019-0.084,0.028-0.123l0.002,0.003l0.109-0.386c0.033-0.116,0.142-0.196,0.261-0.196h0.033
			c0.162,0,0.289-0.129,0.289-0.288v-0.798C829.275,173.187,829.246,173.118,829.194,173.067 M827.776,174.806l-1.316,3.829
			c-0.466,1.5-1.833,2.507-3.403,2.507h-4.198c-0.689,0-1.308-0.438-1.537-1.09l-1.485-3.83c-0.246-0.696-0.139-1.475,0.285-2.081
			c0.608-0.872,1.609-1.394,2.679-1.394l7.471,0.013c0.499,0,0.974,0.241,1.271,0.644
			C827.837,173.804,827.925,174.33,827.776,174.806"/>
		<path clip-path="url(#SVGID_24_)" fill="#D65237" d="M818.383,188.913c0,0.035-2.358,0.201-3.104-0.005
			c-0.345-0.073-0.706-0.018-0.925,0.247c-0.059,0.074-0.155,0.117-0.254,0.117c-0.103,0-0.195-0.043-0.256-0.117
			c-0.22-0.264-0.578-0.319-0.926-0.247c-0.746,0.207-3.103,0.04-3.103,0.005c0.157,0.244,0.586,1.94,1.411,3.161
			c0.825,1.222,1.297,1.343,2.822,1.35c1.525,0.017,2.186-0.348,2.924-1.367C817.713,191.038,818.203,189.177,818.383,188.913"/>
		<path clip-path="url(#SVGID_24_)" fill="#FFFFFF" d="M810.436,189.396c0.108,0.331,0.364,0.592,0.691,0.709
			c0.927,0.33,1.838,0.567,2.856,0.566c1.146,0,2.208-0.268,3.252-0.671c0.294-0.113,0.528-0.346,0.643-0.64l0.125-0.322
			l-4.07,0.706l-3.588-0.626L810.436,189.396z"/>
		<path clip-path="url(#SVGID_24_)" fill="#F49268" d="M809.815,188.913c0.157,0.244,0.586,1.94,1.411,3.161
			c0.824,1.222,1.297,1.343,2.822,1.35c1.525,0.017,2.185-0.348,2.924-1.367c0.74-1.019,1.23-2.88,1.41-3.144
			c-1.411,1.805-0.819,3.251-4.397,3.251C810.406,192.164,811.376,190.619,809.815,188.913"/>
		<path clip-path="url(#SVGID_24_)" fill="#E9805B" d="M815.279,188.908c-0.345-0.073-0.705-0.018-0.926,0.247
			c-0.06,0.074-0.154,0.117-0.255,0.117s-0.193-0.043-0.256-0.117c-0.218-0.263-0.578-0.319-0.924-0.247
			c-0.747,0.208-3.104,0.041-3.104,0.005c0.347,0.17,0.699,0.328,1.06,0.478c2.022,0.855,4.426,0.855,6.447,0
			c0.359-0.15,0.713-0.308,1.06-0.478C818.382,188.949,816.025,189.114,815.279,188.908"/>
		<path clip-path="url(#SVGID_24_)" fill="#0E9885" d="M832.867,166.388h-1.585v-10.263l0.004-0.029
			c0.009-0.059,0.184-1.542-1.824-3.046c-1.912-1.432-6.234-3.139-15.961-3.142c-9.772,0.003-14.094,1.725-15.998,3.17
			c-1.994,1.514-1.789,3.003-1.787,3.018l0.004,0.057v10.235h-1.584v-10.212c-0.031-0.278-0.123-2.067,2.189-3.822
			c3.079-2.337,8.85-3.524,17.153-3.528h0.045c8.304,0.004,14.074,1.191,17.154,3.528c2.311,1.755,2.219,3.544,2.189,3.822V166.388z
			"/>
		<path clip-path="url(#SVGID_24_)" fill="#0E9885" d="M832.074,165.069c2.694,0,4.877,2.27,4.877,5.071
			c0,2.8-2.183,5.07-4.877,5.07V165.069z"/>
		<path clip-path="url(#SVGID_24_)" fill="#04847A" d="M836.951,170.14L836.951,170.14c0,2.8-2.183,5.071-4.877,5.071v-5.071
			H836.951z"/>
		<path clip-path="url(#SVGID_24_)" fill="#35AB92" d="M833.314,170.14v4.495c0,0.561-0.441,1.019-0.98,1.019h-0.763
			c-0.539,0-0.979-0.458-0.979-1.019v-4.495H833.314z"/>
		<path clip-path="url(#SVGID_24_)" fill="#53BFA9" d="M830.591,174.634c0,0.561,0.441,1.02,0.98,1.02h0.763
			c0.539,0,0.98-0.459,0.98-1.02v-8.989c0-0.561-0.441-1.02-0.98-1.02h-0.763c-0.539,0-0.98,0.459-0.98,1.02V174.634z"/>
		<path clip-path="url(#SVGID_24_)" fill="#04847A" d="M790.051,170.14L790.051,170.14c0,2.8,2.184,5.071,4.877,5.071v-5.071
			H790.051z"/>
		<path clip-path="url(#SVGID_24_)" fill="#35AB92" d="M793.688,170.14v4.495c0,0.561,0.44,1.019,0.979,1.019h0.763
			c0.539,0,0.98-0.458,0.98-1.019v-4.495H793.688z"/>
		<path clip-path="url(#SVGID_24_)" fill="#0E9885" d="M794.928,165.069c-2.694,0-4.877,2.27-4.877,5.071
			c0,2.8,2.183,5.07,4.877,5.07V165.069z"/>
		<path clip-path="url(#SVGID_24_)" fill="#53BFA9" d="M796.411,174.634c0,0.561-0.44,1.02-0.979,1.02h-0.764
			c-0.54,0-0.979-0.459-0.979-1.02v-8.989c0-0.561,0.439-1.02,0.979-1.02h0.764c0.539,0,0.979,0.459,0.979,1.02V174.634z"/>
		<path clip-path="url(#SVGID_24_)" fill="#F3764B" d="M795.277,197.696c-3.115,0-5.642,2.322-5.642,6.418v7.796l24.552,3.234
			l0.499-4.597l-0.499-12.851H795.277z"/>
		<path clip-path="url(#SVGID_24_)" fill="#E96742" d="M838.67,204.114c0-4.096-2.525-6.418-5.641-6.418h-18.932v14.215l27.591-0.03
			L838.67,204.114z"/>
		<path clip-path="url(#SVGID_24_)" fill="#E8B540" d="M803.151,211.911v-13.912c0-0.366-0.298-0.663-0.664-0.663h-1.949
			c-0.366,0-0.664,0.297-0.664,0.663v13.912H803.151z"/>
		<path clip-path="url(#SVGID_24_)" fill="#E1A834" d="M827.993,211.911v-13.912c0-0.366-0.298-0.663-0.664-0.663h-1.949
			c-0.365,0-0.664,0.297-0.664,0.663v13.912H827.993z"/>
		<path clip-path="url(#SVGID_24_)" fill="#F3764B" d="M822.182,203.91c-4.049,3.896-10.251,11.378-16.806,9.496
			c-3.915-1.125-7.227-4.296-9.033-7.509c-0.272,0.044-0.555-3.196-0.833-3.277c-0.925-0.268-1.891-0.341-2.813-0.607
			c-0.937-0.27-2.646,7.238-2.646,7.238c1.642,6.563,3.225,7.65,12.615,10.349c2.311,0.663,5.111,1.065,8.28,0.748
			c5.197-0.519,11.389-2.972,18.038-9.369L822.182,203.91z"/>
		<path clip-path="url(#SVGID_24_)" fill="#FCCA99" d="M839.323,199.365c0-0.002-0.001-0.004-0.003-0.005
			c-0.381,0.141-0.27-0.247-0.27-0.247l0.083-0.061c0.586-0.427,0.715-1.25,0.288-1.836c-0.319-0.437-0.854-0.618-1.35-0.507v-0.001
			c-0.411-0.02-0.503-0.349-0.512-0.617c0.023-0.113,0.035-0.226,0.03-0.341v-0.004l-0.001,0.001
			c-0.015-0.245-0.094-0.488-0.248-0.7c-0.429-0.587-1.25-0.714-1.838-0.287l-0.899,0.657c-0.894,0.269-1.833,0.728-2.36,1.087
			c-0.097,0.066-0.193,0.137-0.293,0.211c-0.29,0.197-0.708,0.447-0.839,0.344c-0.175-0.137,0.319-1.796-0.392-3.451
			c-0.102-0.54-0.359-1.142-0.876-1.878c-0.371-0.529-1.1-0.656-1.627-0.286c-0.007,0.004-0.013,0.008-0.019,0.013
			c-0.512,0.374-0.633,1.092-0.268,1.615c0.62,0.883,0.569,1.072,0.382,1.771c-0.053,0.196-0.107,0.403-0.156,0.632
			c-0.185,0.891-1.232,4.103-1.557,4.975v0.001c-0.188,0.395-0.252,0.835-0.44,1.506c-0.47,1.668-3.424,3.732-3.424,3.732
			s3.529,4.836,4.52,6.193c4.515-3.476,4.447-2.492,6.863-2.567c1.381-0.044,3.479-1.584,5.022-2.896l2.677-1.954
			c0.585-0.427,0.715-1.249,0.287-1.835c-0.27-0.369-0.695-0.556-1.118-0.538h-0.002c-0.524-0.085-0.401-0.412-0.401-0.412
			l0.157-0.115c0.585-0.428,0.715-1.25,0.287-1.836C840.632,199.184,839.896,199.041,839.323,199.365"/>
		<path clip-path="url(#SVGID_24_)" fill="#475059" d="M814.153,212.727c-20.299,0-39.98-19.685-39.98-39.982
			c0-20.294,19.682-39.979,39.98-39.979v-9.122c-27.12,0-49.109,21.983-49.109,49.101c0,27.123,21.989,49.105,49.109,49.105V212.727
			z"/>
		<path clip-path="url(#SVGID_24_)" fill="#363E45" d="M863.262,172.745c0-27.118-21.993-49.101-49.108-49.101l-2.148,6.539
			l2.148,2.584c20.302,0,39.98,19.684,39.98,39.978c0,20.292-19.679,39.977-39.98,39.982l-2.148,4.015l2.148,5.107
			C841.269,221.849,863.262,199.868,863.262,172.745"/>
		<polyline clip-path="url(#SVGID_24_)" fill="#F6F6F7" points="810.196,197.58 806.664,193.737 798.139,198.413 		"/>
		<polyline clip-path="url(#SVGID_24_)" fill="#EDEEEF" points="829.562,197.959 820.831,193.737 816.141,197.58 		"/>
	</g>
	<g clip-path="url(#SVGID_2_)">
		<defs>
			
				<rect id="SVGID_25_" x="850.347" y="250.178" transform="matrix(-0.4226 -0.9063 0.9063 -0.4226 973.5196 1164.3245)" width="14.588" height="43.763"/>
		</defs>
		<clipPath id="SVGID_26_">
			<use xlink:href="#SVGID_25_"  overflow="visible"/>
		</clipPath>
		<g clip-path="url(#SVGID_26_)">
			<path fill="#FFF100" d="M841.27,286.058l-4.539-9.732l2.235-1.042l0.313,0.672l-1.404,0.654l3.912,8.39l1.404-0.655l0.313,0.671
				L841.27,286.058z"/>
		</g>
		<g clip-path="url(#SVGID_26_)">
			<path fill="#FFF100" d="M873.243,259.286l4.544,9.745l-2.234,1.042l-0.313-0.672l1.405-0.655l-3.918-8.401L871.321,261
				l-0.313-0.671L873.243,259.286z"/>
		</g>
		<g clip-path="url(#SVGID_26_)">
			<path fill="#231F20" d="M841.707,274.937c0.055,0.009,0.143,0.002,0.213-0.031c0.104-0.048,0.129-0.122,0.1-0.186
				c-0.033-0.068-0.09-0.086-0.215-0.077c-0.164,0.015-0.266-0.03-0.309-0.125c-0.061-0.126-0.006-0.277,0.162-0.355
				c0.08-0.037,0.16-0.047,0.215-0.041l0.014,0.12c-0.041-0.005-0.109-0.005-0.182,0.029c-0.084,0.039-0.109,0.11-0.082,0.167
				c0.031,0.065,0.092,0.072,0.211,0.063c0.16-0.011,0.262,0.024,0.316,0.14c0.064,0.139,0.002,0.285-0.184,0.371
				c-0.086,0.04-0.176,0.057-0.244,0.05L841.707,274.937z"/>
			<path fill="#231F20" d="M842.17,274.204c-0.039-0.081-0.07-0.147-0.105-0.209l0.125-0.058l0.064,0.124l0.006-0.002
				c0.008-0.095,0.049-0.199,0.178-0.259c0.107-0.05,0.219-0.023,0.295,0.053l0.004-0.001c0.004-0.055,0.02-0.103,0.039-0.143
				c0.031-0.057,0.074-0.101,0.148-0.135c0.104-0.048,0.289-0.052,0.416,0.22l0.215,0.461l-0.141,0.065l-0.205-0.443
				c-0.07-0.15-0.168-0.216-0.283-0.162c-0.08,0.038-0.115,0.127-0.107,0.208c0.002,0.022,0.01,0.05,0.021,0.076l0.225,0.484
				l-0.139,0.064l-0.219-0.469c-0.057-0.125-0.154-0.19-0.264-0.139c-0.088,0.042-0.121,0.143-0.109,0.225
				c0.002,0.024,0.01,0.051,0.021,0.075l0.219,0.473l-0.139,0.065L842.17,274.204z"/>
			<path fill="#231F20" d="M844.223,273.942l-0.057-0.093l-0.006,0.002c-0.016,0.082-0.074,0.176-0.186,0.228
				c-0.158,0.074-0.291,0-0.344-0.113c-0.088-0.189,0.031-0.372,0.334-0.511l-0.006-0.017c-0.031-0.064-0.104-0.172-0.264-0.098
				c-0.072,0.034-0.137,0.092-0.176,0.153l-0.076-0.079c0.045-0.072,0.125-0.144,0.225-0.189c0.238-0.112,0.375,0.024,0.447,0.182
				l0.137,0.293c0.031,0.068,0.066,0.133,0.1,0.181L844.223,273.942z M844.016,273.552c-0.156,0.07-0.32,0.18-0.25,0.333
				c0.043,0.092,0.125,0.106,0.197,0.072c0.104-0.048,0.137-0.143,0.129-0.22c-0.002-0.016-0.006-0.035-0.014-0.048L844.016,273.552
				z"/>
			<path fill="#231F20" d="M844.318,273.241c-0.041-0.092-0.082-0.171-0.119-0.241l0.125-0.058l0.076,0.152l0.006-0.003
				c-0.014-0.122,0.041-0.229,0.137-0.273c0.016-0.008,0.029-0.011,0.043-0.014l0.063,0.134c-0.016,0.004-0.031,0.01-0.051,0.019
				c-0.1,0.047-0.137,0.156-0.105,0.271c0.006,0.021,0.014,0.046,0.023,0.069l0.195,0.418l-0.141,0.065L844.318,273.241z"/>
			<path fill="#231F20" d="M844.801,272.445l0.105,0.225l0.205-0.095l0.051,0.108l-0.205,0.095l0.197,0.423
				c0.045,0.097,0.1,0.139,0.178,0.102c0.037-0.017,0.063-0.036,0.078-0.048l0.057,0.103c-0.023,0.024-0.063,0.053-0.117,0.078
				c-0.066,0.031-0.129,0.035-0.182,0.013c-0.061-0.024-0.107-0.086-0.15-0.179l-0.199-0.427l-0.121,0.056l-0.051-0.108l0.121-0.056
				l-0.088-0.188L844.801,272.445z"/>
			<path fill="#231F20" d="M845.547,272.88c0.092,0.19,0.252,0.213,0.395,0.146c0.102-0.048,0.156-0.094,0.197-0.143l0.072,0.09
				c-0.039,0.047-0.113,0.112-0.238,0.17c-0.24,0.112-0.459,0.021-0.568-0.215s-0.059-0.487,0.17-0.593
				c0.256-0.119,0.43,0.074,0.496,0.218c0.014,0.029,0.021,0.052,0.025,0.069L845.547,272.88z M845.916,272.584
				c-0.041-0.093-0.145-0.215-0.307-0.141c-0.143,0.067-0.145,0.229-0.109,0.334L845.916,272.584z"/>
			<path fill="#231F20" d="M846.199,272.365c-0.043-0.092-0.082-0.171-0.121-0.241l0.125-0.058l0.076,0.152l0.006-0.003
				c-0.012-0.122,0.043-0.229,0.137-0.273c0.018-0.007,0.029-0.011,0.043-0.014l0.063,0.134c-0.016,0.004-0.031,0.01-0.051,0.019
				c-0.1,0.047-0.135,0.156-0.105,0.271c0.006,0.021,0.014,0.046,0.025,0.07l0.193,0.418l-0.141,0.065L846.199,272.365z"/>
			<path fill="#231F20" d="M846.908,272.588c-0.029-0.061-0.008-0.121,0.049-0.147s0.115-0.003,0.143,0.057
				c0.027,0.059,0.01,0.119-0.049,0.146C846.994,272.671,846.936,272.647,846.908,272.588z"/>
			<path fill="#231F20" d="M847.018,271.412l0.104,0.225l0.205-0.095l0.051,0.108l-0.205,0.095l0.197,0.423
				c0.045,0.097,0.1,0.14,0.18,0.103c0.037-0.017,0.061-0.036,0.076-0.048l0.057,0.103c-0.021,0.024-0.063,0.053-0.117,0.078
				c-0.066,0.031-0.129,0.036-0.182,0.014c-0.061-0.024-0.107-0.087-0.15-0.18l-0.199-0.427l-0.121,0.057l-0.051-0.108l0.121-0.057
				l-0.086-0.188L847.018,271.412z"/>
			<path fill="#231F20" d="M847.762,271.847c0.092,0.19,0.252,0.213,0.395,0.146c0.104-0.047,0.156-0.094,0.199-0.142l0.07,0.09
				c-0.039,0.047-0.113,0.112-0.238,0.17c-0.24,0.112-0.457,0.021-0.568-0.215c-0.109-0.236-0.059-0.486,0.17-0.593
				c0.256-0.12,0.43,0.073,0.496,0.218c0.014,0.029,0.021,0.053,0.027,0.069L847.762,271.847z M848.131,271.551
				c-0.041-0.093-0.145-0.215-0.305-0.141c-0.145,0.067-0.146,0.229-0.109,0.334L848.131,271.551z"/>
			<path fill="#231F20" d="M848.129,270.722l0.143-0.066l0.537,1.148l-0.143,0.066L848.129,270.722z"/>
			<path fill="#231F20" d="M848.961,271.555c0.055,0.009,0.143,0.002,0.213-0.031c0.104-0.048,0.129-0.122,0.1-0.186
				c-0.033-0.068-0.09-0.086-0.213-0.077c-0.164,0.015-0.268-0.03-0.311-0.125c-0.059-0.126-0.006-0.277,0.162-0.355
				c0.08-0.037,0.16-0.047,0.215-0.041l0.014,0.12c-0.039-0.005-0.107-0.005-0.182,0.029c-0.084,0.039-0.107,0.11-0.082,0.167
				c0.031,0.065,0.092,0.072,0.211,0.063c0.16-0.011,0.262,0.024,0.316,0.141c0.064,0.139,0.002,0.284-0.184,0.371
				c-0.086,0.04-0.174,0.057-0.244,0.05L848.961,271.555z"/>
			<path fill="#231F20" d="M849.391,270.305l0.105,0.225l0.203-0.095l0.051,0.108l-0.203,0.095l0.197,0.423
				c0.045,0.097,0.1,0.14,0.178,0.103c0.037-0.018,0.063-0.036,0.078-0.048l0.057,0.103c-0.023,0.024-0.063,0.053-0.117,0.078
				c-0.066,0.031-0.131,0.036-0.182,0.013c-0.061-0.024-0.107-0.086-0.15-0.179l-0.199-0.427l-0.121,0.056l-0.051-0.108l0.121-0.056
				l-0.088-0.188L849.391,270.305z"/>
			<path fill="#231F20" d="M849.975,270.604c-0.041-0.092-0.08-0.171-0.119-0.241l0.125-0.058l0.076,0.152l0.006-0.003
				c-0.014-0.123,0.041-0.229,0.137-0.273c0.016-0.007,0.029-0.011,0.043-0.014l0.063,0.134c-0.016,0.004-0.031,0.01-0.051,0.019
				c-0.1,0.047-0.137,0.156-0.105,0.271c0.006,0.021,0.014,0.046,0.023,0.069l0.195,0.418l-0.141,0.066L849.975,270.604z"/>
			<path fill="#231F20" d="M851.191,270.693l-0.057-0.093l-0.006,0.002c-0.014,0.082-0.074,0.176-0.186,0.228
				c-0.158,0.074-0.291,0-0.344-0.113c-0.088-0.189,0.031-0.372,0.334-0.51l-0.006-0.017c-0.031-0.064-0.104-0.173-0.264-0.098
				c-0.072,0.034-0.139,0.092-0.176,0.153l-0.076-0.079c0.045-0.072,0.125-0.143,0.225-0.189c0.238-0.112,0.373,0.024,0.447,0.181
				l0.137,0.293c0.031,0.068,0.066,0.133,0.1,0.182L851.191,270.693z M850.984,270.302c-0.158,0.071-0.32,0.18-0.25,0.333
				c0.043,0.092,0.125,0.106,0.197,0.072c0.104-0.048,0.137-0.142,0.129-0.219c-0.002-0.016-0.006-0.035-0.014-0.049
				L850.984,270.302z"/>
			<path fill="#231F20" d="M851.467,270.462c-0.029-0.061-0.008-0.12,0.049-0.146s0.115-0.003,0.143,0.057
				c0.027,0.059,0.01,0.119-0.049,0.146C851.553,270.546,851.494,270.521,851.467,270.462z"/>
			<path fill="#231F20" d="M852.418,270.085c-0.027,0.037-0.098,0.101-0.203,0.15c-0.236,0.11-0.465,0.021-0.576-0.217
				c-0.113-0.242-0.029-0.493,0.227-0.612c0.086-0.039,0.17-0.054,0.217-0.052l0.02,0.125c-0.043-0.004-0.105,0.003-0.184,0.04
				c-0.18,0.084-0.215,0.262-0.139,0.424c0.086,0.182,0.254,0.239,0.408,0.166c0.082-0.037,0.125-0.083,0.156-0.12L852.418,270.085z
				"/>
			<path fill="#231F20" d="M853.125,269.307c0.135,0.29-0.008,0.51-0.197,0.598c-0.211,0.099-0.447,0.021-0.563-0.228
				c-0.123-0.262-0.023-0.496,0.193-0.597C852.785,268.975,853.014,269.067,853.125,269.307z M852.506,269.604
				c0.08,0.172,0.24,0.255,0.379,0.19c0.137-0.063,0.178-0.238,0.096-0.414c-0.063-0.133-0.205-0.271-0.375-0.192
				C852.438,269.267,852.438,269.456,852.506,269.604z"/>
			<path fill="#231F20" d="M853.225,269.049c-0.037-0.081-0.07-0.147-0.105-0.209l0.125-0.058l0.066,0.124l0.004-0.002
				c0.01-0.096,0.049-0.199,0.18-0.259c0.105-0.05,0.217-0.023,0.295,0.053l0.002-0.002c0.004-0.054,0.02-0.103,0.041-0.142
				c0.029-0.057,0.072-0.101,0.146-0.135c0.104-0.048,0.289-0.052,0.416,0.22l0.215,0.461l-0.139,0.065l-0.207-0.443
				c-0.07-0.15-0.166-0.216-0.281-0.162c-0.082,0.038-0.117,0.126-0.109,0.208c0.004,0.022,0.01,0.05,0.021,0.075l0.227,0.484
				l-0.139,0.065l-0.219-0.469c-0.059-0.125-0.156-0.19-0.264-0.139c-0.09,0.041-0.121,0.143-0.111,0.225
				c0.002,0.024,0.01,0.051,0.021,0.075l0.221,0.473l-0.139,0.065L853.225,269.049z"/>
			<path fill="#231F20" d="M854.771,268.921c-0.029-0.061-0.008-0.121,0.049-0.146c0.057-0.026,0.115-0.004,0.143,0.057
				c0.027,0.059,0.012,0.119-0.049,0.147C854.857,269.005,854.799,268.98,854.771,268.921z"/>
			<path fill="#231F20" d="M855.613,268.631l-0.057-0.093l-0.006,0.002c-0.014,0.082-0.074,0.176-0.186,0.228
				c-0.158,0.074-0.291,0-0.344-0.113c-0.088-0.189,0.031-0.371,0.336-0.511l-0.008-0.017c-0.031-0.064-0.102-0.172-0.262-0.098
				c-0.074,0.034-0.139,0.092-0.178,0.153l-0.076-0.079c0.045-0.072,0.125-0.143,0.225-0.189c0.24-0.111,0.375,0.024,0.447,0.182
				l0.137,0.293c0.031,0.068,0.066,0.133,0.1,0.182L855.613,268.631z M855.406,268.241c-0.156,0.07-0.32,0.18-0.25,0.332
				c0.043,0.092,0.125,0.106,0.197,0.072c0.104-0.048,0.137-0.142,0.129-0.219c-0.002-0.016-0.006-0.035-0.014-0.048
				L855.406,268.241z"/>
			<path fill="#231F20" d="M856.518,267.95c0.037,0.08,0.072,0.151,0.105,0.21l-0.127,0.059l-0.066-0.124l-0.004,0.001
				c-0.008,0.08-0.051,0.201-0.191,0.266c-0.123,0.057-0.301,0.058-0.43-0.217l-0.213-0.458l0.143-0.066l0.201,0.434
				c0.07,0.148,0.162,0.229,0.291,0.168c0.096-0.044,0.131-0.142,0.127-0.218c0-0.023-0.008-0.053-0.02-0.079l-0.225-0.48
				l0.143-0.066L856.518,267.95z"/>
		</g>
		<path clip-path="url(#SVGID_26_)" fill="#020000" d="M872.426,262.115c-0.522-0.19-0.938-0.152-1.442,0.083
			c-0.554,0.258-0.928,0.746-1.038,1.158l-0.23-0.494l-1.256,0.586l2.403,5.153l1.285-0.6l-1.448-3.106
			c-0.304-0.653-0.007-1.152,0.388-1.337c0.317-0.147,0.536-0.117,0.826-0.011L872.426,262.115z M866.227,268.113l3.226-1.504
			l-0.268-0.574c-0.66-1.414-1.96-2.084-3.395-1.415c-1.335,0.623-1.803,1.996-1.018,3.678c0.972,2.086,2.397,2.096,3.615,1.529
			c0.93-0.433,1.3-0.956,1.579-1.725l-1.136-0.397c-0.175,0.479-0.378,0.767-0.941,1.029
			C867.168,269.071,866.536,268.776,866.227,268.113 M865.816,267.232c-0.096-0.232-0.131-0.384-0.141-0.609
			c-0.004-0.371,0.178-0.732,0.612-0.935c0.436-0.203,0.828-0.109,1.11,0.133c0.166,0.151,0.261,0.275,0.377,0.498L865.816,267.232z
			 M863.198,267.61l0.91-0.425l-0.585-1.256l-0.91,0.425l-0.711-1.523l-1.285,0.599l0.688,1.477l-0.003,0.001
			c-0.28-0.007-0.552,0.061-0.854,0.202c-0.553,0.258-0.928,0.746-1.037,1.158l-0.229-0.494l-1.258,0.586l2.403,5.152l1.286-0.599
			l-1.448-3.106c-0.304-0.653-0.007-1.152,0.389-1.337c0.316-0.148,0.534-0.117,0.825-0.011v-0.001l0.533-0.249l1.063,2.276
			c0.341,0.732,1.132,1.266,2.18,0.777l0.703-0.328l-0.508-1.087l-0.465,0.216c-0.307,0.143-0.523,0.039-0.662-0.257L863.198,267.61
			z M858.576,274.329l1.257-0.586l-1.582-3.392c-0.563-1.207-1.601-1.47-3.045-0.797c-0.86,0.402-1.282,0.79-1.527,1.58l1.194,0.418
			c0.124-0.431,0.297-0.656,0.791-0.887c0.684-0.318,1.074-0.2,1.338,0.364l0.119,0.257l-1.216,0.568
			c-1.197,0.558-1.447,1.493-1.063,2.314c0.212,0.455,0.554,0.802,0.964,0.959c0.449,0.164,0.944,0.114,1.527-0.158
			c0.595-0.277,0.852-0.577,1.036-1.086L858.576,274.329z M857.661,272.444c0.148,0.316,0.195,0.547,0.117,0.74
			c-0.127,0.324-0.34,0.46-0.696,0.626c-0.504,0.235-0.852,0.108-1.019-0.248c-0.17-0.366-0.016-0.704,0.451-0.92l1.018-0.475
			L857.661,272.444z M853.957,276.483l1.286-0.6l-1.536-3.293c-0.262-0.564-0.637-0.98-1.246-1.201
			c-0.421-0.154-0.964-0.105-1.479,0.135c-0.643,0.3-1.016,0.714-1.238,1.372c-0.534-0.293-1.096-0.284-1.67-0.016
			c-0.475,0.221-0.862,0.631-1.037,1.133l-0.221-0.474l-1.256,0.586l2.402,5.152l1.286-0.599l-1.453-3.116
			c-0.326-0.702,0.018-1.151,0.423-1.34s0.962-0.16,1.288,0.543l1.453,3.115l1.286-0.6l-1.467-3.145
			c-0.314-0.672,0.041-1.127,0.438-1.311c0.404-0.189,0.961-0.159,1.287,0.543L853.957,276.483z M843.092,277.094
			c-0.12-0.257-0.014-0.596,0.5-0.836c0.446-0.208,0.938-0.34,1.359-0.212l0.417-1.17c-0.711-0.234-1.449-0.059-2.249,0.313
			c-1.049,0.489-1.721,1.501-1.223,2.569c0.442,0.95,1.206,1.088,2.177,0.744l0.848-0.299c0.425-0.15,0.646-0.037,0.766,0.22
			c0.181,0.387-0.215,0.752-0.66,0.959c-0.396,0.185-0.979,0.383-1.603,0.156l-0.447,1.233c0.957,0.349,1.73,0.096,2.542-0.282
			c1.216-0.567,1.932-1.563,1.401-2.701c-0.406-0.87-1.174-1.174-2.238-0.798l-0.849,0.299
			C843.359,277.462,843.179,277.282,843.092,277.094"/>
	</g>
	<g clip-path="url(#SVGID_2_)">
		<defs>
			<rect id="SVGID_27_" x="428.396" y="368.013" width="49.722" height="25.223"/>
		</defs>
		<clipPath id="SVGID_28_">
			<use xlink:href="#SVGID_27_"  overflow="visible"/>
		</clipPath>
		<path clip-path="url(#SVGID_28_)" fill="#272222" d="M435.804,377.496c0.275-0.237,0.579-0.439,0.913-0.593
			c0.575-0.262,1.196-0.372,1.826-0.372c1.34,0,2.616,0.355,3.541,1.37c0.949,1.046,1.231,2.465,1.231,3.838v5.815
			c0,0.662-0.527,0.561-1.35,0.561c-0.78,0-1.268,0.081-1.268-0.533v-5.411c0-0.767-0.095-1.763-0.58-2.394
			c-0.426-0.554-1.084-0.716-1.754-0.716c-0.752,0-1.427,0.21-1.863,0.85c-0.537,0.795-0.618,2.169-0.618,3.096v4.593
			c0,0.619-0.616,0.515-1.386,0.515c-0.769,0-1.222,0.11-1.222-0.529v-10.449c0-0.663,0.453-0.548,1.247-0.548
			c0.796,0,1.283-0.125,1.283,0.545V377.496z"/>
		<path clip-path="url(#SVGID_28_)" fill="#272222" d="M457.24,379.017h-1.505c-0.492,0-0.437-0.679-0.437-1.346
			c0-0.633-0.013-1.114,0.42-1.114h1.522v-2.739c0-0.541,0.334-0.696,1.299-0.696c0.965,0,1.299,0.14,1.299,0.696v2.739h1.241
			c0.637,0,0.631,0.365,0.631,1.253c0,0.821-0.018,1.207-0.575,1.207h-1.297v8.609c0,0.611-0.48,0.493-1.258,0.493
			c-0.718,0-1.34,0.089-1.34-0.477V379.017z"/>
		<path clip-path="url(#SVGID_28_)" fill="#1ABAEC" d="M453.044,380.206c-0.001,0.001-0.002,0.001-0.003,0.002
			c-0.014,0.01-0.029,0.017-0.043,0.026c-0.014,0.008-0.026,0.017-0.041,0.025l-0.667,0.366l-4.894,2.687
			c0.022,0.08,0.054,0.157,0.095,0.23c0.141,0.253,0.378,0.434,0.66,0.505c0.342,0.086,0.697-0.004,1.001-0.171l5.189-2.848
			c0.255-0.138,0.429-0.36,0.532-0.628c0.357-0.928-1.133-2.267-1.638-2.651c-0.567-0.432-1.195-0.744-1.848-0.939
			c0.118,0.077,0.233,0.159,0.347,0.245c0.637,0.484,1.158,1.081,1.567,1.768c0.181,0.261,0.257,0.559,0.14,0.863
			c-0.024,0.061-0.051,0.12-0.083,0.176C453.281,379.998,453.177,380.116,453.044,380.206"/>
		<path clip-path="url(#SVGID_28_)" fill="#45C5F0" d="M455.16,383.183c-0.142-0.264-0.366-0.449-0.653-0.535
			c-0.286-0.085-0.578-0.053-0.84,0.089c-0.263,0.141-0.447,0.363-0.534,0.65c-0.108,0.336-0.262,0.653-0.458,0.944v0.001v-0.001
			c-0.139,0.294-0.313,0.569-0.518,0.826c-0.037,0.044-0.073,0.088-0.112,0.131c-0.308,0.349-0.677,0.63-1.088,0.853
			c-0.2,0.107-0.408,0.198-0.621,0.269c-0.206,0.069-0.418,0.121-0.634,0.154c-0.029,0.005-0.058,0.01-0.087,0.014
			c-0.172,0.022-0.345,0.034-0.518,0.035c-0.288,0.003-0.575-0.026-0.858-0.086c-3.701-0.79-4.17-5.948-0.8-7.494
			c0.338-0.154,0.699-0.26,1.077-0.307l0.016-0.002c0.088-0.01,0.176-0.018,0.264-0.023c0,0,0.007,0,0.011,0
			c0.085-0.004,0.17-0.007,0.255-0.005h0.02c0.083,0.001,0.167,0.005,0.249,0.011c0.009,0.001,0.017,0.001,0.026,0.002
			c0.082,0.006,0.163,0.015,0.244,0.026c0.005,0.001,0.011,0.001,0.015,0.002c0.017,0.002,0.033,0.005,0.05,0.008
			c0.003,0,0.006,0,0.009,0c0,0,0.001,0,0.002,0.001c0.866,0.006,1.729,0.31,2.39,0.877l0.094,0.081l-0.109,0.059
			c-1.342,0.739-2.686,1.475-4.028,2.214c-0.295,0.162-0.531,0.411-0.627,0.738c-0.056,0.194-0.056,0.404-0.001,0.598l4.896-2.687
			l0.667-0.367c0.013-0.007,0.026-0.016,0.04-0.025c0.015-0.008,0.03-0.016,0.043-0.026c0,0,0.002-0.001,0.003-0.002
			c0.132-0.089,0.236-0.207,0.314-0.344c0.032-0.055,0.059-0.114,0.083-0.176c0.117-0.303,0.041-0.602-0.14-0.862
			c-0.409-0.688-0.93-1.284-1.567-1.769c-0.114-0.086-0.229-0.168-0.347-0.245c-2.209-0.661-4.715,0.011-6.208,1.925
			c-0.926,1.186-1.381,2.654-1.241,4.155c0.072,0.771,0.307,1.506,0.674,2.186c0.377,0.698,0.872,1.317,1.496,1.809
			c0.586,0.463,1.247,0.81,1.967,1.013c0.711,0.2,1.448,0.26,2.183,0.184c0.767-0.078,1.499-0.318,2.177-0.683
			c0.677-0.366,1.314-0.824,1.823-1.406c0.498-0.57,0.817-1.249,0.993-1.984C455.333,383.729,455.297,383.438,455.16,383.183"/>
		<path clip-path="url(#SVGID_28_)" fill="#0097C4" d="M449.357,378.708c-0.009-0.001-0.017-0.001-0.026-0.002
			c-0.083-0.006-0.166-0.01-0.249-0.011h-0.021c-0.084-0.001-0.169,0.001-0.255,0.005c0,0-0.007,0-0.01,0.001
			c-0.089,0.005-0.177,0.013-0.265,0.023l-0.016,0.002c-0.376,0.046-0.739,0.153-1.076,0.307c-3.37,1.545-2.902,6.704,0.799,7.493
			c0.284,0.061,0.571,0.089,0.858,0.087c0.174-0.002,0.346-0.014,0.519-0.036c0.029-0.004,0.058-0.009,0.086-0.013
			c0.217-0.034,0.429-0.085,0.635-0.154c0.213-0.072,0.421-0.162,0.621-0.27c0.411-0.222,0.78-0.504,1.088-0.852
			c0.038-0.043,0.075-0.087,0.112-0.132c0.205-0.256,0.378-0.532,0.517-0.825c-0.059,0.088-0.123,0.174-0.189,0.257
			c-0.298,0.371-0.668,0.666-1.085,0.891c-0.379,0.204-0.788,0.34-1.215,0.395c-0.415,0.054-0.834,0.042-1.244-0.046
			c-0.407-0.086-0.793-0.245-1.148-0.462c-0.988-0.604-1.704-2.025-1.674-3.174c0.044-1.695,1.386-3.21,3.074-3.419
			c0.16-0.02,0.321-0.029,0.482-0.028c-0.003-0.001-0.007-0.001-0.009-0.001c-0.022-0.004-0.044-0.006-0.065-0.009
			C449.52,378.724,449.439,378.714,449.357,378.708"/>
		<path clip-path="url(#SVGID_28_)" fill="#50C8F0" d="M467.889,387.912c0.179-0.057,0.357-0.124,0.537-0.2
			c0.711-0.308,1.356-0.74,1.904-1.295c0.541-0.549,0.966-1.19,1.276-1.897c0.279-0.641,0.433-1.317,0.466-2.012
			c0.005-0.099,0.008-0.199,0.008-0.298c0-0.053-0.001-0.105-0.001-0.156c-0.001-0.033-0.002-0.064-0.003-0.095
			c-0.028-0.726-0.187-1.431-0.481-2.098c-0.108-0.242-0.231-0.476-0.366-0.7c-0.259-0.439-0.573-0.844-0.939-1.208
			c-0.389-0.39-0.827-0.723-1.3-0.998c-0.032-0.017-0.06-0.034-0.091-0.051c-0.163-0.091-0.33-0.175-0.501-0.252
			c-0.072-0.032-0.143-0.061-0.215-0.09c0.005,0.001,0.01,0.001,0.015,0.002c-0.007-0.002-0.013-0.005-0.019-0.007
			c-0.231-0.031-0.464-0.045-0.7-0.045h-0.009h-0.007c-0.795,0.03-1.573,0.194-2.302,0.513c-0.686,0.301-1.314,0.715-1.844,1.246
			c-0.525,0.525-0.933,1.143-1.223,1.825c-0.306,0.713-0.447,1.472-0.447,2.246c0,0.794,0.141,1.575,0.458,2.305
			c0.295,0.687,0.715,1.306,1.251,1.827c0.53,0.516,1.152,0.917,1.836,1.2c0.621,0.257,1.277,0.394,1.946,0.425
			c0.009-0.001,0.017-0.003,0.026-0.005c-0.007,0-0.014,0-0.021,0C467.395,388.05,467.643,387.989,467.889,387.912 M466.839,386.593
			c-0.525,0-1.035-0.097-1.517-0.305c-0.469-0.202-0.891-0.483-1.25-0.844c-0.362-0.361-0.645-0.783-0.848-1.252
			c-0.207-0.482-0.303-0.992-0.303-1.516c0-0.53,0.1-1.045,0.307-1.533c0.199-0.471,0.478-0.898,0.844-1.26
			c0.359-0.361,0.781-0.643,1.25-0.845c0.482-0.207,0.991-0.304,1.517-0.304c0.112,0,0.224,0.004,0.335,0.013h-0.009
			c0.003,0.001,0.005,0.001,0.005,0.001c0.09-0.006,0.177-0.009,0.265-0.009c0.482,0,0.956,0.091,1.399,0.28
			c0.432,0.183,0.82,0.439,1.154,0.771c0.33,0.331,0.587,0.722,0.77,1.152c0.188,0.445,0.278,0.917,0.278,1.4
			c0,0.479-0.086,0.948-0.278,1.388c-0.106,0.248-0.237,0.481-0.393,0.698c-0.001,0.003-0.002,0.005-0.004,0.008
			c0.002-0.003,0.004-0.005,0.006-0.008c-0.191,0.375-0.436,0.716-0.733,1.016c-0.367,0.363-0.792,0.643-1.262,0.843
			C467.882,386.494,467.368,386.593,466.839,386.593"/>
		<path clip-path="url(#SVGID_28_)" fill="#1ABAEC" d="M472.772,380.081c-0.305-0.685-0.725-1.308-1.255-1.84
			c-0.528-0.528-1.145-0.948-1.827-1.254c-0.479-0.213-0.979-0.356-1.493-0.423c0.066,0.026,0.131,0.053,0.197,0.082
			c0.171,0.077,0.338,0.161,0.502,0.252c0.031,0.017,0.059,0.034,0.091,0.052c0.474,0.274,0.911,0.607,1.302,0.998
			c0.365,0.365,0.68,0.77,0.939,1.209c0.135,0.225,0.258,0.459,0.366,0.701c0.295,0.668,0.453,1.375,0.481,2.1
			c0.001,0.031,0.002,0.063,0.002,0.095c0.002,0.051,0.003,0.104,0.003,0.156c0,0.099-0.004,0.199-0.009,0.299
			c-0.033,0.695-0.188,1.372-0.466,2.014c-0.311,0.707-0.736,1.348-1.277,1.898c-0.55,0.556-1.195,0.988-1.907,1.297
			c-0.179,0.076-0.358,0.142-0.538,0.2c-0.238,0.074-0.477,0.133-0.72,0.177c0.091,0.004,0.183,0.006,0.275,0.006
			c0.785,0,1.558-0.145,2.28-0.457c0.687-0.297,1.307-0.715,1.834-1.248c0.521-0.529,0.933-1.148,1.23-1.828
			c0.31-0.705,0.458-1.456,0.458-2.226C473.242,381.56,473.09,380.797,472.772,380.081"/>
		<path clip-path="url(#SVGID_28_)" fill="#0097C4" d="M465.322,379.039c-0.47,0.202-0.892,0.483-1.25,0.844
			c-0.366,0.363-0.645,0.789-0.844,1.261c-0.206,0.487-0.306,1.003-0.306,1.532c0,0.524,0.095,1.034,0.302,1.516
			c0.203,0.469,0.486,0.891,0.848,1.252c0.358,0.36,0.78,0.642,1.25,0.844c0.481,0.207,0.991,0.304,1.517,0.304
			c0.528,0,1.042-0.099,1.532-0.305c0.469-0.201,0.895-0.48,1.261-0.843c0.296-0.298,0.539-0.636,0.729-1.008
			c-0.111,0.154-0.235,0.301-0.372,0.437c-0.334,0.331-0.722,0.588-1.154,0.771c-0.443,0.189-0.917,0.279-1.399,0.279
			c-0.48,0-0.946-0.088-1.387-0.278c-0.43-0.184-0.815-0.441-1.146-0.772c-0.33-0.329-0.588-0.716-0.77-1.143
			c-0.192-0.44-0.282-0.909-0.282-1.388c0-0.484,0.094-0.955,0.282-1.401c0.182-0.431,0.44-0.821,0.77-1.153
			c0.331-0.33,0.716-0.588,1.146-0.772c0.357-0.154,0.732-0.241,1.116-0.268c-0.108-0.009-0.217-0.014-0.327-0.014
			C466.313,378.734,465.803,378.831,465.322,379.039"/>
	</g>
	<g clip-path="url(#SVGID_2_)">
		<defs>
			<polygon id="SVGID_29_" points="401.69,5.984 401.712,418.508 938,418.508 937.977,5.984 			"/>
		</defs>
		<clipPath id="SVGID_30_">
			<use xlink:href="#SVGID_29_"  overflow="visible"/>
		</clipPath>
		<g clip-path="url(#SVGID_30_)">
			<path fill="#FFFFFF" d="M477.734,383.115c0.289-0.048,0.667-0.09,1.148-0.09c0.592,0,1.025,0.138,1.301,0.386
				c0.255,0.22,0.406,0.557,0.406,0.97c0,0.42-0.124,0.75-0.357,0.991c-0.317,0.337-0.833,0.509-1.418,0.509
				c-0.179,0-0.344-0.007-0.481-0.041v1.858h-0.599V383.115z M478.333,385.351c0.131,0.034,0.296,0.048,0.495,0.048
				c0.723,0,1.163-0.351,1.163-0.991c0-0.612-0.434-0.908-1.095-0.908c-0.261,0-0.461,0.021-0.563,0.048V385.351z"/>
		</g>
		<g clip-path="url(#SVGID_30_)">
			<path fill="#FFFFFF" d="M486.292,385.331c0,1.597-0.971,2.443-2.154,2.443c-1.225,0-2.085-0.95-2.085-2.354
				c0-1.473,0.915-2.436,2.153-2.436C485.473,382.984,486.292,383.954,486.292,385.331z M482.692,385.406
				c0,0.991,0.537,1.878,1.479,1.878c0.95,0,1.486-0.874,1.486-1.927c0-0.922-0.481-1.886-1.479-1.886
				C483.188,383.472,482.692,384.388,482.692,385.406z"/>
		</g>
		<g clip-path="url(#SVGID_30_)">
			<path fill="#FFFFFF" d="M488.661,387.698l-1.177-4.638h0.633l0.551,2.347c0.138,0.578,0.262,1.156,0.344,1.604h0.014
				c0.076-0.461,0.221-1.012,0.379-1.61l0.619-2.34h0.626l0.564,2.354c0.131,0.55,0.255,1.101,0.323,1.59h0.014
				c0.097-0.509,0.228-1.025,0.372-1.604l0.612-2.34h0.612l-1.314,4.638h-0.626l-0.585-2.416c-0.145-0.592-0.241-1.046-0.303-1.514
				h-0.014c-0.083,0.461-0.186,0.916-0.358,1.514l-0.66,2.416H488.661z"/>
			<path fill="#FFFFFF" d="M496.122,385.523h-1.803v1.672h2.009v0.502h-2.607v-4.638h2.505v0.502h-1.906v1.466h1.803V385.523z"/>
			<path fill="#FFFFFF" d="M497.104,383.122c0.303-0.062,0.736-0.097,1.148-0.097c0.641,0,1.054,0.117,1.343,0.379
				c0.233,0.206,0.364,0.523,0.364,0.881c0,0.612-0.386,1.018-0.874,1.184v0.021c0.358,0.124,0.571,0.454,0.682,0.936
				c0.151,0.646,0.261,1.094,0.357,1.273h-0.619c-0.076-0.131-0.179-0.53-0.31-1.108c-0.138-0.64-0.386-0.881-0.93-0.901h-0.563
				v2.009h-0.599V383.122z M497.702,385.234h0.612c0.64,0,1.046-0.351,1.046-0.881c0-0.599-0.434-0.86-1.066-0.867
				c-0.289,0-0.496,0.027-0.592,0.055V385.234z"/>
			<path fill="#FFFFFF" d="M503.204,385.523h-1.803v1.672h2.009v0.502h-2.607v-4.638h2.505v0.502h-1.906v1.466h1.803V385.523z"/>
			<path fill="#FFFFFF" d="M504.186,383.122c0.364-0.055,0.798-0.097,1.272-0.097c0.86,0,1.473,0.2,1.879,0.578
				c0.413,0.378,0.653,0.916,0.653,1.666c0,0.757-0.233,1.376-0.667,1.803c-0.434,0.434-1.149,0.668-2.051,0.668
				c-0.427,0-0.784-0.021-1.087-0.055V383.122z M504.784,387.223c0.151,0.027,0.371,0.034,0.605,0.034
				c1.279,0,1.975-0.716,1.975-1.968c0.007-1.094-0.612-1.789-1.879-1.789c-0.31,0-0.543,0.027-0.701,0.062V387.223z"/>
		</g>
		<g clip-path="url(#SVGID_30_)">
			<path fill="#FFFFFF" d="M517.243,383.122c0.261-0.055,0.674-0.097,1.094-0.097c0.599,0,0.984,0.104,1.273,0.337
				c0.24,0.179,0.385,0.454,0.385,0.819c0,0.447-0.296,0.84-0.784,1.019v0.014c0.44,0.11,0.956,0.475,0.956,1.163
				c0,0.399-0.158,0.702-0.392,0.929c-0.323,0.296-0.847,0.434-1.604,0.434c-0.413,0-0.729-0.028-0.929-0.055V383.122z
				 M517.842,385.021h0.543c0.634,0,1.005-0.331,1.005-0.778c0-0.543-0.413-0.757-1.019-0.757c-0.275,0-0.434,0.021-0.529,0.041
				V385.021z M517.842,387.244c0.116,0.021,0.289,0.027,0.502,0.027c0.619,0,1.19-0.227,1.19-0.901c0-0.633-0.544-0.895-1.197-0.895
				h-0.495V387.244z"/>
		</g>
		<g clip-path="url(#SVGID_30_)">
			<path fill="#FFFFFF" d="M523.033,387.698v-1.968l-1.466-2.67h0.681l0.654,1.28c0.179,0.351,0.316,0.633,0.461,0.957h0.014
				c0.131-0.303,0.289-0.605,0.468-0.957l0.668-1.28h0.681l-1.555,2.663v1.975H523.033z"/>
			<path fill="#FFFFFF" d="M528.06,383.569h-1.411v-0.509h3.434v0.509h-1.417v4.129h-0.605V383.569z"/>
			<path fill="#FFFFFF" d="M532.997,385.523h-1.803v1.672h2.009v0.502h-2.607v-4.638h2.505v0.502h-1.906v1.466h1.803V385.523z"/>
			<path fill="#FFFFFF" d="M533.979,383.06h0.599v4.136h1.981v0.502h-2.58V383.06z"/>
		</g>
		<g clip-path="url(#SVGID_30_)">
			<path fill="#FFFFFF" d="M542.223,386.968c0.269,0.165,0.66,0.303,1.073,0.303c0.612,0,0.971-0.323,0.971-0.792
				c0-0.433-0.248-0.681-0.874-0.922c-0.757-0.269-1.225-0.661-1.225-1.314c0-0.723,0.599-1.259,1.5-1.259
				c0.475,0,0.818,0.11,1.025,0.227l-0.165,0.489c-0.151-0.083-0.461-0.22-0.881-0.22c-0.634,0-0.874,0.378-0.874,0.695
				c0,0.434,0.282,0.647,0.922,0.895c0.784,0.303,1.184,0.681,1.184,1.363c0,0.715-0.53,1.335-1.624,1.335
				c-0.447,0-0.936-0.131-1.184-0.296L542.223,386.968z"/>
		</g>
		<g clip-path="url(#SVGID_30_)">
			<path fill="#FFFFFF" d="M547.483,383.569h-1.411v-0.509h3.434v0.509h-1.417v4.129h-0.605V383.569z"/>
			<path fill="#FFFFFF" d="M550.02,383.122c0.303-0.062,0.736-0.097,1.148-0.097c0.641,0,1.054,0.117,1.343,0.379
				c0.233,0.206,0.364,0.523,0.364,0.881c0,0.612-0.386,1.018-0.874,1.184v0.021c0.358,0.124,0.571,0.454,0.682,0.936
				c0.151,0.646,0.261,1.094,0.357,1.273h-0.619c-0.076-0.131-0.179-0.53-0.31-1.108c-0.138-0.64-0.386-0.881-0.93-0.901h-0.563
				v2.009h-0.599V383.122z M550.618,385.234h0.612c0.64,0,1.046-0.351,1.046-0.881c0-0.599-0.434-0.86-1.066-0.867
				c-0.289,0-0.496,0.027-0.592,0.055V385.234z"/>
			<path fill="#FFFFFF" d="M554.469,386.239l-0.482,1.459h-0.619l1.576-4.638h0.723l1.583,4.638h-0.641l-0.495-1.459H554.469z
				 M555.989,385.771l-0.454-1.335c-0.104-0.303-0.172-0.578-0.241-0.847h-0.014c-0.068,0.275-0.145,0.558-0.233,0.839l-0.454,1.342
				H555.989z"/>
		</g>
	</g>
	<g clip-path="url(#SVGID_2_)">
		<defs>
			<rect id="SVGID_31_" width="944.188" height="844.984"/>
		</defs>
		<clipPath id="SVGID_32_">
			<use xlink:href="#SVGID_31_"  overflow="visible"/>
		</clipPath>
		<path clip-path="url(#SVGID_32_)" fill="#F8B77C" d="M378.022,237.962c2.165,5.622,8.477,8.427,14.101,6.261l40.579-15.622
			c5.623-2.166,8.426-8.476,6.261-14.098l-4.309-11.2c-2.165-5.622-8.483-8.427-14.107-6.265l-40.575,15.622
			c-5.624,2.163-8.428,8.484-6.262,14.106L378.022,237.962z"/>
	</g>
</g>
</svg>
