<?xml version="1.0" encoding="utf-8"?>
<!-- Generator: Adobe Illustrator 16.0.0, SVG Export Plug-In . SVG Version: 6.00 Build 0)  -->
<!DOCTYPE svg PUBLIC "-//W3C//DTD SVG 1.1//EN" "http://www.w3.org/Graphics/SVG/1.1/DTD/svg11.dtd">
<svg version="1.1" id="Layer_1" xmlns="http://www.w3.org/2000/svg" xmlns:xlink="http://www.w3.org/1999/xlink" x="0px" y="0px"
	 width="986.727px" height="843.239px" viewBox="0 0 986.727 843.239" enable-background="new 0 0 986.727 843.239"
	 xml:space="preserve">
<g>
	<defs>
		<rect id="SVGID_1_" width="986.727" height="843.239"/>
	</defs>
	<clipPath id="SVGID_2_">
		<use xlink:href="#SVGID_1_"  overflow="visible"/>
	</clipPath>
	<polygon clip-path="url(#SVGID_2_)" fill="#F8B77C" points="372.342,374.565 347.547,474.196 431.352,502.753 451.65,403.897 	"/>
	<g clip-path="url(#SVGID_2_)">
		<defs>
			<rect id="SVGID_3_" width="986.727" height="843.239"/>
		</defs>
		<clipPath id="SVGID_4_">
			<use xlink:href="#SVGID_3_"  overflow="visible"/>
		</clipPath>
		<path clip-path="url(#SVGID_4_)" fill="#F8B77C" d="M391.12,208.674c7.516,0.583,13.02,7.463,12.308,15.362l5.575,90.873
			c-0.719,7.9-21.406,16.552-28.914,15.964c-7.509-0.585-21.256,28.444-20.547,20.544l16.687-129.503
			C376.947,214.017,383.612,208.086,391.12,208.674"/>
		<path clip-path="url(#SVGID_4_)" fill="#F8B77C" d="M529.167,291.306c16.698,15.134,18.132,41.905,3.212,59.795l-59.704,71.574
			c-14.925,17.893-40.552,20.125-57.25,4.99l-44.078-39.957c-16.69-15.138-18.124-41.909-3.2-59.802l59.704-71.572
			c14.921-17.891,40.548-20.122,57.246-4.986L529.167,291.306z"/>
		<path clip-path="url(#SVGID_4_)" fill="#514EA0" d="M466.274,462.409C423.637,638.345,349.547,755.453,246.07,810.471
			C133.599,870.265,29.289,832.47,0,819.457l55.635-130.385c15.819,7.026,72.106,27.492,131.892-4.297
			c64.879-34.492,116.003-122.186,147.844-253.576L466.274,462.409z"/>
	</g>
	<g clip-path="url(#SVGID_2_)">
		<defs>
			<rect id="SVGID_5_" x="401.644" y="4.239" width="536.356" height="413.251"/>
		</defs>
		<clipPath id="SVGID_6_">
			<use xlink:href="#SVGID_5_"  overflow="visible"/>
		</clipPath>
		<rect x="401.644" y="4.813" clip-path="url(#SVGID_6_)" fill="#00ABA9" width="532.081" height="412.677"/>
		<polygon clip-path="url(#SVGID_6_)" fill="#E2C59F" points="401.645,418.326 936.544,418.326 936.544,335.244 401.645,332.776 		
			"/>
		<polygon clip-path="url(#SVGID_6_)" fill="#F8B77C" points="842.573,124.249 842.891,135.963 852.992,136.542 852.203,125.05 		
			"/>
	</g>
	<g clip-path="url(#SVGID_2_)">
		<defs>
			<rect id="SVGID_7_" x="401.644" y="66.43" width="536.356" height="350.897"/>
		</defs>
		<clipPath id="SVGID_8_">
			<use xlink:href="#SVGID_7_"  overflow="visible"/>
		</clipPath>
		<path clip-path="url(#SVGID_8_)" fill="#F8B77C" d="M839.564,105.431c0.845-0.166,1.662,0.423,1.825,1.314l3.395,9.823
			c0.162,0.891-1.851,2.475-2.695,2.64c-0.845,0.164-1.471,3.777-1.635,2.886l-2.125-14.752
			C838.168,106.451,838.72,105.596,839.564,105.431"/>
		<path clip-path="url(#SVGID_8_)" fill="#F8B77C" d="M857.293,110.299c2.303,1.154,3.279,4.054,2.184,6.478l-4.385,9.696
			c-1.095,2.424-3.849,3.453-6.15,2.298l-6.076-3.047c-2.301-1.154-3.278-4.055-2.182-6.479l4.384-9.695
			c1.096-2.424,3.85-3.452,6.151-2.298L857.293,110.299z"/>
		<polygon clip-path="url(#SVGID_8_)" fill="#AA9477" points="925.764,424.917 859.018,348.588 774.302,348.588 771.174,348.352 
			847.738,424.917 		"/>
		<polygon clip-path="url(#SVGID_8_)" fill="#F0F8F9" points="902.205,109.317 892.921,75.804 865.838,83.289 868.667,96.472 
			875.122,116.802 		"/>
		<polygon clip-path="url(#SVGID_8_)" fill="#FFFFFF" points="848.096,124.485 875.178,116.999 865.947,83.681 838.864,91.166 		"/>
		<path clip-path="url(#SVGID_8_)" fill="#3C5568" d="M893.081,73.1l-27.926,7.719l0.168,0.608c0.344-0.095,0.711,0.15,0.82,0.548
			c0.023,0.08,0.024,0.159,0.023,0.237c-0.004,0.307-0.171,0.578-0.445,0.654l0.227,0.816l27.082-7.485l9.23,33.318L875.178,117
			l-0.352,1.702l1.135,1.125l29.532-8.162L895.186,74.46C894.909,73.459,893.971,72.854,893.081,73.1"/>
		<path clip-path="url(#SVGID_8_)" fill="#4E6F83" d="M865.323,81.427l-0.169-0.609l-27.933,7.721
			c-0.878,0.242-1.377,1.245-1.1,2.245l10.308,37.204l29.531-8.162L875.178,117l-27.083,7.485l-9.229-33.319l27.082-7.485
			l-0.227-0.816c-0.272,0.077-0.556-0.071-0.717-0.332c-0.042-0.065-0.08-0.135-0.103-0.215
			C864.791,81.92,864.98,81.521,865.323,81.427"/>
		<path clip-path="url(#SVGID_8_)" fill="#7FB4BA" d="M874.825,118.702c0.02,0.069,0.057,0.128,0.095,0.185
			c0.15,0.222,0.426,0.34,0.698,0.264l-0.344-1.242C874.932,118.003,874.73,118.357,874.825,118.702"/>
		<path clip-path="url(#SVGID_8_)" fill="#71A5A8" d="M877.021,117.402l0.345,1.242c0.273-0.076,0.45-0.318,0.464-0.586
			c0.004-0.068,0.005-0.137-0.014-0.207C877.721,117.507,877.366,117.307,877.021,117.402"/>
		<path clip-path="url(#SVGID_8_)" fill="#B4DADE" d="M866.928,87.22l0.83,2.997c0.022-0.006,0.042-0.008,0.065-0.01
			s0.047-0.003,0.071-0.001c0.009,0.002,0.018-0.001,0.025,0.001c0.013,0.002,0.023,0.011,0.036,0.015
			c0.023,0.007,0.046,0.016,0.066,0.027c0.021,0.013,0.04,0.028,0.058,0.044c0.011,0.008,0.023,0.013,0.034,0.024l1.392,1.542
			l1.354-1.716c0.089-0.112,0.232-0.16,0.369-0.123c0.139,0.037,0.239,0.152,0.26,0.292l0.3,2.212l1.742-0.435
			c0.134-0.034,0.273,0.014,0.36,0.12c0.086,0.106,0.104,0.253,0.043,0.376l-1.011,2.076c-0.046,0.095-0.129,0.16-0.223,0.186
			c-0.08,0.022-0.168,0.016-0.248-0.023c-0.175-0.085-0.249-0.295-0.163-0.471l0.681-1.397l-1.394,0.347
			c-0.097,0.024-0.2,0.006-0.283-0.051c-0.083-0.055-0.137-0.145-0.151-0.243l-0.241-1.779l-1.101,1.393
			c-0.063,0.081-0.161,0.131-0.264,0.134c-0.105,0.004-0.205-0.039-0.275-0.117l-1.199-1.328l1.21,5.563l2.685,8.494l1.162-0.321
			l-2.798-10.1c-0.053-0.187,0.057-0.38,0.245-0.433l0.396-0.109c0.188-0.052,0.382,0.058,0.434,0.245l2.799,10.1l0.48-0.133
			c0.563-0.156,0.895-0.737,0.739-1.302l-0.583-2.103c2.155-2.037,3.141-5.166,2.294-8.223C875.905,88.583,871.34,86,866.928,87.22"
			/>
		<path clip-path="url(#SVGID_8_)" fill="#C6E3E5" d="M868.062,91.312l-0.345,1.756c-0.021,0.102-0.084,0.19-0.176,0.241
			c-0.089,0.05-0.198,0.057-0.296,0.02l-1.661-0.63l0.709,1.65c0.039,0.092,0.038,0.196-0.004,0.287
			c-0.043,0.091-0.122,0.16-0.218,0.189l-1.373,0.418l1.303,0.849c0.162,0.106,0.208,0.324,0.103,0.487
			c-0.048,0.074-0.121,0.125-0.201,0.147c-0.094,0.026-0.199,0.013-0.287-0.044l-1.935-1.263c-0.114-0.074-0.177-0.208-0.156-0.345
			c0.018-0.135,0.115-0.247,0.246-0.287l1.719-0.521l-0.879-2.053c-0.056-0.13-0.029-0.28,0.069-0.382
			c0.099-0.102,0.248-0.136,0.38-0.085l2.045,0.777l0.401-2.037c0.003-0.015,0.012-0.026,0.015-0.038
			c0.008-0.023,0.016-0.045,0.028-0.067c0.013-0.021,0.025-0.038,0.043-0.058c0.008-0.009,0.013-0.022,0.023-0.031
			c0.006-0.006,0.014-0.008,0.021-0.013c0.019-0.016,0.04-0.026,0.062-0.037c0.021-0.01,0.039-0.019,0.06-0.025l-0.83-2.996
			c-4.411,1.219-6.997,5.779-5.777,10.185c0.847,3.057,3.304,5.234,6.201,5.874l0.583,2.104c0.157,0.564,0.739,0.893,1.303,0.737
			l0.481-0.133l-2.799-10.1c-0.051-0.187,0.059-0.381,0.246-0.433l0.396-0.109c0.188-0.053,0.383,0.057,0.434,0.245l2.798,10.1
			l1.162-0.321L868.062,91.312L868.062,91.312z"/>
		<path clip-path="url(#SVGID_8_)" fill="#93C4CC" d="M872.85,109.79l0.462,0.471l0.68-0.188c0.563-0.155,0.894-0.738,0.737-1.3
			l-0.025-0.095l-1.7,0.47L872.85,109.79z"/>
		<path clip-path="url(#SVGID_8_)" fill="#93C4CC" d="M871.303,109.617l0.026,0.095c0.156,0.562,0.739,0.892,1.302,0.736
			l0.681-0.187l-0.309-1.114L871.303,109.617z"/>
		<path clip-path="url(#SVGID_8_)" fill="#93C4CC" d="M874.932,105.544l-2.719,0.751l0.001,1.197l0.789,1.655l1.7-0.469l1.019-0.282
			c0.563-0.156,0.896-0.738,0.739-1.301l-0.227-0.815C876.079,105.717,875.496,105.389,874.932,105.544"/>
		<path clip-path="url(#SVGID_8_)" fill="#93C4CC" d="M869.494,107.047c-0.563,0.156-0.894,0.738-0.738,1.3l0.227,0.816
			c0.155,0.562,0.738,0.892,1.302,0.736l1.02-0.282l1.698-0.47l-0.48-1.739l-0.309-1.112L869.494,107.047z"/>
		<path clip-path="url(#SVGID_8_)" fill="#93C4CC" d="M867.563,95.345l-0.396,0.109c-0.188,0.053-0.297,0.246-0.246,0.434
			l2.799,10.1l1.075-0.298l-2.797-10.1C867.945,95.403,867.751,95.293,867.563,95.345"/>
		<path clip-path="url(#SVGID_8_)" fill="#93C4CC" d="M870.962,94.405l-0.396,0.109c-0.188,0.053-0.297,0.246-0.246,0.434
			l2.799,10.1l1.075-0.298l-2.798-10.099C871.344,94.463,871.149,94.353,870.962,94.405"/>
		<path clip-path="url(#SVGID_8_)" fill="#93C4CC" d="M867.698,90.241c-0.022,0.011-0.043,0.021-0.062,0.036
			c-0.007,0.006-0.015,0.007-0.021,0.013c-0.011,0.009-0.015,0.022-0.024,0.032c-0.017,0.019-0.029,0.037-0.044,0.058
			c-0.011,0.022-0.018,0.044-0.026,0.067c-0.003,0.013-0.014,0.023-0.016,0.037l-0.399,2.038l-2.046-0.777
			c-0.132-0.051-0.281-0.018-0.379,0.085c-0.1,0.102-0.126,0.252-0.071,0.382l0.881,2.052l-1.72,0.522
			c-0.13,0.039-0.229,0.152-0.246,0.287c-0.021,0.137,0.041,0.27,0.156,0.345l1.935,1.262c0.089,0.058,0.193,0.07,0.287,0.045
			c0.08-0.023,0.153-0.072,0.201-0.147c0.106-0.163,0.061-0.381-0.103-0.488l-1.303-0.849l1.373-0.417
			c0.096-0.029,0.175-0.098,0.218-0.189c0.041-0.091,0.043-0.195,0.003-0.287l-0.707-1.65l1.66,0.63
			c0.097,0.037,0.207,0.03,0.296-0.021c0.092-0.05,0.155-0.139,0.176-0.24l0.345-1.756l0.209-0.536l-0.513-0.559
			C867.737,90.222,867.719,90.231,867.698,90.241"/>
		<path clip-path="url(#SVGID_8_)" fill="#93C4CC" d="M869.262,92.64c0.069,0.077,0.169,0.12,0.274,0.116
			c0.103-0.003,0.199-0.051,0.264-0.133l1.1-1.394l0.242,1.779c0.014,0.1,0.069,0.188,0.152,0.243
			c0.083,0.057,0.186,0.077,0.282,0.052l1.393-0.347l-0.68,1.397c-0.086,0.175-0.013,0.386,0.162,0.471
			c0.08,0.039,0.169,0.044,0.248,0.022c0.095-0.026,0.178-0.09,0.224-0.185l1.011-2.077c0.061-0.123,0.044-0.269-0.044-0.376
			c-0.086-0.106-0.225-0.153-0.359-0.119l-1.742,0.435l-0.302-2.212c-0.019-0.14-0.119-0.255-0.258-0.292
			c-0.137-0.038-0.281,0.01-0.369,0.122l-1.354,1.716l-1.393-1.542c-0.01-0.01-0.022-0.015-0.032-0.024
			c-0.018-0.016-0.036-0.03-0.059-0.043c-0.021-0.012-0.043-0.02-0.066-0.028c-0.013-0.003-0.022-0.012-0.036-0.014
			c-0.009-0.002-0.018,0.001-0.024-0.001c-0.025-0.003-0.049-0.001-0.073,0.001c-0.022,0.001-0.043,0.003-0.063,0.009l0.303,1.096
			L869.262,92.64z"/>
		<polygon clip-path="url(#SVGID_8_)" fill="#F8B77C" points="739.967,122.274 739.632,133.989 728.979,134.568 729.812,123.076 		
			"/>
		<path clip-path="url(#SVGID_8_)" fill="#F8B77C" d="M724.443,108.324c-2.427,1.154-3.457,4.054-2.302,6.478l4.622,9.696
			c1.156,2.424,4.06,3.453,6.487,2.298l6.407-3.047c2.427-1.155,3.456-4.055,2.301-6.479l-4.622-9.695
			c-1.156-2.424-4.061-3.452-6.487-2.298L724.443,108.324z"/>
		<polygon clip-path="url(#SVGID_8_)" fill="#D3ECEB" points="722.988,116.58 719.979,110.269 725.252,106.924 744.487,98.611 
			747.495,104.921 		"/>
		<polygon clip-path="url(#SVGID_8_)" fill="#C2E2DE" points="716.904,103.819 741.411,92.161 744.488,98.611 719.979,110.268 		"/>
		<path clip-path="url(#SVGID_8_)" fill="#445E73" d="M745.525,98.66c-0.15,0.073-0.318,0.052-0.454-0.028
			c-0.082-0.048-0.155-0.111-0.201-0.204l-0.531-0.582l0.147,0.765l3.009,6.312l-24.507,11.657l-3.01-6.311l-1.88,0.058
			l-1.673,1.633l3.128,6.563c0.367,0.768,1.271,1.104,2.016,0.75l27.069-12.876c0.746-0.355,1.053-1.266,0.687-2.035l-3.129-6.563
			l-0.525-0.586l0.086,0.794C745.873,98.25,745.77,98.543,745.525,98.66"/>
		<path clip-path="url(#SVGID_8_)" fill="#3C5568" d="M740.983,90.339l-27.07,12.876c-0.743,0.354-1.05,1.275-0.686,2.038
			l3.198,6.706l3.554-1.69l-3.075-6.45l24.508-11.657l3.075,6.449l0.384-0.183c-0.044-0.092-0.046-0.19-0.033-0.285
			c0.024-0.153,0.113-0.296,0.266-0.368c0.243-0.117,0.537-0.014,0.654,0.231v0.001l0.438-0.209l-3.198-6.707
			C742.635,90.329,741.729,89.985,740.983,90.339"/>
		<path clip-path="url(#SVGID_8_)" fill="#FF6648" d="M745.525,98.66c-0.15,0.073-0.318,0.052-0.454-0.028
			c-0.082-0.048-0.155-0.111-0.201-0.204l0.308-0.496l0.579,0.075C745.873,98.25,745.77,98.543,745.525,98.66"/>
		<path clip-path="url(#SVGID_8_)" fill="#E54B3D" d="M745.757,98.006L745.757,98.006l-0.885,0.421
			c-0.044-0.092-0.047-0.188-0.034-0.284c0.024-0.153,0.113-0.296,0.266-0.369C745.347,97.658,745.641,97.761,745.757,98.006"/>
		<path clip-path="url(#SVGID_8_)" fill="#D3ECEB" d="M718.69,112.251c-0.386,0.184-0.805,0.131-1.148-0.071
			c-0.205-0.12-0.39-0.281-0.501-0.514l0.772-1.254l1.462,0.191C719.567,111.22,719.308,111.958,718.69,112.251"/>
		<path clip-path="url(#SVGID_8_)" fill="#C2E2DE" d="M719.274,110.602l0.001,0.002l-2.234,1.063l-0.001-0.001
			c-0.111-0.233-0.119-0.478-0.085-0.715c0.061-0.39,0.284-0.751,0.671-0.934C718.242,109.723,718.979,109.984,719.274,110.602"/>
		<path clip-path="url(#SVGID_8_)" fill="#F8B77C" d="M729.528,93.515c-0.622,0.296-0.887,1.038-0.589,1.66l2.136,4.48
			c0.296,0.621,1.039,0.885,1.661,0.589l1.237-0.589c0.622-0.295,0.887-1.039,0.591-1.659l-2.137-4.481
			c-0.295-0.621-1.041-0.885-1.662-0.589L729.528,93.515z"/>
		<path clip-path="url(#SVGID_8_)" fill="#F8B77C" d="M725.626,95.371c-0.622,0.296-0.886,1.038-0.59,1.66l2.136,4.48
			c0.297,0.62,1.039,0.885,1.662,0.589l1.238-0.589c0.622-0.296,0.886-1.039,0.59-1.659l-2.137-4.481
			c-0.296-0.621-1.04-0.885-1.661-0.589L725.626,95.371z"/>
		<path clip-path="url(#SVGID_8_)" fill="#F8B77C" d="M721.573,97.299c-0.622,0.295-0.887,1.038-0.59,1.66l2.137,4.48
			c0.296,0.621,1.04,0.884,1.661,0.589l1.238-0.589c0.622-0.296,0.887-1.039,0.59-1.659l-2.136-4.482
			c-0.296-0.621-1.04-0.884-1.663-0.588L721.573,97.299z"/>
		<path clip-path="url(#SVGID_8_)" fill="#F8B77C" d="M717.597,99.19c-0.622,0.296-0.887,1.039-0.591,1.66l2.138,4.481
			c0.296,0.621,1.039,0.884,1.661,0.588l1.238-0.588c0.622-0.296,0.887-1.039,0.59-1.66l-2.137-4.481
			c-0.297-0.621-1.041-0.884-1.661-0.589L717.597,99.19z"/>
		<path clip-path="url(#SVGID_8_)" fill="#F8B77C" d="M742.063,103.326c-0.902-0.104-1.716,0.54-1.821,1.441l-2.825,10.041
			c-0.104,0.9,2.134,2.336,3.034,2.44c0.901,0.104,1.832,3.662,1.938,2.762l1.118-14.866
			C743.609,104.244,742.964,103.43,742.063,103.326"/>
		<path clip-path="url(#SVGID_8_)" fill="#514EA0" d="M727.113,129.064c-0.727,20.652,4.098,35.795,14.338,45.009
			c11.13,10.013,24.461,9.044,28.281,8.508l-2.253-16.039c-2.063,0.289-9.259,0.819-15.175-4.504
			c-6.421-5.776-9.528-16.983-8.985-32.406L727.113,129.064z"/>
		<path clip-path="url(#SVGID_8_)" fill="#333333" d="M803.009,335.278c0,0,0.04-1.587,3.219-1.099
			c3.178,0.488,5.215,1.017,6.397,0.814c1.181-0.203,1.181,3.176,0.979,3.298c-0.205,0.121-5.095,0.814-5.421,0.691
			C807.857,338.859,803.009,335.278,803.009,335.278"/>
		<path clip-path="url(#SVGID_8_)" fill="#D6CCC0" d="M802.153,340.895c0,0-1.549,1.058-1.019,3.865
			c0.244,1.018,3.172,0.704,9.201,3.513c6.031,2.807,14.104,5.18,23.107,0.378c0.938-0.49,1.672-4.274-1.588-4.559
			S802.153,340.895,802.153,340.895"/>
		<path clip-path="url(#SVGID_8_)" fill="#F8B77C" d="M815.083,337.964c0,0.743-0.695,1.343-1.556,1.343h-7.556
			c-0.86,0-1.559-0.6-1.559-1.343v-10.338c0-0.741,0.698-1.343,1.559-1.343h7.556c0.86,0,1.556,0.602,1.556,1.343V337.964z"/>
		<path clip-path="url(#SVGID_8_)" fill="#4A4A4A" d="M803.009,335.278c0,0-1.344,4.925-1.304,6.065
			c3.748,1.14,2.602,0.662,6.309,2.413c3.709,1.75,18.504,6.685,24.982,1.272c0.814-0.814-0.978-5.583-10.064-7.781
			c-1.752-0.69-4.398-3.474-5.416-4.94c-1.712-0.488-4.238,1.302-7.254,4.07C807.246,339.145,803.131,333.976,803.009,335.278"/>
		<path clip-path="url(#SVGID_8_)" fill="#D65037" d="M819.715,339.188c-0.008-0.014-0.498-0.887-0.311-1.991
			c-0.444,0.112-0.908,0.272-1.363,0.499c-0.084,0.042-0.183,0.041-0.265-0.004s-0.138-0.127-0.148-0.22
			c-0.061-0.551-0.034-1.061,0.081-1.542c-0.083,0.008-0.164,0.018-0.249,0.026c-0.599,0.061-1.282,0.13-2.064,0.198
			c-0.113,0.011-0.216-0.045-0.272-0.138c-0.055-0.095-0.053-0.212,0.007-0.304c1.363-2.066,3.931-1.959,4.036-1.959
			c0.113,0.007,0.211,0.078,0.253,0.183c0.04,0.106,0.016,0.226-0.064,0.306c-0.333,0.33-0.591,0.671-0.784,1.03
			c0.904-0.078,1.578-0.105,2.13-0.007c0.106,0.019,0.192,0.096,0.223,0.2c0.031,0.103,0.002,0.215-0.078,0.289
			c-0.244,0.231-0.427,0.465-0.564,0.696c1.011-0.127,1.755-0.045,1.807-0.038c0.157,0.019,0.27,0.16,0.25,0.317
			c-0.018,0.156-0.155,0.27-0.316,0.25c-0.014-0.002-0.884-0.095-2.007,0.091c-0.272,0.983,0.171,1.785,0.197,1.833
			c0.077,0.137,0.031,0.311-0.105,0.39c-0.045,0.025-0.095,0.038-0.144,0.038C819.863,339.33,819.769,339.279,819.715,339.188
			 M820.051,335.774c-0.462-0.009-1.025,0.027-1.729,0.095c-0.109,0.357-0.16,0.735-0.152,1.136
			c0.482-0.204,0.963-0.345,1.414-0.439C819.692,336.305,819.843,336.039,820.051,335.774 M818.479,334.365
			c-0.66,0.089-1.688,0.357-2.468,1.158c0.508-0.047,0.971-0.094,1.391-0.137c0.173-0.018,0.341-0.034,0.502-0.05
			C818.046,334.998,818.236,334.676,818.479,334.365"/>
		<path clip-path="url(#SVGID_8_)" fill="#3A3A3A" d="M777.393,335.278c0,0-0.041-1.587-3.22-1.099
			c-3.179,0.488-5.216,1.017-6.397,0.814c-1.182-0.203-1.182,3.176-0.979,3.298c0.205,0.121,5.096,0.814,5.421,0.691
			C772.543,338.859,777.393,335.278,777.393,335.278"/>
		<path clip-path="url(#SVGID_8_)" fill="#D6CCC0" d="M778.247,340.895c0,0,1.549,1.058,1.02,3.865
			c-0.245,1.018-3.173,0.704-9.202,3.513c-6.031,2.807-14.104,5.18-23.107,0.378c-0.938-0.49-1.672-4.274,1.588-4.559
			S778.247,340.895,778.247,340.895"/>
		<path clip-path="url(#SVGID_8_)" fill="#FCC287" d="M765.316,337.964c0,0.743,0.697,1.343,1.557,1.343h7.556
			c0.86,0,1.559-0.6,1.559-1.343v-10.338c0-0.741-0.698-1.343-1.559-1.343h-7.556c-0.859,0-1.557,0.602-1.557,1.343V337.964z"/>
		<path clip-path="url(#SVGID_8_)" fill="#565658" d="M777.393,335.278c0,0,1.344,4.925,1.303,6.065
			c-3.748,1.14-2.602,0.662-6.309,2.413c-3.707,1.75-18.504,6.685-24.983,1.272c-0.815-0.814,0.979-5.583,10.065-7.781
			c1.753-0.69,4.398-3.474,5.416-4.94c1.712-0.488,4.238,1.302,7.254,4.07C773.154,339.145,777.27,333.976,777.393,335.278"/>
		<path clip-path="url(#SVGID_8_)" fill="#E1593C" d="M760.438,339.33c-0.049,0-0.098-0.013-0.142-0.038
			c-0.138-0.078-0.185-0.253-0.106-0.39c0.027-0.047,0.468-0.849,0.196-1.833c-1.123-0.186-1.992-0.093-2.006-0.09
			c-0.161,0.019-0.3-0.095-0.317-0.251c-0.018-0.156,0.094-0.298,0.25-0.317c0.053-0.007,0.796-0.088,1.806,0.038
			c-0.136-0.23-0.319-0.465-0.564-0.696c-0.078-0.074-0.108-0.185-0.076-0.289c0.03-0.103,0.117-0.181,0.223-0.199
			c0.553-0.099,1.228-0.072,2.129,0.007c-0.19-0.359-0.451-0.7-0.783-1.031c-0.08-0.079-0.106-0.2-0.065-0.305
			c0.042-0.106,0.139-0.177,0.253-0.183c0.106,0,2.673-0.107,4.036,1.959c0.06,0.092,0.064,0.209,0.007,0.303
			c-0.056,0.094-0.158,0.15-0.27,0.139c-0.785-0.068-1.468-0.138-2.066-0.199c-0.085-0.008-0.168-0.017-0.25-0.026
			c0.116,0.481,0.143,0.991,0.081,1.543c-0.01,0.093-0.064,0.174-0.146,0.219c-0.083,0.045-0.183,0.047-0.267,0.005
			c-0.454-0.228-0.919-0.387-1.364-0.5c0.188,1.104-0.302,1.978-0.309,1.992C760.632,339.279,760.536,339.33,760.438,339.33
			 M760.814,336.566c0.451,0.095,0.934,0.235,1.414,0.44c0.01-0.402-0.042-0.779-0.151-1.137c-0.701-0.067-1.267-0.103-1.729-0.094
			C760.557,336.04,760.707,336.305,760.814,336.566 M762.496,335.336c0.161,0.016,0.328,0.033,0.504,0.05
			c0.419,0.044,0.88,0.091,1.389,0.138c-0.78-0.802-1.807-1.07-2.467-1.159C762.164,334.677,762.354,334.999,762.496,335.336"/>
		<polygon clip-path="url(#SVGID_8_)" fill="#F8B77C" points="797.467,156.453 790.455,156.453 789.692,161.176 790.455,165.979 
			797.467,165.979 		"/>
		<rect x="783.431" y="156.453" clip-path="url(#SVGID_8_)" fill="#FCC287" width="7.025" height="9.526"/>
		<path clip-path="url(#SVGID_8_)" fill="#FDF47A" d="M777.598,323.997H763.62v-89.904l23.521,3.169c0,0-1.087,0.848-3.799,7.14
			C779.648,252.977,777.598,323.997,777.598,323.997"/>
		<path clip-path="url(#SVGID_8_)" fill="#FDF47A" d="M803.314,323.997h13.977v-89.904l-23.523,3.169c0,0,1.091,0.848,3.801,7.14
			C801.263,252.977,803.314,323.997,803.314,323.997"/>
		<path clip-path="url(#SVGID_8_)" fill="#FCF14D" d="M763.62,213.455v22.156c0,0,20.124,1.524,26.835,1.524l0.764-9.661
			l-0.764-14.019H763.62z"/>
		<path clip-path="url(#SVGID_8_)" fill="#FCF14D" d="M790.456,213.455v23.68c6.711,0,26.835-1.524,26.835-1.524v-22.156H790.456z"
			/>
		<path clip-path="url(#SVGID_8_)" fill="#E2C59F" d="M779.825,330.475c0,0.421-0.332,0.762-0.741,0.762h-17.307
			c-0.41,0-0.741-0.341-0.741-0.762v-5.715c0-0.421,0.331-0.763,0.741-0.763h17.307c0.409,0,0.741,0.342,0.741,0.763V330.475z"/>
		<path clip-path="url(#SVGID_8_)" fill="#E2C59F" d="M819.539,330.475c0,0.421-0.332,0.762-0.741,0.762h-17.306
			c-0.41,0-0.742-0.341-0.742-0.762v-5.715c0-0.421,0.332-0.763,0.742-0.763h17.306c0.409,0,0.741,0.342,0.741,0.763V330.475z"/>
		<path clip-path="url(#SVGID_8_)" fill="#514EA0" d="M769.824,165.598c-4.76,0-8.619,3.544-8.619,9.795l0.126,61.743l29.261-5.499
			l0.763-36.394l-0.763-29.645H769.824z"/>
		<path clip-path="url(#SVGID_8_)" fill="#514EA0" d="M819.874,175.393c0-6.252-3.857-9.795-8.618-9.795h-20.801v34.111l-4.793,8.37
			v22.641l33.915,6.415L819.874,175.393z"/>
		<polygon clip-path="url(#SVGID_8_)" fill="#D6CCC0" points="790.448,164.835 789.686,172.099 790.448,197.272 790.471,197.332 
			804.921,165.598 		"/>
		<polygon clip-path="url(#SVGID_8_)" fill="#E1D5C9" points="776.263,165.598 790.448,197.273 790.448,164.836 		"/>
		<path clip-path="url(#SVGID_8_)" fill="#FFF200" d="M789.646,163.84c-1.445,0-2.618,1.172-2.618,2.617v1.6
			c0,1.443,1.173,2.615,2.618,2.615h0.801l0.765-3.416l-0.765-3.416H789.646z"/>
		<path clip-path="url(#SVGID_8_)" fill="#FFF200" d="M791.25,163.84h-0.802v6.832h0.802c1.445,0,2.618-1.172,2.618-2.615v-1.6
			C793.868,165.012,792.695,163.84,791.25,163.84"/>
		<polygon clip-path="url(#SVGID_8_)" fill="#FFF200" points="800.021,161.994 790.448,167.256 800.021,172.517 		"/>
		<polygon clip-path="url(#SVGID_8_)" fill="#FFF200" points="780.875,161.994 790.448,167.256 780.875,172.517 		"/>
		<polygon clip-path="url(#SVGID_8_)" fill="#282750" points="776.263,165.598 771.786,165.598 771.786,179.212 776.279,180.401 
			774.3,185.495 789.4,199.709 790.448,197.273 		"/>
		<polygon clip-path="url(#SVGID_8_)" fill="#3D3B78" points="804.876,165.598 809.352,165.598 809.352,179.212 804.857,180.401 
			806.839,185.495 785.662,208.079 		"/>
		<path clip-path="url(#SVGID_8_)" fill="#F4E95B" d="M793.215,212.068c0,1.526-1.237,2.764-2.767,2.764
			c-1.528,0-2.767-1.238-2.767-2.764s1.238-2.764,2.767-2.764C791.978,209.304,793.215,210.542,793.215,212.068"/>
		<path clip-path="url(#SVGID_8_)" fill="#FFFA99" d="M793.215,212.068c0-1.526-1.237-2.764-2.767-2.764v5.528
			C791.978,214.832,793.215,213.594,793.215,212.068"/>
		<path clip-path="url(#SVGID_8_)" fill="#F4E95B" d="M793.215,223.954c0,1.526-1.237,2.764-2.767,2.764
			c-1.528,0-2.767-1.238-2.767-2.764c0-1.526,1.238-2.764,2.767-2.764C791.978,221.19,793.215,222.428,793.215,223.954"/>
		<path clip-path="url(#SVGID_8_)" fill="#FFFA99" d="M793.215,223.954c0-1.526-1.237-2.764-2.767-2.764v5.528
			C791.978,226.718,793.215,225.48,793.215,223.954"/>
		<path clip-path="url(#SVGID_8_)" fill="#F8B77C" d="M821.733,124.207c-0.071,1.783-0.728,3.954-2.511,3.855
			c-1.783-0.098-3.147-1.623-3.049-3.405l0.595-10.702c0.099-1.782,1.624-3.146,3.408-3.046c1.784,0.098,3.323,1.64,3.05,3.404
			C822.844,116.785,821.929,119.368,821.733,124.207"/>
		<path clip-path="url(#SVGID_8_)" fill="#FCC287" d="M758.936,124.207c0.071,1.783,0.728,3.954,2.511,3.855
			c1.783-0.098,3.147-1.623,3.049-3.405l-0.595-10.702c-0.099-1.782-1.624-3.146-3.408-3.046c-1.784,0.098-3.322,1.64-3.05,3.404
			C757.825,116.785,758.74,119.368,758.936,124.207"/>
		<path clip-path="url(#SVGID_8_)" fill="#FCC287" d="M818.074,130.599c0,8.443-5.322,15.286-13.774,15.286h-27.93
			c-8.454,0-13.774-6.843-13.774-15.286l-1.531-35.541c0-8.442,5.321-15.285,13.774-15.285h30.992
			c8.452,0,13.773,6.843,13.773,15.285L818.074,130.599z"/>
		<path clip-path="url(#SVGID_8_)" fill="#F8B77C" d="M805.709,79.772h-15.496v66.113h13.966c8.452,0,13.773-6.843,13.773-15.287
			l1.531-35.54C819.483,86.617,814.161,79.772,805.709,79.772"/>
		<path clip-path="url(#SVGID_8_)" fill="#7A5034" d="M776.634,136.219c-6.813,5.724-13.058-6.443-13.058-15.336l-0.955-25.29
			c-0.641,1.736-3.047-4.398-3.047-0.148l2.912,35.75c0,24.461,27.727,31.386,27.727,31.386l0.766-17.009l-0.766-13.938
			C781.822,131.647,779.533,133.784,776.634,136.219"/>
		<path clip-path="url(#SVGID_8_)" fill="#684127" d="M803.793,136.219c6.813,5.724,13.059-6.443,13.059-15.336l0.94-25.417
			c0.641,1.735,2.973-6.47,2.973-2.221l-2.824,37.95c0,24.461-27.727,31.386-27.727,31.386v-30.947
			C798.605,131.647,800.895,133.784,803.793,136.219"/>
		<path clip-path="url(#SVGID_8_)" fill="#F8B77C" d="M790.619,147.841c-8.397,0-10.03-7.647-9.748-8.305
			c0.281-0.656,1.109-0.985,1.848-0.737c0.076,0.026,7.739,2.537,15.229,0.002c0.74-0.25,1.568,0.079,1.851,0.735
			C800.081,140.194,797.672,147.841,790.619,147.841"/>
		<path clip-path="url(#SVGID_8_)" fill="#684127" d="M799.313,108.406c6.874-2.267,13.757-0.03,13.824-0.008
			c1.169,0.372,2.686-2.427,1.521-2.804c-0.348-0.111-8.725-3.51-17.451-0.811C796.03,105.146,798.108,108.804,799.313,108.406"/>
		<path clip-path="url(#SVGID_8_)" fill="#7A5034" d="M781.388,108.406c-1.509-0.635-2.956-1.73-5.49-1.75
			c-4.638-0.038-8.285,1.726-8.335,1.742c-1.168,0.372-2.685-2.427-1.518-2.804c0.242-0.078,4.364-2.508,9.788-2.609
			c2.377-0.045,5.612,0.759,7.662,1.798C784.593,105.338,782.557,108.898,781.388,108.406"/>
		<path clip-path="url(#SVGID_8_)" fill="#FCC287" d="M784.688,130.693c0,1.682,2.599,3.047,5.667,3.087l-0.135-34.009
			C788.146,102.36,784.688,130.693,784.688,130.693"/>
		<path clip-path="url(#SVGID_8_)" fill="#F8B77C" d="M793.269,111.388c-1.226-7.282-2.143-10.787-3.049-11.616v34.009
			c0.045,0,0.089,0.003,0.136,0.003c3.13,0,5.666-1.384,5.666-3.09C796.021,130.694,794.948,121.363,793.269,111.388"/>
		<path clip-path="url(#SVGID_8_)" fill="#FCC287" d="M787.521,131.762c0,0.836-0.825,1.513-1.844,1.513
			c-1.016,0-1.842-0.677-1.842-1.513c0-0.835,0.826-1.513,1.842-1.513C786.696,130.249,787.521,130.927,787.521,131.762"/>
		<path clip-path="url(#SVGID_8_)" fill="#F8B77C" d="M796.807,131.762c0,0.836-0.825,1.513-1.843,1.513s-1.843-0.677-1.843-1.513
			c0-0.835,0.825-1.513,1.843-1.513S796.807,130.927,796.807,131.762"/>
		<path clip-path="url(#SVGID_8_)" fill="#7A5034" d="M790.213,66.704c-3.683-0.274-7.8-0.066-12.418,0.906
			c-12.828,2.701-11.398,10.979-11.398,10.979c-1.896-1.338-5.637-0.42-6.983,7.581c-1.401,8.343,1.774,14.052,1.774,14.052
			s0.979,0.496,1.431-4.252c0-12.216,6.886-5.65,6.886-5.65s0.106-0.16,0.321-0.416c0.002-0.002,4.361-5.095,20.388-0.136
			l0.766-12.002L790.213,66.704z"/>
		<path clip-path="url(#SVGID_8_)" fill="#684127" d="M790.213,66.704v23.064c21.331,6.655,30.703,10.439,30.704,1.813
			C820.919,82.155,816.613,67.888,790.213,66.704"/>
		<path clip-path="url(#SVGID_8_)" fill="#D65037" d="M782.481,141.638c0,0,1.792,4.934,7.68,5.412
			c3.337,0.017,6.829-3.181,7.563-5.412C790.502,141.828,782.481,141.638,782.481,141.638"/>
		<path clip-path="url(#SVGID_8_)" fill="#FFFFFF" d="M782.052,139.82c0,0,8.799,2.488,16.165,0
			c0.287,1.433-0.701,2.261-0.701,2.261s-6.248,2.564-14.905-0.207C782.132,141.11,782.052,139.82,782.052,139.82"/>
		<path clip-path="url(#SVGID_8_)" fill="#4E2C14" d="M809.041,113.084c0,1.53-1.241,2.771-2.773,2.771s-2.774-1.241-2.774-2.771
			c0-1.53,1.242-2.771,2.774-2.771S809.041,111.555,809.041,113.084"/>
		<path clip-path="url(#SVGID_8_)" fill="#F7D8BA" d="M807.894,112.496c0,0.518-0.42,0.939-0.94,0.939
			c-0.52,0-0.939-0.421-0.939-0.939c0-0.519,0.42-0.941,0.939-0.941C807.474,111.555,807.894,111.977,807.894,112.496"/>
		<path clip-path="url(#SVGID_8_)" fill="#4E2C14" d="M776.711,113.084c0,1.53-1.242,2.771-2.773,2.771s-2.774-1.241-2.774-2.771
			c0-1.53,1.243-2.771,2.774-2.771S776.711,111.555,776.711,113.084"/>
		<path clip-path="url(#SVGID_8_)" fill="#F7D8BA" d="M775.563,112.496c0,0.518-0.42,0.939-0.94,0.939s-0.941-0.421-0.941-0.939
			c0-0.519,0.421-0.941,0.941-0.941S775.563,111.977,775.563,112.496"/>
		<path clip-path="url(#SVGID_8_)" fill="#514EA0" d="M742.201,228.564c-6.445-19.376-6.094-35.073,1.046-46.654
			c7.759-12.588,20.668-15.378,24.438-15.932l2.335,15.832c-2.038,0.3-9.005,1.798-13.13,8.49
			c-4.476,7.261-4.299,18.748,0.516,33.218L742.201,228.564z"/>
		<path clip-path="url(#SVGID_8_)" fill="#F8B77C" d="M838.961,108.861c0.409,0.552,1.19,0.668,1.743,0.258l3.99-2.959
			c0.554-0.409,0.668-1.189,0.258-1.741l-0.817-1.1c-0.41-0.552-1.191-0.668-1.744-0.258l-3.989,2.958
			c-0.553,0.41-0.669,1.191-0.258,1.743L838.961,108.861z"/>
		<path clip-path="url(#SVGID_8_)" fill="#445E73" d="M764.899,241.218l3.51-0.055c-1.002-6.328-7.46-11.116-13.349-11.027
			l-0.816,1.475l0.866,1.667C759.891,233.206,763.931,236.375,764.899,241.218"/>
		<path clip-path="url(#SVGID_8_)" fill="#445E73" d="M755.055,230.136c-5.887,0.093-12.22,5.084-12.994,11.457
			c0.088-0.017,1.691-0.042,1.779-0.043l1.721-0.027c0.827-4.873,4.756-8.169,9.543-8.244c0,0,0.005,0,0.007,0l-0.051-3.142
			C755.059,230.136,755.056,230.137,755.055,230.136"/>
		<polygon clip-path="url(#SVGID_8_)" fill="#C2E2DE" points="755.232,241.098 754.464,245.522 755.517,259.045 759.793,258.979 
			761.503,253.745 783.624,253.396 783.493,245.065 783.423,240.654 		"/>
		<polygon clip-path="url(#SVGID_8_)" fill="#C2E2DE" points="763.095,246.243 761.515,251.102 755.109,257.41 754.766,264.653 
			755.805,277.317 783.995,276.873 783.795,264.196 783.624,253.397 		"/>
		<polygon clip-path="url(#SVGID_8_)" fill="#D3ECEB" points="727.042,241.542 727.111,245.953 727.318,259.113 748.388,264.731 
			752.106,266.441 755.563,262.1 755.303,245.509 755.232,241.099 		"/>
		<polygon clip-path="url(#SVGID_8_)" fill="#D3ECEB" points="748.145,262.217 746.426,257.41 727.297,257.711 727.413,265.084 
			727.613,277.761 755.804,277.317 755.604,264.64 755.565,262.1 		"/>
		<path clip-path="url(#SVGID_8_)" fill="#F8B77C" d="M746.587,241.236l0.755,2.438c0.232,0.751,1.03,1.17,1.781,0.938
			c0.545-0.169,0.911-0.634,0.985-1.161c0,0,0.002,0,0.004,0.002c0.576-0.532,0.886,0.16,0.886,0.16
			c0.233,0.752,1.03,1.171,1.782,0.938c0.685-0.209,1.086-0.889,0.98-1.575h0.004c0.346-0.617,0.717-0.019,0.717-0.019
			s0.004-0.002,0.007-0.004c0.293,0.644,1.018,0.99,1.711,0.775c0.628-0.194,1.02-0.784,0.997-1.408h0.002
			c0.212-0.795,0.876-0.363,0.876-0.363l0.002-0.002c0.36,0.299,0.855,0.418,1.334,0.27c0.749-0.233,1.171-1.029,0.939-1.78
			c-0.216-1.336,0.939-1.03,0.939-1.03s0-0.005-0.001-0.006c0.289,0.112,0.616,0.138,0.937,0.038
			c0.751-0.232,1.172-1.028,0.939-1.777l-0.71-2.294c-1.872-9.252-4.356-7.15-6.094-8.349c-1.738-1.2-2.951-5.416-2.951-5.416
			s-6.97,2.153-8.925,2.759c2.221,6.57,1.114,6.106,0.247,8.916C744.095,235.347,745.688,239.279,746.587,241.236"/>
		<polygon clip-path="url(#SVGID_8_)" fill="#F8B77C" points="863.633,207.563 860.906,196.166 850.901,197.676 854.044,208.76 		
			"/>
		<path clip-path="url(#SVGID_8_)" fill="#F8B77C" d="M852.104,224.242c-2.49-0.656-4.044-3.293-3.472-5.89l2.291-10.39
			c0.572-2.597,3.056-4.17,5.546-3.514l6.574,1.732c2.489,0.657,4.043,3.294,3.471,5.891l-2.292,10.39
			c-0.572,2.597-3.056,4.169-5.545,3.514L852.104,224.242z"/>
		<path clip-path="url(#SVGID_8_)" fill="#F8B77C" d="M870.456,225.359c-0.793,0.336-1.714-0.072-2.058-0.91l-5.347-8.915
			c-0.342-0.838,1.301-2.802,2.093-3.137c0.793-0.335,0.661-3.999,1.004-3.161l5.121,13.999
			C871.611,224.073,871.249,225.024,870.456,225.359"/>
		<polygon clip-path="url(#SVGID_8_)" fill="#A3E1E0" points="863.274,263.46 868.339,216.102 850.238,214.172 845.176,261.529 		
			"/>
		<polygon clip-path="url(#SVGID_8_)" fill="#C2E2DE" points="827.074,259.598 845.175,261.529 850.239,214.171 832.139,212.24 		
			"/>
		<path clip-path="url(#SVGID_8_)" fill="#3C5568" d="M864.765,263.423l5.175-48.401c0.143-1.327-0.858-2.532-2.236-2.679
			l-34.145-3.642c-1.368-0.146-2.615,0.819-2.759,2.146l-5.175,48.401c-0.144,1.334,0.875,2.533,2.243,2.679l34.144,3.643
			C863.389,265.716,864.622,264.758,864.765,263.423 M830.693,259.14c-1.127-0.12-1.941-1.128-1.821-2.253l4.251-39.748
			c0.12-1.124,1.13-1.938,2.255-1.818l29.155,3.11c1.127,0.12,1.94,1.129,1.819,2.253l-4.249,39.748
			c-0.121,1.124-1.13,1.938-2.256,1.818L830.693,259.14z"/>
		<path clip-path="url(#SVGID_8_)" fill="#FF573B" d="M844.312,262.089c0.047-0.437,0.441-0.754,0.877-0.707
			c0.439,0.047,0.757,0.439,0.709,0.876c-0.046,0.437-0.438,0.752-0.878,0.706C844.584,262.917,844.265,262.526,844.312,262.089"/>
		<path clip-path="url(#SVGID_8_)" fill="#FFAC27" d="M857.073,214.554c0.045-0.424,0.424-0.731,0.849-0.685
			c0.424,0.045,0.73,0.424,0.687,0.849c-0.046,0.422-0.427,0.729-0.851,0.684C857.332,215.355,857.027,214.977,857.073,214.554"/>
		<path clip-path="url(#SVGID_8_)" fill="#FFAC27" d="M852.03,214.016c0.045-0.424,0.425-0.73,0.85-0.685
			c0.424,0.045,0.73,0.424,0.686,0.849c-0.046,0.422-0.426,0.73-0.85,0.684C852.291,214.818,851.985,214.438,852.03,214.016"/>
		<path clip-path="url(#SVGID_8_)" fill="#FFAC27" d="M846.985,213.478c0.045-0.424,0.427-0.73,0.851-0.685
			c0.423,0.045,0.729,0.424,0.684,0.849c-0.045,0.422-0.424,0.729-0.848,0.684C847.248,214.28,846.94,213.9,846.985,213.478"/>
		<path clip-path="url(#SVGID_8_)" fill="#FFAC27" d="M841.941,212.939c0.045-0.424,0.428-0.73,0.851-0.685
			c0.424,0.045,0.729,0.424,0.685,0.849c-0.045,0.422-0.425,0.73-0.849,0.684C842.204,213.742,841.896,213.362,841.941,212.939"/>
		<path clip-path="url(#SVGID_8_)" fill="#514EA0" d="M862.938,196.82c-14.9-14.235-24.942-17.762-38.06-17.414
			c-14.256,0.381-21.7,9.482-23.643,12.262l13.298,9.27c1.048-1.502,5.063-6.42,12.641-6.621
			c8.224-0.219,14.289,1.771,25.416,12.403L862.938,196.82z"/>
		<path clip-path="url(#SVGID_8_)" fill="#F8B77C" d="M870.34,221.878c-0.516-0.456-1.303-0.408-1.76,0.107l-3.294,3.715
			c-0.456,0.515-0.409,1.301,0.106,1.757l1.026,0.908c0.515,0.456,1.304,0.409,1.76-0.105l3.294-3.716
			c0.457-0.514,0.409-1.302-0.106-1.758L870.34,221.878z"/>
		<path clip-path="url(#SVGID_8_)" fill="#514EA0" d="M855.604,131.038c0.688,20.652-3.886,35.795-13.597,45.009
			c-10.556,10.013-23.196,9.044-26.82,8.508l2.137-16.039c1.957,0.289,8.781,0.819,14.392-4.504
			c6.089-5.776,9.035-16.983,8.521-32.406L855.604,131.038z"/>
	</g>
	<g clip-path="url(#SVGID_2_)">
		<defs>
			<rect id="SVGID_9_" x="401.644" y="4.239" width="536.356" height="413.251"/>
		</defs>
		<clipPath id="SVGID_10_">
			<use xlink:href="#SVGID_9_"  overflow="visible"/>
		</clipPath>
		<path clip-path="url(#SVGID_10_)" fill="#FFFFFF" d="M438.325,219.048h-3.81l-0.78,2.116h1.112c0.138,0,0.237,0.027,0.296,0.08
			c0.06,0.052,0.09,0.123,0.09,0.21c0,0.083-0.03,0.151-0.09,0.207c-0.059,0.055-0.158,0.082-0.296,0.082h-2.168
			c-0.138,0-0.237-0.027-0.296-0.082c-0.06-0.056-0.09-0.124-0.09-0.207c0-0.087,0.03-0.158,0.09-0.21
			c0.059-0.053,0.158-0.08,0.296-0.08h0.449l2.561-6.908h-1.712c-0.138,0-0.237-0.026-0.297-0.079c-0.06-0.053-0.09-0.123-0.09-0.21
			c0-0.088,0.03-0.158,0.09-0.211c0.06-0.052,0.159-0.079,0.297-0.079h2.92l2.83,7.487h0.448c0.138,0,0.237,0.027,0.297,0.08
			c0.06,0.052,0.09,0.123,0.09,0.21c0,0.083-0.03,0.151-0.09,0.207c-0.06,0.055-0.159,0.082-0.297,0.082h-2.16
			c-0.143,0-0.244-0.027-0.304-0.082c-0.06-0.056-0.09-0.124-0.09-0.207c0-0.087,0.03-0.158,0.09-0.21
			c0.06-0.053,0.161-0.08,0.304-0.08h1.104L438.325,219.048z M438.105,218.469l-1.602-4.213h-0.214l-1.553,4.213H438.105z
			 M456.221,213.091v8.073h0.773c0.143,0,0.244,0.027,0.304,0.08c0.059,0.052,0.089,0.123,0.089,0.21
			c0,0.083-0.03,0.151-0.089,0.207c-0.06,0.055-0.161,0.082-0.304,0.082h-1.36v-1.151c-0.672,0.919-1.525,1.379-2.561,1.379
			c-0.524,0-1.027-0.139-1.508-0.417c-0.481-0.278-0.86-0.675-1.139-1.188c-0.278-0.515-0.417-1.046-0.417-1.593
			c0-0.552,0.139-1.084,0.417-1.596c0.279-0.513,0.658-0.909,1.139-1.189c0.481-0.281,0.986-0.421,1.515-0.421
			c1.013,0,1.864,0.46,2.554,1.379v-3.268h-0.773c-0.143,0-0.244-0.028-0.304-0.083c-0.059-0.055-0.089-0.126-0.089-0.213
			c0-0.083,0.03-0.152,0.089-0.207c0.06-0.055,0.161-0.083,0.304-0.083H456.221z M455.634,218.772c0-0.735-0.248-1.356-0.745-1.862
			c-0.497-0.505-1.089-0.758-1.774-0.758c-0.69,0-1.284,0.253-1.781,0.758c-0.497,0.506-0.745,1.127-0.745,1.862
			c0,0.731,0.248,1.35,0.745,1.858s1.091,0.762,1.781,0.762c0.685,0,1.277-0.254,1.774-0.762S455.634,219.503,455.634,218.772
			 M464.999,218.896h-5.908c0.101,0.749,0.415,1.352,0.942,1.81c0.527,0.457,1.179,0.686,1.957,0.686
			c0.432,0,0.886-0.071,1.36-0.214c0.474-0.142,0.86-0.331,1.159-0.565c0.088-0.069,0.164-0.104,0.228-0.104
			c0.074,0,0.138,0.029,0.193,0.086c0.056,0.058,0.083,0.126,0.083,0.204s-0.037,0.154-0.11,0.227
			c-0.221,0.23-0.613,0.445-1.177,0.645s-1.142,0.3-1.736,0.3c-0.994,0-1.823-0.325-2.488-0.976
			c-0.665-0.65-0.998-1.437-0.998-2.361c0-0.841,0.312-1.563,0.936-2.165c0.623-0.602,1.395-0.903,2.315-0.903
			c0.948,0,1.728,0.309,2.34,0.927C464.707,217.112,465.009,217.912,464.999,218.896 M464.413,218.31
			c-0.115-0.639-0.418-1.158-0.908-1.558c-0.49-0.4-1.073-0.6-1.75-0.6c-0.676,0-1.258,0.198-1.746,0.593
			c-0.488,0.395-0.791,0.917-0.911,1.565H464.413z M468.367,216.359v4.805h1.028c0.138,0,0.237,0.027,0.297,0.08
			c0.06,0.052,0.09,0.123,0.09,0.21c0,0.083-0.03,0.151-0.09,0.207c-0.06,0.055-0.159,0.082-0.297,0.082h-2.809
			c-0.138,0-0.237-0.027-0.297-0.082c-0.06-0.056-0.09-0.124-0.09-0.207c0-0.087,0.03-0.158,0.09-0.21
			c0.06-0.053,0.159-0.08,0.297-0.08h1.194v-4.805h-1.111c-0.139,0-0.238-0.028-0.297-0.083c-0.06-0.055-0.09-0.126-0.09-0.214
			c0-0.082,0.03-0.151,0.09-0.206c0.059-0.056,0.158-0.083,0.297-0.083h1.111v-0.855c0-0.538,0.155-0.977,0.466-1.317
			c0.31-0.34,0.666-0.51,1.066-0.51c0.313,0,0.651,0.064,1.015,0.193c0.193,0.069,0.29,0.175,0.29,0.317
			c0,0.083-0.026,0.151-0.076,0.204c-0.051,0.052-0.113,0.079-0.187,0.079c-0.032,0-0.082-0.012-0.151-0.035
			c-0.373-0.114-0.665-0.172-0.877-0.172c-0.262,0-0.474,0.094-0.635,0.283c-0.216,0.257-0.324,0.577-0.324,0.958v0.855h1.028
			c0.138,0,0.237,0.027,0.297,0.083c0.06,0.055,0.09,0.126,0.09,0.213c0,0.083-0.03,0.152-0.09,0.207s-0.159,0.083-0.297,0.083
			H468.367z M472.977,215.773v5.391h1.07c0.143,0,0.244,0.027,0.304,0.08c0.06,0.052,0.09,0.123,0.09,0.21
			c0,0.083-0.03,0.151-0.09,0.207c-0.06,0.055-0.161,0.082-0.304,0.082h-2.761c-0.138,0-0.237-0.027-0.297-0.082
			c-0.059-0.056-0.089-0.124-0.089-0.207c0-0.087,0.028-0.158,0.086-0.21c0.057-0.053,0.158-0.08,0.3-0.08h1.112v-4.805h-0.822
			c-0.138,0-0.237-0.028-0.297-0.083c-0.059-0.055-0.089-0.126-0.089-0.214c0-0.082,0.03-0.151,0.089-0.206
			c0.06-0.056,0.159-0.083,0.297-0.083H472.977z M472.97,214.298h-0.856v-1.496h0.856V214.298z M476.952,215.773v0.876
			c0.405-0.41,0.771-0.692,1.097-0.849c0.327-0.156,0.695-0.234,1.105-0.234c0.441,0,0.844,0.094,1.208,0.283
			c0.257,0.138,0.491,0.366,0.7,0.686c0.21,0.319,0.314,0.647,0.314,0.982v3.647h0.49c0.138,0,0.237,0.027,0.297,0.08
			c0.06,0.052,0.09,0.123,0.09,0.21c0,0.083-0.03,0.151-0.09,0.207c-0.06,0.055-0.159,0.082-0.297,0.082h-1.553
			c-0.142,0-0.244-0.027-0.303-0.082c-0.06-0.056-0.09-0.124-0.09-0.207c0-0.087,0.03-0.158,0.09-0.21
			c0.059-0.053,0.161-0.08,0.303-0.08h0.484v-3.55c0-0.409-0.15-0.755-0.449-1.038c-0.299-0.283-0.7-0.424-1.201-0.424
			c-0.382,0-0.713,0.077-0.994,0.231c-0.281,0.154-0.681,0.537-1.201,1.148v3.633h0.656c0.138,0,0.237,0.027,0.296,0.08
			c0.06,0.052,0.09,0.123,0.09,0.21c0,0.083-0.03,0.151-0.09,0.207c-0.059,0.055-0.158,0.082-0.296,0.082h-1.892
			c-0.138,0-0.237-0.027-0.296-0.082c-0.06-0.056-0.09-0.124-0.09-0.207c0-0.087,0.03-0.158,0.09-0.21
			c0.059-0.053,0.158-0.08,0.296-0.08h0.656v-4.805h-0.49c-0.138,0-0.237-0.028-0.297-0.083s-0.09-0.126-0.09-0.214
			c0-0.082,0.03-0.151,0.09-0.206c0.06-0.056,0.159-0.083,0.297-0.083H476.952z M487.615,215.773v5.391h2.278
			c0.142,0,0.243,0.027,0.303,0.08c0.06,0.052,0.09,0.123,0.09,0.21c0,0.083-0.03,0.151-0.09,0.207
			c-0.06,0.055-0.161,0.082-0.303,0.082h-5.136c-0.138,0-0.237-0.027-0.297-0.082c-0.059-0.056-0.089-0.124-0.089-0.207
			c0-0.087,0.03-0.158,0.089-0.21c0.06-0.053,0.159-0.08,0.297-0.08h2.278v-4.805h-1.691c-0.138,0-0.238-0.028-0.3-0.083
			s-0.094-0.124-0.094-0.207c0-0.087,0.03-0.158,0.09-0.213c0.06-0.056,0.161-0.083,0.304-0.083H487.615z M487.594,214.298h-0.856
			v-1.496h0.856V214.298z M494.599,215.773h3.147c0.138,0,0.237,0.027,0.297,0.083c0.061,0.055,0.09,0.126,0.09,0.213
			c0,0.083-0.029,0.152-0.09,0.207c-0.06,0.055-0.159,0.083-0.297,0.083h-3.147v3.854c0,0.335,0.135,0.616,0.404,0.841
			c0.27,0.225,0.663,0.338,1.184,0.338c0.391,0,0.814-0.059,1.27-0.176c0.456-0.117,0.81-0.249,1.063-0.396
			c0.092-0.06,0.168-0.09,0.228-0.09c0.074,0,0.138,0.029,0.193,0.086c0.056,0.058,0.083,0.125,0.083,0.203
			c0,0.069-0.03,0.134-0.091,0.194c-0.146,0.151-0.505,0.316-1.072,0.492c-0.568,0.177-1.112,0.266-1.632,0.266
			c-0.678,0-1.216-0.159-1.615-0.476c-0.401-0.317-0.602-0.744-0.602-1.282v-3.854h-1.07c-0.138,0-0.237-0.028-0.297-0.083
			c-0.059-0.055-0.089-0.126-0.089-0.214c0-0.082,0.03-0.151,0.089-0.206c0.06-0.056,0.159-0.083,0.297-0.083h1.07v-1.71
			c0-0.138,0.028-0.237,0.083-0.296c0.056-0.06,0.124-0.09,0.207-0.09c0.087,0,0.159,0.03,0.214,0.09
			c0.056,0.059,0.083,0.158,0.083,0.296V215.773z M504.578,215.773v5.391h2.278c0.143,0,0.243,0.027,0.304,0.08
			c0.06,0.052,0.09,0.123,0.09,0.21c0,0.083-0.03,0.151-0.09,0.207c-0.061,0.055-0.161,0.082-0.304,0.082h-5.136
			c-0.138,0-0.236-0.027-0.297-0.082c-0.06-0.056-0.09-0.124-0.09-0.207c0-0.087,0.03-0.158,0.09-0.21
			c0.061-0.053,0.159-0.08,0.297-0.08h2.278v-4.805h-1.692c-0.138,0-0.237-0.028-0.3-0.083c-0.062-0.055-0.093-0.124-0.093-0.207
			c0-0.087,0.03-0.158,0.09-0.213c0.061-0.056,0.161-0.083,0.303-0.083H504.578z M504.558,214.298h-0.855v-1.496h0.855V214.298z
			 M513.26,221.743h-0.979l-2.381-5.384h-0.595c-0.138,0-0.236-0.028-0.297-0.083c-0.059-0.055-0.089-0.126-0.089-0.214
			c0-0.082,0.03-0.151,0.089-0.206c0.061-0.056,0.159-0.083,0.297-0.083h2.176c0.138,0,0.235,0.027,0.296,0.083
			c0.06,0.055,0.09,0.126,0.09,0.213c0,0.083-0.03,0.152-0.09,0.207c-0.061,0.055-0.158,0.083-0.296,0.083h-0.96l2.126,4.805h0.255
			l2.085-4.805h-0.966c-0.139,0-0.237-0.028-0.298-0.083c-0.06-0.055-0.09-0.126-0.09-0.214c0-0.082,0.03-0.151,0.09-0.206
			c0.061-0.056,0.159-0.083,0.298-0.083h2.181c0.142,0,0.242,0.027,0.3,0.083c0.058,0.055,0.086,0.126,0.086,0.213
			c0,0.083-0.028,0.152-0.086,0.207s-0.158,0.083-0.3,0.083h-0.587L513.26,221.743z M524.372,218.896h-5.909
			c0.103,0.749,0.416,1.352,0.943,1.81c0.525,0.457,1.179,0.686,1.956,0.686c0.433,0,0.886-0.071,1.359-0.214
			c0.475-0.142,0.861-0.331,1.16-0.565c0.087-0.069,0.163-0.104,0.229-0.104c0.072,0,0.138,0.029,0.192,0.086
			c0.056,0.058,0.083,0.126,0.083,0.204s-0.037,0.154-0.11,0.227c-0.222,0.23-0.613,0.445-1.178,0.645
			c-0.563,0.2-1.142,0.3-1.735,0.3c-0.993,0-1.823-0.325-2.488-0.976c-0.665-0.65-0.997-1.437-0.997-2.361
			c0-0.841,0.312-1.563,0.936-2.165c0.623-0.602,1.395-0.903,2.315-0.903c0.948,0,1.729,0.309,2.34,0.927
			C524.08,217.112,524.381,217.912,524.372,218.896 M523.785,218.31c-0.115-0.639-0.417-1.158-0.907-1.558
			c-0.491-0.4-1.074-0.6-1.75-0.6c-0.677,0-1.259,0.198-1.746,0.593s-0.792,0.917-0.912,1.565H523.785z M537.746,215.566
			c0.98,0,1.781,0.423,2.402,1.269v-1.062h1.359c0.139,0,0.237,0.027,0.297,0.083c0.061,0.055,0.091,0.126,0.091,0.213
			c0,0.083-0.03,0.152-0.091,0.207c-0.06,0.055-0.158,0.083-0.297,0.083h-0.779v5.784c0,0.386-0.083,0.731-0.248,1.034
			c-0.111,0.203-0.295,0.412-0.554,0.628c-0.257,0.216-0.491,0.37-0.704,0.462c-0.211,0.092-0.493,0.138-0.849,0.138h-1.642
			c-0.139,0-0.237-0.027-0.297-0.08c-0.061-0.053-0.091-0.123-0.091-0.21c0-0.087,0.03-0.159,0.091-0.214
			c0.06-0.055,0.158-0.082,0.297-0.082l1.663,0.006c0.341,0,0.647-0.087,0.922-0.262c0.272-0.174,0.5-0.429,0.679-0.765
			c0.102-0.193,0.152-0.439,0.152-0.738v-1.737c-0.621,0.851-1.422,1.276-2.402,1.276c-0.796,0-1.483-0.296-2.061-0.886
			c-0.577-0.591-0.865-1.302-0.865-2.134s0.288-1.542,0.865-2.13C536.263,215.86,536.95,215.566,537.746,215.566 M540.148,218.579
			c0-0.68-0.233-1.255-0.7-1.724s-1.025-0.703-1.674-0.703c-0.649,0-1.206,0.236-1.671,0.707s-0.697,1.044-0.697,1.72
			c0,0.68,0.232,1.256,0.697,1.727c0.465,0.471,1.021,0.707,1.671,0.707c0.648,0,1.207-0.236,1.674-0.707
			C539.915,219.835,540.148,219.259,540.148,218.579 M548.665,221.743v-0.848c-0.792,0.717-1.647,1.076-2.568,1.076
			c-0.565,0-0.995-0.154-1.291-0.462c-0.382-0.404-0.572-0.876-0.572-1.413v-3.737h-0.78c-0.138,0-0.237-0.028-0.297-0.083
			s-0.089-0.126-0.089-0.214c0-0.082,0.029-0.151,0.089-0.206c0.06-0.056,0.159-0.083,0.297-0.083h1.36v4.323
			c0,0.377,0.119,0.688,0.358,0.93c0.239,0.244,0.538,0.366,0.897,0.366c0.943,0,1.809-0.432,2.596-1.296v-3.737h-1.07
			c-0.138,0-0.236-0.028-0.297-0.083c-0.06-0.055-0.09-0.126-0.09-0.214c0-0.082,0.03-0.151,0.09-0.206
			c0.061-0.056,0.159-0.083,0.297-0.083h1.649v5.391h0.49c0.139,0,0.236,0.027,0.297,0.08c0.06,0.052,0.09,0.123,0.09,0.21
			c0,0.083-0.03,0.151-0.09,0.207c-0.061,0.055-0.158,0.082-0.297,0.082H548.665z M555.469,215.773v5.391h2.278
			c0.142,0,0.244,0.027,0.304,0.08c0.06,0.052,0.089,0.123,0.089,0.21c0,0.083-0.029,0.151-0.089,0.207
			c-0.06,0.055-0.162,0.082-0.304,0.082h-5.136c-0.139,0-0.237-0.027-0.296-0.082c-0.061-0.056-0.091-0.124-0.091-0.207
			c0-0.087,0.03-0.158,0.091-0.21c0.059-0.053,0.157-0.08,0.296-0.08h2.277v-4.805h-1.69c-0.138,0-0.238-0.028-0.3-0.083
			c-0.063-0.055-0.094-0.124-0.094-0.207c0-0.087,0.03-0.158,0.091-0.213c0.059-0.056,0.16-0.083,0.303-0.083H555.469z
			 M555.448,214.298h-0.856v-1.496h0.856V214.298z M566.484,213.091v8.073h0.772c0.144,0,0.244,0.027,0.304,0.08
			c0.061,0.052,0.091,0.123,0.091,0.21c0,0.083-0.03,0.151-0.091,0.207c-0.06,0.055-0.16,0.082-0.304,0.082h-1.359v-1.151
			c-0.673,0.919-1.525,1.379-2.561,1.379c-0.524,0-1.028-0.139-1.509-0.417c-0.481-0.278-0.86-0.675-1.139-1.188
			c-0.278-0.515-0.417-1.046-0.417-1.593c0-0.552,0.139-1.084,0.417-1.596c0.278-0.513,0.657-0.909,1.139-1.189
			c0.48-0.281,0.986-0.421,1.515-0.421c1.014,0,1.864,0.46,2.555,1.379v-3.268h-0.773c-0.142,0-0.244-0.028-0.303-0.083
			c-0.061-0.055-0.09-0.126-0.09-0.213c0-0.083,0.029-0.152,0.09-0.207c0.059-0.055,0.161-0.083,0.303-0.083H566.484z
			 M565.897,218.772c0-0.735-0.248-1.356-0.745-1.862c-0.497-0.505-1.088-0.758-1.774-0.758c-0.689,0-1.284,0.253-1.781,0.758
			c-0.497,0.506-0.745,1.127-0.745,1.862c0,0.731,0.248,1.35,0.745,1.858s1.092,0.762,1.781,0.762c0.687,0,1.277-0.254,1.774-0.762
			S565.897,219.503,565.897,218.772 M575.263,218.896h-5.908c0.101,0.749,0.415,1.352,0.941,1.81
			c0.527,0.457,1.179,0.686,1.957,0.686c0.433,0,0.886-0.071,1.36-0.214c0.474-0.142,0.859-0.331,1.16-0.565
			c0.087-0.069,0.162-0.104,0.227-0.104c0.074,0,0.138,0.029,0.194,0.086c0.055,0.058,0.082,0.126,0.082,0.204
			s-0.036,0.154-0.11,0.227c-0.221,0.23-0.613,0.445-1.177,0.645c-0.564,0.2-1.143,0.3-1.736,0.3c-0.994,0-1.823-0.325-2.488-0.976
			c-0.665-0.65-0.997-1.437-0.997-2.361c0-0.841,0.312-1.563,0.936-2.165c0.623-0.602,1.395-0.903,2.316-0.903
			c0.946,0,1.727,0.309,2.339,0.927C574.97,217.112,575.272,217.912,575.263,218.896 M574.676,218.31
			c-0.115-0.639-0.418-1.158-0.908-1.558c-0.489-0.4-1.072-0.6-1.748-0.6c-0.678,0-1.26,0.198-1.747,0.593
			c-0.488,0.395-0.791,0.917-0.911,1.565H574.676z M587.898,215.773h3.147c0.138,0,0.237,0.027,0.297,0.083
			c0.06,0.055,0.089,0.126,0.089,0.213c0,0.083-0.029,0.152-0.089,0.207s-0.159,0.083-0.297,0.083h-3.147v3.854
			c0,0.335,0.135,0.616,0.403,0.841c0.27,0.225,0.664,0.338,1.185,0.338c0.391,0,0.813-0.059,1.27-0.176
			c0.456-0.117,0.811-0.249,1.063-0.396c0.092-0.06,0.168-0.09,0.228-0.09c0.073,0,0.139,0.029,0.193,0.086
			c0.055,0.058,0.083,0.125,0.083,0.203c0,0.069-0.03,0.134-0.09,0.194c-0.147,0.151-0.505,0.316-1.073,0.492
			c-0.569,0.177-1.113,0.266-1.633,0.266c-0.676,0-1.214-0.159-1.615-0.476c-0.4-0.317-0.6-0.744-0.6-1.282v-3.854h-1.07
			c-0.138,0-0.237-0.028-0.297-0.083c-0.061-0.055-0.09-0.126-0.09-0.214c0-0.082,0.029-0.151,0.09-0.206
			c0.06-0.056,0.159-0.083,0.297-0.083h1.07v-1.71c0-0.138,0.026-0.237,0.083-0.296c0.055-0.06,0.124-0.09,0.206-0.09
			c0.088,0,0.158,0.03,0.215,0.09c0.055,0.059,0.082,0.158,0.082,0.296V215.773z M600.813,218.772c0,0.882-0.317,1.636-0.95,2.261
			c-0.632,0.625-1.396,0.938-2.288,0.938c-0.902,0-1.668-0.313-2.298-0.941c-0.631-0.628-0.946-1.38-0.946-2.258
			c0-0.883,0.315-1.637,0.946-2.265c0.63-0.627,1.396-0.941,2.298-0.941c0.893,0,1.656,0.313,2.288,0.938
			C600.495,217.129,600.813,217.885,600.813,218.772 M600.225,218.772c0-0.726-0.259-1.345-0.776-1.855s-1.145-0.765-1.881-0.765
			s-1.363,0.256-1.882,0.769c-0.517,0.512-0.775,1.129-0.775,1.851c0,0.717,0.259,1.333,0.775,1.848
			c0.519,0.514,1.146,0.772,1.882,0.772s1.363-0.256,1.881-0.769C599.966,220.111,600.225,219.494,600.225,218.772 M614.496,215.566
			c0.801,0,1.452,0.195,1.954,0.586c0-0.133,0.026-0.23,0.083-0.289c0.055-0.06,0.124-0.09,0.207-0.09
			c0.087,0,0.158,0.03,0.214,0.09c0.055,0.059,0.083,0.16,0.083,0.303v0.993c0,0.138-0.028,0.236-0.083,0.296
			c-0.056,0.06-0.127,0.09-0.214,0.09c-0.079,0-0.145-0.025-0.197-0.076c-0.053-0.051-0.084-0.133-0.093-0.248
			c-0.028-0.276-0.17-0.504-0.428-0.683c-0.377-0.257-0.877-0.386-1.498-0.386c-0.649,0-1.153,0.131-1.513,0.393
			c-0.271,0.198-0.406,0.418-0.406,0.662c0,0.276,0.16,0.506,0.482,0.689c0.221,0.129,0.641,0.228,1.257,0.297
			c0.806,0.087,1.364,0.186,1.678,0.296c0.445,0.161,0.778,0.384,0.997,0.669c0.219,0.285,0.327,0.593,0.327,0.924
			c0,0.492-0.236,0.929-0.711,1.313c-0.474,0.384-1.169,0.576-2.084,0.576c-0.916,0-1.666-0.232-2.251-0.696
			c0,0.156-0.009,0.257-0.026,0.303c-0.02,0.046-0.053,0.085-0.101,0.117c-0.049,0.032-0.103,0.048-0.162,0.048
			c-0.083,0-0.151-0.029-0.208-0.089c-0.055-0.06-0.082-0.159-0.082-0.297v-1.192c0-0.138,0.026-0.237,0.079-0.297
			c0.054-0.06,0.123-0.089,0.211-0.089c0.082,0,0.152,0.028,0.21,0.086c0.059,0.057,0.086,0.134,0.086,0.23
			c0,0.211,0.054,0.388,0.159,0.53c0.161,0.221,0.418,0.404,0.771,0.549c0.352,0.144,0.783,0.217,1.294,0.217
			c0.755,0,1.315-0.14,1.684-0.421c0.368-0.28,0.552-0.577,0.552-0.889c0-0.359-0.186-0.646-0.559-0.862
			c-0.377-0.216-0.926-0.361-1.646-0.434c-0.721-0.074-1.237-0.17-1.551-0.29c-0.313-0.119-0.556-0.299-0.73-0.538
			c-0.175-0.239-0.264-0.496-0.264-0.772c0-0.496,0.244-0.89,0.732-1.182S613.82,215.566,614.496,215.566 M626.153,218.896h-5.908
			c0.101,0.749,0.415,1.352,0.942,1.81c0.526,0.457,1.179,0.686,1.957,0.686c0.432,0,0.886-0.071,1.359-0.214
			c0.475-0.142,0.86-0.331,1.159-0.565c0.088-0.069,0.164-0.104,0.228-0.104c0.074,0,0.139,0.029,0.193,0.086
			c0.056,0.058,0.083,0.126,0.083,0.204s-0.037,0.154-0.11,0.227c-0.221,0.23-0.613,0.445-1.177,0.645s-1.143,0.3-1.735,0.3
			c-0.994,0-1.824-0.325-2.488-0.976c-0.665-0.65-0.998-1.437-0.998-2.361c0-0.841,0.312-1.563,0.935-2.165
			c0.624-0.602,1.396-0.903,2.316-0.903c0.948,0,1.728,0.309,2.34,0.927C625.861,217.112,626.163,217.912,626.153,218.896
			 M625.567,218.31c-0.115-0.639-0.418-1.158-0.908-1.558s-1.073-0.6-1.75-0.6c-0.676,0-1.258,0.198-1.746,0.593
			s-0.792,0.917-0.911,1.565H625.567z M631.791,213.091v8.073h2.278c0.143,0,0.244,0.027,0.304,0.08
			c0.06,0.052,0.09,0.123,0.09,0.21c0,0.083-0.03,0.151-0.09,0.207c-0.06,0.055-0.161,0.082-0.304,0.082h-5.136
			c-0.138,0-0.236-0.027-0.297-0.082c-0.06-0.056-0.09-0.124-0.09-0.207c0-0.087,0.03-0.158,0.09-0.21
			c0.061-0.053,0.159-0.08,0.297-0.08h2.278v-7.487h-1.671c-0.138,0-0.238-0.028-0.3-0.083c-0.063-0.055-0.093-0.126-0.093-0.213
			c0-0.083,0.029-0.152,0.089-0.207c0.06-0.055,0.161-0.083,0.304-0.083H631.791z M640.273,213.091v8.073h2.277
			c0.143,0,0.244,0.027,0.305,0.08c0.059,0.052,0.089,0.123,0.089,0.21c0,0.083-0.03,0.151-0.089,0.207
			c-0.061,0.055-0.162,0.082-0.305,0.082h-5.135c-0.139,0-0.238-0.027-0.297-0.082c-0.061-0.056-0.09-0.124-0.09-0.207
			c0-0.087,0.029-0.158,0.09-0.21c0.059-0.053,0.158-0.08,0.297-0.08h2.277v-7.487h-1.67c-0.139,0-0.238-0.028-0.301-0.083
			c-0.063-0.055-0.094-0.126-0.094-0.213c0-0.083,0.03-0.152,0.09-0.207c0.061-0.055,0.161-0.083,0.305-0.083H640.273z
			 M648.77,215.773v5.391h2.276c0.144,0,0.244,0.027,0.304,0.08c0.061,0.052,0.091,0.123,0.091,0.21c0,0.083-0.03,0.151-0.091,0.207
			c-0.06,0.055-0.16,0.082-0.304,0.082h-5.135c-0.138,0-0.237-0.027-0.297-0.082c-0.061-0.056-0.089-0.124-0.089-0.207
			c0-0.087,0.028-0.158,0.089-0.21c0.06-0.053,0.159-0.08,0.297-0.08h2.278v-4.805h-1.691c-0.138,0-0.238-0.028-0.3-0.083
			c-0.063-0.055-0.094-0.124-0.094-0.207c0-0.087,0.029-0.158,0.09-0.213c0.06-0.056,0.161-0.083,0.304-0.083H648.77z
			 M648.748,214.298h-0.856v-1.496h0.856V214.298z M655.069,215.773v0.876c0.404-0.41,0.771-0.692,1.098-0.849
			c0.326-0.156,0.695-0.234,1.104-0.234c0.441,0,0.845,0.094,1.208,0.283c0.258,0.138,0.49,0.366,0.7,0.686
			c0.209,0.319,0.314,0.647,0.314,0.982v3.647h0.49c0.138,0,0.236,0.027,0.297,0.08c0.059,0.052,0.089,0.123,0.089,0.21
			c0,0.083-0.03,0.151-0.089,0.207c-0.061,0.055-0.159,0.082-0.297,0.082h-1.554c-0.143,0-0.243-0.027-0.304-0.082
			c-0.06-0.056-0.09-0.124-0.09-0.207c0-0.087,0.03-0.158,0.09-0.21c0.061-0.053,0.161-0.08,0.304-0.08h0.483v-3.55
			c0-0.409-0.15-0.755-0.449-1.038c-0.299-0.283-0.699-0.424-1.201-0.424c-0.382,0-0.713,0.077-0.993,0.231
			c-0.28,0.154-0.682,0.537-1.201,1.148v3.633h0.655c0.139,0,0.237,0.027,0.298,0.08c0.06,0.052,0.09,0.123,0.09,0.21
			c0,0.083-0.03,0.151-0.09,0.207c-0.061,0.055-0.159,0.082-0.298,0.082h-1.891c-0.138,0-0.237-0.027-0.297-0.082
			c-0.061-0.056-0.09-0.124-0.09-0.207c0-0.087,0.029-0.158,0.09-0.21c0.06-0.053,0.159-0.08,0.297-0.08h0.655v-4.805h-0.49
			c-0.138,0-0.237-0.028-0.296-0.083c-0.061-0.055-0.09-0.126-0.09-0.214c0-0.082,0.029-0.151,0.09-0.206
			c0.059-0.056,0.158-0.083,0.296-0.083H655.069z M664.973,215.566c0.98,0,1.781,0.423,2.402,1.269v-1.062h1.36
			c0.138,0,0.236,0.027,0.297,0.083c0.059,0.055,0.089,0.126,0.089,0.213c0,0.083-0.03,0.152-0.089,0.207
			c-0.061,0.055-0.159,0.083-0.297,0.083h-0.78v5.784c0,0.386-0.083,0.731-0.249,1.034c-0.11,0.203-0.294,0.412-0.552,0.628
			c-0.258,0.216-0.492,0.37-0.704,0.462c-0.212,0.092-0.495,0.138-0.849,0.138h-1.644c-0.138,0-0.237-0.027-0.297-0.08
			c-0.06-0.053-0.089-0.123-0.089-0.21c0-0.087,0.029-0.159,0.089-0.214s0.159-0.082,0.297-0.082l1.664,0.006
			c0.34,0,0.647-0.087,0.921-0.262c0.274-0.174,0.501-0.429,0.68-0.765c0.102-0.193,0.152-0.439,0.152-0.738v-1.737
			c-0.621,0.851-1.422,1.276-2.402,1.276c-0.796,0-1.482-0.296-2.06-0.886c-0.578-0.591-0.867-1.302-0.867-2.134
			s0.289-1.542,0.867-2.13C663.49,215.86,664.177,215.566,664.973,215.566 M667.375,218.579c0-0.68-0.234-1.255-0.701-1.724
			s-1.024-0.703-1.673-0.703c-0.649,0-1.206,0.236-1.671,0.707s-0.697,1.044-0.697,1.72c0,0.68,0.232,1.256,0.697,1.727
			c0.465,0.471,1.021,0.707,1.671,0.707c0.648,0,1.206-0.236,1.673-0.707C667.141,219.835,667.375,219.259,667.375,218.579
			 M685.629,218.772c0,0.882-0.315,1.636-0.949,2.261c-0.633,0.625-1.395,0.938-2.288,0.938c-0.901,0-1.668-0.313-2.298-0.941
			c-0.631-0.628-0.945-1.38-0.945-2.258c0-0.883,0.314-1.637,0.945-2.265c0.63-0.627,1.396-0.941,2.298-0.941
			c0.894,0,1.655,0.313,2.288,0.938C685.313,217.129,685.629,217.885,685.629,218.772 M685.043,218.772
			c0-0.726-0.259-1.345-0.777-1.855c-0.518-0.51-1.145-0.765-1.881-0.765c-0.735,0-1.362,0.256-1.881,0.769
			c-0.517,0.512-0.775,1.129-0.775,1.851c0,0.717,0.259,1.333,0.775,1.848c0.519,0.514,1.146,0.772,1.881,0.772
			c0.736,0,1.363-0.256,1.881-0.769C684.784,220.111,685.043,219.494,685.043,218.772 M688.996,215.773v0.876
			c0.405-0.41,0.771-0.692,1.098-0.849c0.327-0.156,0.695-0.234,1.104-0.234c0.441,0,0.845,0.094,1.208,0.283
			c0.258,0.138,0.491,0.366,0.701,0.686c0.209,0.319,0.313,0.647,0.313,0.982v3.647h0.49c0.138,0,0.237,0.027,0.297,0.08
			c0.059,0.052,0.089,0.123,0.089,0.21c0,0.083-0.03,0.151-0.089,0.207c-0.06,0.055-0.159,0.082-0.297,0.082h-1.553
			c-0.144,0-0.244-0.027-0.305-0.082c-0.06-0.056-0.09-0.124-0.09-0.207c0-0.087,0.03-0.158,0.09-0.21
			c0.061-0.053,0.161-0.08,0.305-0.08h0.482v-3.55c0-0.409-0.148-0.755-0.449-1.038c-0.299-0.283-0.698-0.424-1.2-0.424
			c-0.383,0-0.713,0.077-0.994,0.231c-0.28,0.154-0.682,0.537-1.201,1.148v3.633h0.656c0.138,0,0.236,0.027,0.297,0.08
			c0.06,0.052,0.09,0.123,0.09,0.21c0,0.083-0.03,0.151-0.09,0.207c-0.061,0.055-0.159,0.082-0.297,0.082h-1.892
			c-0.138,0-0.236-0.027-0.297-0.082c-0.06-0.056-0.09-0.124-0.09-0.207c0-0.087,0.03-0.158,0.09-0.21
			c0.061-0.053,0.159-0.08,0.297-0.08h0.656v-4.805h-0.49c-0.139,0-0.237-0.028-0.297-0.083s-0.09-0.126-0.09-0.214
			c0-0.082,0.03-0.151,0.09-0.206c0.06-0.056,0.158-0.083,0.297-0.083H688.996z M699.646,213.091v8.073h2.276
			c0.144,0,0.244,0.027,0.304,0.08c0.061,0.052,0.091,0.123,0.091,0.21c0,0.083-0.03,0.151-0.091,0.207
			c-0.06,0.055-0.16,0.082-0.304,0.082h-5.135c-0.138,0-0.237-0.027-0.297-0.082c-0.061-0.056-0.09-0.124-0.09-0.207
			c0-0.087,0.029-0.158,0.09-0.21c0.06-0.053,0.159-0.08,0.297-0.08h2.278v-7.487h-1.671c-0.139,0-0.238-0.028-0.301-0.083
			c-0.062-0.055-0.093-0.126-0.093-0.213c0-0.083,0.03-0.152,0.09-0.207c0.06-0.055,0.161-0.083,0.304-0.083H699.646z
			 M708.141,215.773v5.391h2.278c0.144,0,0.244,0.027,0.304,0.08c0.06,0.052,0.09,0.123,0.09,0.21c0,0.083-0.03,0.151-0.09,0.207
			c-0.06,0.055-0.16,0.082-0.304,0.082h-5.135c-0.139,0-0.238-0.027-0.297-0.082c-0.061-0.056-0.09-0.124-0.09-0.207
			c0-0.087,0.029-0.158,0.09-0.21c0.059-0.053,0.158-0.08,0.297-0.08h2.276v-4.805h-1.69c-0.138,0-0.238-0.028-0.3-0.083
			c-0.063-0.055-0.094-0.124-0.094-0.207c0-0.087,0.03-0.158,0.091-0.213c0.059-0.056,0.161-0.083,0.303-0.083H708.141z
			 M708.12,214.298h-0.856v-1.496h0.856V214.298z M714.442,215.773v0.876c0.404-0.41,0.77-0.692,1.097-0.849
			c0.327-0.156,0.695-0.234,1.105-0.234c0.44,0,0.844,0.094,1.207,0.283c0.258,0.138,0.491,0.366,0.7,0.686
			c0.21,0.319,0.314,0.647,0.314,0.982v3.647h0.49c0.138,0,0.236,0.027,0.297,0.08c0.06,0.052,0.09,0.123,0.09,0.21
			c0,0.083-0.03,0.151-0.09,0.207c-0.061,0.055-0.159,0.082-0.297,0.082h-1.554c-0.142,0-0.244-0.027-0.303-0.082
			c-0.06-0.056-0.09-0.124-0.09-0.207c0-0.087,0.03-0.158,0.09-0.21c0.059-0.053,0.161-0.08,0.303-0.08h0.483v-3.55
			c0-0.409-0.149-0.755-0.448-1.038c-0.299-0.283-0.7-0.424-1.201-0.424c-0.382,0-0.714,0.077-0.994,0.231
			c-0.28,0.154-0.681,0.537-1.2,1.148v3.633h0.655c0.139,0,0.236,0.027,0.297,0.08c0.06,0.052,0.09,0.123,0.09,0.21
			c0,0.083-0.03,0.151-0.09,0.207c-0.061,0.055-0.158,0.082-0.297,0.082h-1.892c-0.138,0-0.237-0.027-0.297-0.082
			c-0.06-0.056-0.089-0.124-0.089-0.207c0-0.087,0.029-0.158,0.089-0.21c0.06-0.053,0.159-0.08,0.297-0.08h0.656v-4.805h-0.49
			c-0.138,0-0.237-0.028-0.297-0.083c-0.061-0.055-0.09-0.126-0.09-0.214c0-0.082,0.029-0.151,0.09-0.206
			c0.06-0.056,0.159-0.083,0.297-0.083H714.442z M727.936,218.896h-5.909c0.101,0.749,0.415,1.352,0.941,1.81
			c0.527,0.457,1.181,0.686,1.957,0.686c0.434,0,0.886-0.071,1.36-0.214c0.474-0.142,0.86-0.331,1.16-0.565
			c0.087-0.069,0.163-0.104,0.227-0.104c0.074,0,0.139,0.029,0.194,0.086c0.055,0.058,0.083,0.126,0.083,0.204
			s-0.037,0.154-0.111,0.227c-0.221,0.23-0.613,0.445-1.177,0.645c-0.564,0.2-1.142,0.3-1.736,0.3c-0.994,0-1.823-0.325-2.487-0.976
			c-0.665-0.65-0.998-1.437-0.998-2.361c0-0.841,0.312-1.563,0.936-2.165c0.623-0.602,1.396-0.903,2.316-0.903
			c0.946,0,1.727,0.309,2.339,0.927C727.642,217.112,727.944,217.912,727.936,218.896 M727.348,218.31
			c-0.114-0.639-0.418-1.158-0.907-1.558c-0.49-0.4-1.073-0.6-1.749-0.6c-0.678,0-1.26,0.198-1.747,0.593
			c-0.488,0.395-0.791,0.917-0.911,1.565H727.348z"/>
		<rect x="431.487" y="182.139" clip-path="url(#SVGID_10_)" fill="#231F20" width="277.223" height="23.376"/>
	</g>
	<g clip-path="url(#SVGID_2_)">
		<path fill="#FFFFFF" d="M435.246,189.291c0.607-0.101,1.403-0.188,2.416-0.188c1.244,0,2.155,0.289,2.734,0.809
			c0.535,0.462,0.854,1.169,0.854,2.035c0,0.88-0.26,1.573-0.752,2.079c-0.665,0.707-1.75,1.068-2.979,1.068
			c-0.376,0-0.724-0.014-1.013-0.086v3.897h-1.258V189.291z M436.504,193.982c0.275,0.072,0.622,0.101,1.042,0.101
			c1.519,0,2.444-0.736,2.444-2.079c0-1.285-0.911-1.905-2.3-1.905c-0.55,0-0.969,0.043-1.186,0.101V193.982z"/>
	</g>
	<g clip-path="url(#SVGID_2_)">
		<path fill="#FFFFFF" d="M445.742,189.176h1.259v8.675h4.166v1.054h-5.425V189.176z"/>
	</g>
	<g clip-path="url(#SVGID_2_)">
		<path fill="#FFFFFF" d="M456.153,195.845l-1.013,3.06h-1.302l3.313-9.729h1.519l3.327,9.729h-1.345l-1.042-3.06H456.153z
			 M459.35,194.863l-0.955-2.801c-0.217-0.635-0.361-1.212-0.506-1.775h-0.029c-0.145,0.578-0.304,1.169-0.492,1.761l-0.955,2.815
			H459.35z"/>
	</g>
	<g clip-path="url(#SVGID_2_)">
		<path fill="#FFFFFF" d="M465.506,198.905v-9.729h1.374l3.125,4.922c0.723,1.14,1.288,2.165,1.75,3.161l0.029-0.015
			c-0.116-1.299-0.145-2.482-0.145-3.999v-4.07h1.187v9.729h-1.273l-3.096-4.937c-0.68-1.083-1.331-2.194-1.823-3.248l-0.043,0.015
			c0.073,1.227,0.102,2.396,0.102,4.013v4.157H465.506z"/>
	</g>
	<g clip-path="url(#SVGID_2_)">
		<path fill="#FFFFFF" d="M482.596,198.905v-4.128l-3.081-5.601h1.432l1.374,2.685c0.376,0.736,0.666,1.328,0.969,2.007h0.029
			c0.274-0.635,0.607-1.271,0.983-2.007l1.403-2.685h1.432l-3.269,5.586v4.143H482.596z"/>
	</g>
	<g clip-path="url(#SVGID_2_)">
		<path fill="#FFFFFF" d="M497.881,193.939c0,3.349-2.039,5.124-4.527,5.124c-2.575,0-4.383-1.992-4.383-4.937
			c0-3.089,1.924-5.11,4.527-5.11C496.16,189.017,497.881,191.052,497.881,193.939z M490.316,194.098c0,2.079,1.128,3.94,3.11,3.94
			c1.996,0,3.125-1.833,3.125-4.042c0-1.935-1.013-3.955-3.11-3.955C491.357,190.042,490.316,191.961,490.316,194.098z"/>
	</g>
	<g clip-path="url(#SVGID_2_)">
		<path fill="#FFFFFF" d="M502.706,189.176v5.759c0,2.18,0.97,3.104,2.271,3.104c1.446,0,2.372-0.953,2.372-3.104v-5.759h1.273
			v5.673c0,2.988-1.577,4.215-3.688,4.215c-1.997,0-3.501-1.14-3.501-4.157v-5.73H502.706z"/>
	</g>
	<g clip-path="url(#SVGID_2_)">
		<path fill="#FFFFFF" d="M512.104,189.306c0.637-0.13,1.548-0.202,2.415-0.202c1.346,0,2.214,0.246,2.821,0.794
			c0.492,0.433,0.767,1.097,0.767,1.848c0,1.285-0.811,2.136-1.837,2.483v0.043c0.752,0.26,1.2,0.953,1.432,1.963
			c0.318,1.357,0.55,2.295,0.752,2.67h-1.302c-0.159-0.274-0.376-1.111-0.65-2.324c-0.29-1.342-0.811-1.848-1.953-1.891h-1.187
			v4.215h-1.258V189.306z M513.361,193.737h1.288c1.345,0,2.198-0.736,2.198-1.848c0-1.256-0.911-1.805-2.242-1.819
			c-0.607,0-1.041,0.058-1.244,0.115V193.737z"/>
	</g>
	<g clip-path="url(#SVGID_2_)">
		<path fill="#FFFFFF" d="M535.021,194.343h-3.79v3.508h4.225v1.054h-5.482v-9.729h5.265v1.054h-4.007v3.075h3.79V194.343z"/>
	</g>
	<g clip-path="url(#SVGID_2_)">
		<path fill="#FFFFFF" d="M542.264,194.531v0.938h-3.573v-0.938H542.264z"/>
	</g>
	<g clip-path="url(#SVGID_2_)">
		<path fill="#FFFFFF" d="M552.154,198.587c-0.463,0.231-1.389,0.462-2.574,0.462c-2.749,0-4.817-1.732-4.817-4.922
			c0-3.046,2.068-5.11,5.092-5.11c1.216,0,1.982,0.26,2.314,0.433l-0.304,1.024c-0.478-0.23-1.157-0.404-1.967-0.404
			c-2.286,0-3.805,1.458-3.805,4.013c0,2.382,1.374,3.912,3.746,3.912c0.768,0,1.548-0.159,2.055-0.404L552.154,198.587z"/>
	</g>
	<g clip-path="url(#SVGID_2_)">
		<path fill="#FFFFFF" d="M563.52,193.939c0,3.349-2.04,5.124-4.528,5.124c-2.574,0-4.383-1.992-4.383-4.937
			c0-3.089,1.924-5.11,4.528-5.11C561.798,189.017,563.52,191.052,563.52,193.939z M555.954,194.098c0,2.079,1.128,3.94,3.11,3.94
			c1.996,0,3.124-1.833,3.124-4.042c0-1.935-1.013-3.955-3.11-3.955C556.995,190.042,555.954,191.961,555.954,194.098z"/>
	</g>
	<g clip-path="url(#SVGID_2_)">
		<path fill="#FFFFFF" d="M575.287,194.632c-0.072-1.356-0.159-2.988-0.145-4.2H575.1c-0.333,1.14-0.738,2.353-1.229,3.695
			l-1.722,4.72h-0.955l-1.576-4.634c-0.463-1.371-0.854-2.627-1.129-3.782h-0.028c-0.029,1.212-0.102,2.844-0.188,4.301l-0.26,4.172
			h-1.201l0.68-9.729h1.605l1.664,4.706c0.405,1.198,0.737,2.267,0.983,3.277h0.044c0.245-0.981,0.593-2.05,1.026-3.277l1.736-4.706
			h1.605l0.607,9.729h-1.229L575.287,194.632z"/>
	</g>
	<g clip-path="url(#SVGID_2_)">
		<path fill="#FFFFFF" d="M587.519,194.632c-0.072-1.356-0.159-2.988-0.145-4.2h-0.043c-0.333,1.14-0.738,2.353-1.229,3.695
			l-1.722,4.72h-0.955l-1.576-4.634c-0.463-1.371-0.854-2.627-1.129-3.782h-0.028c-0.029,1.212-0.102,2.844-0.188,4.301l-0.26,4.172
			h-1.201l0.68-9.729h1.606l1.663,4.706c0.405,1.198,0.737,2.267,0.983,3.277h0.044c0.245-0.981,0.593-2.05,1.026-3.277l1.736-4.706
			h1.605l0.607,9.729h-1.229L587.519,194.632z"/>
	</g>
	<g clip-path="url(#SVGID_2_)">
		<path fill="#FFFFFF" d="M596.596,194.343h-3.79v3.508h4.225v1.054h-5.482v-9.729h5.265v1.054h-4.007v3.075h3.79V194.343z"/>
	</g>
	<g clip-path="url(#SVGID_2_)">
		<path fill="#FFFFFF" d="M600.975,189.306c0.637-0.13,1.548-0.202,2.415-0.202c1.346,0,2.214,0.246,2.821,0.794
			c0.492,0.433,0.767,1.097,0.767,1.848c0,1.285-0.811,2.136-1.837,2.483v0.043c0.752,0.26,1.2,0.953,1.432,1.963
			c0.318,1.357,0.55,2.295,0.752,2.67h-1.302c-0.159-0.274-0.376-1.111-0.65-2.324c-0.29-1.342-0.811-1.848-1.953-1.891h-1.187
			v4.215h-1.258V189.306z M602.232,193.737h1.288c1.345,0,2.198-0.736,2.198-1.848c0-1.256-0.911-1.805-2.242-1.819
			c-0.607,0-1.041,0.058-1.244,0.115V193.737z"/>
		<path fill="#FFFFFF" d="M615.06,198.587c-0.463,0.231-1.389,0.462-2.574,0.462c-2.749,0-4.817-1.732-4.817-4.922
			c0-3.046,2.068-5.11,5.092-5.11c1.215,0,1.982,0.26,2.314,0.433l-0.304,1.024c-0.478-0.23-1.157-0.404-1.967-0.404
			c-2.286,0-3.805,1.458-3.805,4.013c0,2.382,1.374,3.912,3.746,3.912c0.767,0,1.548-0.159,2.055-0.404L615.06,198.587z"/>
	</g>
	<g clip-path="url(#SVGID_2_)">
		<path fill="#FFFFFF" d="M626.104,194.343h-3.79v3.508h4.225v1.054h-5.482v-9.729h5.266v1.054h-4.008v3.075h3.79V194.343z"/>
	</g>
	<g clip-path="url(#SVGID_2_)">
		<path fill="#FFFFFF" d="M634.242,189.306c0.55-0.116,1.417-0.202,2.3-0.202c1.259,0,2.068,0.217,2.676,0.708
			c0.507,0.375,0.811,0.953,0.811,1.718c0,0.938-0.622,1.761-1.649,2.136v0.029c0.926,0.231,2.011,0.996,2.011,2.439
			c0,0.837-0.333,1.472-0.824,1.949c-0.68,0.621-1.779,0.909-3.371,0.909c-0.867,0-1.533-0.058-1.952-0.115V189.306z M635.5,193.29
			h1.144c1.33,0,2.111-0.693,2.111-1.631c0-1.141-0.868-1.588-2.141-1.588c-0.579,0-0.911,0.043-1.114,0.086V193.29z M635.5,197.952
			c0.246,0.043,0.608,0.058,1.057,0.058c1.302,0,2.502-0.476,2.502-1.891c0-1.328-1.143-1.876-2.517-1.876H635.5V197.952z"/>
	</g>
	<g clip-path="url(#SVGID_2_)">
		<path fill="#FFFFFF" d="M645.62,189.176v5.759c0,2.18,0.97,3.104,2.271,3.104c1.446,0,2.372-0.953,2.372-3.104v-5.759h1.273v5.673
			c0,2.988-1.577,4.215-3.688,4.215c-1.997,0-3.501-1.14-3.501-4.157v-5.73H645.62z"/>
		<path fill="#FFFFFF" d="M653.123,197.375c0.564,0.347,1.389,0.635,2.257,0.635c1.287,0,2.039-0.678,2.039-1.66
			c0-0.909-0.521-1.429-1.837-1.934c-1.591-0.563-2.574-1.386-2.574-2.757c0-1.516,1.258-2.642,3.153-2.642
			c0.998,0,1.721,0.231,2.155,0.476l-0.348,1.025c-0.318-0.173-0.969-0.462-1.852-0.462c-1.331,0-1.837,0.794-1.837,1.458
			c0,0.909,0.593,1.357,1.938,1.876c1.648,0.635,2.488,1.429,2.488,2.858c0,1.501-1.114,2.8-3.414,2.8
			c-0.94,0-1.968-0.274-2.488-0.621L653.123,197.375z"/>
	</g>
	<g clip-path="url(#SVGID_2_)">
		<path fill="#FFFFFF" d="M664.965,189.176v9.729h-1.258v-9.729H664.965z"/>
	</g>
	<g clip-path="url(#SVGID_2_)">
		<path fill="#FFFFFF" d="M668.174,198.905v-9.729h1.374l3.124,4.922c0.724,1.14,1.288,2.165,1.751,3.161l0.028-0.015
			c-0.115-1.299-0.145-2.482-0.145-3.999v-4.07h1.187v9.729h-1.273l-3.095-4.937c-0.681-1.083-1.331-2.194-1.823-3.248l-0.043,0.015
			c0.072,1.227,0.101,2.396,0.101,4.013v4.157H668.174z"/>
	</g>
	<g clip-path="url(#SVGID_2_)">
		<path fill="#FFFFFF" d="M684.325,194.343h-3.79v3.508h4.225v1.054h-5.482v-9.729h5.266v1.054h-4.008v3.075h3.79V194.343z"/>
	</g>
	<g clip-path="url(#SVGID_2_)">
		<path fill="#FFFFFF" d="M688.429,197.375c0.564,0.347,1.389,0.635,2.257,0.635c1.287,0,2.039-0.678,2.039-1.66
			c0-0.909-0.521-1.429-1.837-1.934c-1.591-0.563-2.575-1.386-2.575-2.757c0-1.516,1.259-2.642,3.154-2.642
			c0.998,0,1.721,0.231,2.155,0.476l-0.348,1.025c-0.318-0.173-0.969-0.462-1.852-0.462c-1.331,0-1.837,0.794-1.837,1.458
			c0,0.909,0.593,1.357,1.938,1.876c1.649,0.635,2.488,1.429,2.488,2.858c0,1.501-1.114,2.8-3.414,2.8
			c-0.94,0-1.968-0.274-2.488-0.621L688.429,197.375z"/>
	</g>
	<g clip-path="url(#SVGID_2_)">
		<path fill="#FFFFFF" d="M697.219,197.375c0.564,0.347,1.389,0.635,2.257,0.635c1.287,0,2.039-0.678,2.039-1.66
			c0-0.909-0.521-1.429-1.837-1.934c-1.591-0.563-2.574-1.386-2.574-2.757c0-1.516,1.258-2.642,3.153-2.642
			c0.998,0,1.721,0.231,2.155,0.476l-0.348,1.025c-0.318-0.173-0.969-0.462-1.852-0.462c-1.331,0-1.837,0.794-1.837,1.458
			c0,0.909,0.593,1.357,1.938,1.876c1.648,0.635,2.488,1.429,2.488,2.858c0,1.501-1.114,2.8-3.414,2.8
			c-0.94,0-1.968-0.274-2.488-0.621L697.219,197.375z"/>
	</g>
	<g clip-path="url(#SVGID_2_)">
		<defs>
			<rect id="SVGID_11_" x="401.644" y="4.239" width="536.356" height="413.251"/>
		</defs>
		<clipPath id="SVGID_12_">
			<use xlink:href="#SVGID_11_"  overflow="visible"/>
		</clipPath>
		<rect x="430.282" y="110.176" clip-path="url(#SVGID_12_)" fill="#231F20" width="129.364" height="35.063"/>
		<rect x="430.283" y="144.551" clip-path="url(#SVGID_12_)" fill="#231F20" width="273.643" height="35.064"/>
	</g>
	<g clip-path="url(#SVGID_2_)">
		<path fill="#FFFFFF" d="M439.093,117.188c1.446-0.24,3.339-0.447,5.749-0.447c2.961,0,5.129,0.688,6.506,1.925
			c1.274,1.1,2.031,2.785,2.031,4.847c0,2.097-0.619,3.747-1.79,4.951c-1.583,1.685-4.165,2.544-7.091,2.544
			c-0.896,0-1.722-0.035-2.41-0.207v9.282h-2.995V117.188z M442.088,128.361c0.654,0.172,1.48,0.241,2.479,0.241
			c3.615,0,5.818-1.753,5.818-4.95c0-3.06-2.168-4.538-5.473-4.538c-1.309,0-2.307,0.103-2.823,0.241V128.361z"/>
	</g>
	<g clip-path="url(#SVGID_2_)">
		<path fill="#FFFFFF" d="M462.601,132.796l-2.409,7.288h-3.099l7.883-23.171h3.615l7.917,23.171h-3.201l-2.479-7.288H462.601z
			 M470.208,130.458l-2.272-6.669c-0.517-1.512-0.86-2.888-1.205-4.229h-0.068c-0.345,1.375-0.723,2.785-1.171,4.194l-2.271,6.704
			H470.208z"/>
	</g>
	<g clip-path="url(#SVGID_2_)">
		<path fill="#FFFFFF" d="M484.868,117.223c1.515-0.31,3.683-0.481,5.749-0.481c3.202,0,5.267,0.584,6.713,1.891
			c1.171,1.032,1.824,2.613,1.824,4.4c0,3.06-1.928,5.088-4.372,5.913v0.104c1.791,0.619,2.857,2.269,3.408,4.675
			c0.758,3.231,1.309,5.466,1.79,6.36h-3.098c-0.379-0.653-0.896-2.647-1.55-5.535c-0.688-3.197-1.928-4.4-4.646-4.504h-2.823
			v10.039h-2.995V117.223z M487.862,127.777h3.064c3.202,0,5.232-1.753,5.232-4.4c0-2.991-2.168-4.297-5.335-4.332
			c-1.446,0-2.479,0.138-2.961,0.275V127.777z"/>
	</g>
	<g clip-path="url(#SVGID_2_)">
		<path fill="#FFFFFF" d="M512.918,119.457h-7.057v-2.544h17.178v2.544h-7.092v20.627h-3.029V119.457z"/>
	</g>
	<g clip-path="url(#SVGID_2_)">
		<path fill="#FFFFFF" d="M545.305,120.557h-0.068l-3.891,2.097l-0.585-2.303l4.888-2.613h2.582v22.346h-2.926V120.557z"/>
	</g>
	<g clip-path="url(#SVGID_2_)">
		<path fill="#FFF200" d="M443.5,153.832h-7.057v-2.544h17.178v2.544h-7.091v20.627H443.5V153.832z"/>
	</g>
	<g clip-path="url(#SVGID_2_)">
		<path fill="#FFF200" d="M460.776,167.171l-2.409,7.288h-3.099l7.883-23.171h3.615l7.917,23.171h-3.201l-2.479-7.288H460.776z
			 M468.384,164.833l-2.272-6.669c-0.517-1.512-0.86-2.888-1.205-4.229h-0.068c-0.345,1.375-0.723,2.785-1.171,4.194l-2.271,6.704
			H468.384z"/>
	</g>
	<g clip-path="url(#SVGID_2_)">
		<path fill="#FFF200" d="M483.043,151.288h2.995v20.661h9.914v2.51h-12.909V151.288z"/>
	</g>
	<g clip-path="url(#SVGID_2_)">
		<path fill="#FFF200" d="M503.005,151.288H506v11.173h0.104c0.619-0.894,1.238-1.719,1.824-2.475l7.091-8.698h3.718l-8.399,9.832
			l9.054,13.339h-3.546l-7.642-11.379L506,165.624v8.835h-2.995V151.288z"/>
	</g>
	<g clip-path="url(#SVGID_2_)">
		<path fill="#FFF200" d="M529.92,151.288v23.171h-2.995v-23.171H529.92z"/>
	</g>
	<g clip-path="url(#SVGID_2_)">
		<path fill="#FFF200" d="M536.871,174.459v-23.171h3.271l7.436,11.723c1.721,2.716,3.063,5.157,4.165,7.529l0.068-0.035
			c-0.275-3.094-0.344-5.913-0.344-9.522v-9.695h2.822v23.171h-3.029l-7.366-11.757c-1.618-2.578-3.167-5.226-4.337-7.735
			l-0.104,0.034c0.172,2.922,0.24,5.707,0.24,9.557v9.901H536.871z"/>
	</g>
	<g clip-path="url(#SVGID_2_)">
		<path fill="#FFF200" d="M580.825,173.428c-1.343,0.481-3.993,1.272-7.126,1.272c-3.511,0-6.402-0.894-8.674-3.06
			c-1.997-1.925-3.236-5.02-3.236-8.629c0.034-6.91,4.785-11.964,12.564-11.964c2.686,0,4.785,0.584,5.783,1.066l-0.723,2.441
			c-1.239-0.55-2.788-0.997-5.129-0.997c-5.646,0-9.329,3.506-9.329,9.316c0,5.879,3.546,9.351,8.95,9.351
			c1.962,0,3.305-0.275,3.993-0.619v-6.91h-4.716v-2.407h7.642V173.428z"/>
	</g>
	<g clip-path="url(#SVGID_2_)">
		<path fill="#FFF200" d="M598.718,170.815c1.343,0.825,3.305,1.513,5.37,1.513c3.063,0,4.854-1.616,4.854-3.954
			c0-2.166-1.239-3.403-4.371-4.606c-3.787-1.341-6.128-3.3-6.128-6.566c0-3.61,2.995-6.291,7.505-6.291
			c2.375,0,4.096,0.55,5.129,1.134l-0.826,2.441c-0.758-0.413-2.307-1.1-4.406-1.1c-3.167,0-4.372,1.891-4.372,3.472
			c0,2.166,1.411,3.231,4.612,4.469c3.925,1.513,5.922,3.403,5.922,6.807c0,3.576-2.651,6.669-8.125,6.669
			c-2.237,0-4.682-0.653-5.92-1.478L598.718,170.815z"/>
		<path fill="#FFF200" d="M618.164,151.288v9.695h11.222v-9.695h3.029v23.171h-3.029v-10.863h-11.222v10.863h-2.995v-23.171H618.164
			z"/>
	</g>
	<g clip-path="url(#SVGID_2_)">
		<path fill="#FFF200" d="M665.284,162.633c0,7.976-4.854,12.204-10.774,12.204c-6.128,0-10.431-4.744-10.431-11.757
			c0-7.357,4.578-12.17,10.774-12.17C661.188,150.91,665.284,155.757,665.284,162.633z M647.28,163.011
			c0,4.95,2.686,9.385,7.401,9.385c4.75,0,7.436-4.366,7.436-9.626c0-4.607-2.41-9.419-7.401-9.419
			C649.759,153.351,647.28,157.923,647.28,163.011z"/>
	</g>
	<g clip-path="url(#SVGID_2_)">
		<path fill="#FFF200" d="M673.608,151.563c1.446-0.24,3.339-0.447,5.749-0.447c2.96,0,5.129,0.688,6.506,1.925
			c1.273,1.1,2.031,2.785,2.031,4.847c0,2.097-0.62,3.747-1.79,4.951c-1.584,1.685-4.165,2.544-7.092,2.544
			c-0.895,0-1.721-0.035-2.409-0.207v9.282h-2.995V151.563z M676.604,162.736c0.654,0.172,1.48,0.241,2.479,0.241
			c3.614,0,5.817-1.753,5.817-4.95c0-3.06-2.169-4.538-5.474-4.538c-1.308,0-2.307,0.103-2.822,0.241V162.736z"/>
	</g>
	<g clip-path="url(#SVGID_2_)">
		<defs>
			<rect id="SVGID_13_" x="401.644" y="4.239" width="536.356" height="413.251"/>
		</defs>
		<clipPath id="SVGID_14_">
			<use xlink:href="#SVGID_13_"  overflow="visible"/>
		</clipPath>
		<polygon clip-path="url(#SVGID_14_)" fill="#FEF140" points="938,417.491 866.957,417.491 866.957,403.741 924.233,403.741 
			924.233,18.564 866.957,18.564 866.957,4.813 938,4.813 		"/>
		<polygon clip-path="url(#SVGID_14_)" fill="#FEF140" points="472.688,417.491 401.645,417.491 401.645,4.813 472.688,4.813 
			472.688,18.564 415.412,18.564 415.412,403.741 472.688,403.741 		"/>
		<g opacity="0.67" clip-path="url(#SVGID_14_)">
			<g>
				<defs>
					<rect id="SVGID_15_" x="727.357" y="247.83" width="56.991" height="25.471"/>
				</defs>
				<clipPath id="SVGID_16_">
					<use xlink:href="#SVGID_15_"  overflow="visible"/>
				</clipPath>
				<g clip-path="url(#SVGID_16_)">
					<defs>
						
							<rect id="SVGID_17_" x="753.525" y="233.871" transform="matrix(-0.035 -0.9994 0.9994 -0.035 526.5272 1019.9584)" width="4.322" height="43.816"/>
					</defs>
					<clipPath id="SVGID_18_">
						<use xlink:href="#SVGID_17_"  overflow="visible"/>
					</clipPath>
					<g clip-path="url(#SVGID_18_)">
						<defs>
							
								<rect id="SVGID_19_" x="733.779" y="253.616" transform="matrix(-0.9994 0.0349 -0.0349 -0.9994 1519.8911 485.0606)" width="43.878" height="4.323"/>
						</defs>
						<clipPath id="SVGID_20_">
							<use xlink:href="#SVGID_19_"  overflow="visible"/>
						</clipPath>
						<g transform="matrix(1 0 0 1 -6.103516e-005 1.525879e-005)" clip-path="url(#SVGID_20_)">
							
								<image overflow="visible" width="266" height="27" xlink:href="215AAEB3.jpg"  transform="matrix(0.1649 -0.0058 0.0056 0.16 733.7158 254.3823)">
							</image>
						</g>
					</g>
				</g>
				<g clip-path="url(#SVGID_16_)">
					<defs>
						<polygon id="SVGID_21_" points="733.867,258.703 734.018,263.023 771.185,261.726 777.807,261.495 777.656,257.175 						"/>
					</defs>
					<clipPath id="SVGID_22_">
						<use xlink:href="#SVGID_21_"  overflow="visible"/>
					</clipPath>
					<g clip-path="url(#SVGID_22_)">
						<defs>
							
								<rect id="SVGID_23_" x="733.93" y="257.937" transform="matrix(-0.9994 0.0349 -0.0349 -0.9994 1520.3433 493.6938)" width="43.878" height="4.323"/>
						</defs>
						<clipPath id="SVGID_24_">
							<use xlink:href="#SVGID_23_"  overflow="visible"/>
						</clipPath>
						<g transform="matrix(1 0 0 1 6.103516e-005 0)" clip-path="url(#SVGID_24_)">
							
								<image overflow="visible" width="266" height="27" xlink:href="215AAEB7.jpg"  transform="matrix(0.1649 -0.0058 0.0056 0.16 733.8672 258.7026)">
							</image>
						</g>
					</g>
				</g>
				<g clip-path="url(#SVGID_16_)">
					<defs>
						<polygon id="SVGID_25_" points="771.185,261.726 764.409,261.963 734.018,263.023 734.119,265.903 734.17,267.343 
							762.925,266.34 767.809,266.17 777.957,265.816 777.807,261.496 						"/>
					</defs>
					<clipPath id="SVGID_26_">
						<use xlink:href="#SVGID_25_"  overflow="visible"/>
					</clipPath>
					<g clip-path="url(#SVGID_26_)">
						<defs>
							
								<rect id="SVGID_27_" x="734.08" y="262.257" transform="matrix(-0.9994 0.0349 -0.0349 -0.9994 1520.7981 502.3192)" width="43.879" height="4.323"/>
						</defs>
						<clipPath id="SVGID_28_">
							<use xlink:href="#SVGID_27_"  overflow="visible"/>
						</clipPath>
						<g transform="matrix(1 0 0 1 6.103516e-005 0)" clip-path="url(#SVGID_28_)">
							
								<image overflow="visible" width="266" height="27" xlink:href="215AAEA9.jpg"  transform="matrix(0.1649 -0.0058 0.0056 0.16 734.0186 263.0229)">
							</image>
						</g>
					</g>
				</g>
				<g clip-path="url(#SVGID_16_)">
					<defs>
						<polygon id="SVGID_29_" points="767.809,266.17 734.17,267.343 734.198,268.137 734.201,268.235 734.216,268.684 
							778.004,267.156 777.957,265.816 						"/>
					</defs>
					<clipPath id="SVGID_30_">
						<use xlink:href="#SVGID_29_"  overflow="visible"/>
					</clipPath>
					<g clip-path="url(#SVGID_30_)">
						<defs>
							
								<rect id="SVGID_31_" x="734.179" y="266.578" transform="matrix(-0.9994 0.0349 -0.0349 -0.9994 1521.095 507.9752)" width="43.879" height="1.342"/>
						</defs>
						<clipPath id="SVGID_32_">
							<use xlink:href="#SVGID_31_"  overflow="visible"/>
						</clipPath>
						<g transform="matrix(1 0 0 1 -6.103516e-005 0)" clip-path="url(#SVGID_32_)">
							
								<image overflow="visible" width="266" height="9" xlink:href="215AAEAA.jpg"  transform="matrix(0.1649 -0.0058 0.0052 0.149 734.1689 267.3438)">
							</image>
						</g>
					</g>
				</g>
			</g>
		</g>
		<g opacity="0.1" clip-path="url(#SVGID_14_)">
			<g>
				<defs>
					<rect id="SVGID_33_" x="686.573" y="42.64" width="40.507" height="43.335"/>
				</defs>
				<clipPath id="SVGID_34_">
					<use xlink:href="#SVGID_33_"  overflow="visible"/>
				</clipPath>
				<g clip-path="url(#SVGID_34_)">
					<defs>
						<rect id="SVGID_35_" x="686.573" y="42.64" width="40.507" height="43.335"/>
					</defs>
					<clipPath id="SVGID_36_">
						<use xlink:href="#SVGID_35_"  overflow="visible"/>
					</clipPath>
					<path clip-path="url(#SVGID_36_)" fill="#FFFFFF" d="M702.063,60.978l-0.019-0.069c-0.299-1.111,0.175-2.13,1.821-2.794
						l1.267,4.721C703.034,62.654,702.361,62.089,702.063,60.978 M713.157,69.878l0.019,0.069c0.336,1.25-0.303,2.203-1.871,2.883
						L710,67.97C712.063,68.162,712.851,68.733,713.157,69.878 M713.296,53.779c-2.263-0.812-4.586-1.155-7.133-0.807l-0.566-2.113
						l-3.604,0.965l0.539,2.009c-4.253,1.622-6.485,4.935-5.461,8.751l0.018,0.07c1.108,4.129,4.072,5.344,9.434,5.359l1.479,5.517
						c-2.162,0.133-4.156-0.375-6.411-1.297l-1.644,4.68c2.754,1.122,5.983,1.523,9.073,1.105l0.938,3.5l3.604-0.964l-0.921-3.431
						c4.254-1.622,6.564-4.918,5.521-8.804l-0.018-0.07c-1.044-3.891-3.865-5.406-9.523-5.417l-1.416-5.276
						c1.528,0,3.217,0.33,4.855,0.895L713.296,53.779z"/>
				</g>
			</g>
		</g>
		<g opacity="0.14" clip-path="url(#SVGID_14_)">
			<g>
				<defs>
					<rect id="SVGID_37_" x="837.445" y="38.993" width="37.083" height="38.939"/>
				</defs>
				<clipPath id="SVGID_38_">
					<use xlink:href="#SVGID_37_"  overflow="visible"/>
				</clipPath>
				<g clip-path="url(#SVGID_38_)">
					<defs>
						<rect id="SVGID_39_" x="837.445" y="38.994" width="37.083" height="38.938"/>
					</defs>
					<clipPath id="SVGID_40_">
						<use xlink:href="#SVGID_39_"  overflow="visible"/>
					</clipPath>
					<path clip-path="url(#SVGID_40_)" fill="#FFFFFF" d="M853.771,54.117l0.016-0.061c0.261-0.97,1.063-1.535,2.601-1.319
						l-1.106,4.125C853.773,55.808,853.511,55.088,853.771,54.117 M858.273,65.693l-0.017,0.06
						c-0.293,1.092-1.193,1.534-2.677,1.364l1.139-4.246C858.196,63.916,858.542,64.692,858.273,65.693 M865.42,53.571
						c-1.357-1.602-2.965-2.875-5.044-3.724l0.495-1.846l-3.149-0.842l-0.471,1.756c-3.929-0.628-7.066,0.904-7.96,4.239
						l-0.018,0.06c-0.967,3.608,0.744,5.82,4.794,8.171l-1.293,4.821c-1.694-0.843-2.981-2.098-4.284-3.778l-3.291,2.823
						c1.595,2.051,3.861,3.762,6.383,4.795l-0.82,3.058l3.147,0.843l0.806-2.998c3.928,0.629,7.117-0.857,8.028-4.253l0.017-0.06
						c0.912-3.4-0.562-5.777-4.837-8.254l1.236-4.61c1.156,0.666,2.29,1.653,3.282,2.796L865.42,53.571z"/>
				</g>
			</g>
		</g>
		<g opacity="0.36" clip-path="url(#SVGID_14_)">
			<g>
				<defs>
					<rect id="SVGID_41_" x="768.679" y="13.677" width="33.129" height="35.846"/>
				</defs>
				<clipPath id="SVGID_42_">
					<use xlink:href="#SVGID_41_"  overflow="visible"/>
				</clipPath>
				<g clip-path="url(#SVGID_42_)">
					<defs>
						<rect id="SVGID_43_" x="768.679" y="13.678" width="33.129" height="35.845"/>
					</defs>
					<clipPath id="SVGID_44_">
						<use xlink:href="#SVGID_43_"  overflow="visible"/>
					</clipPath>
					<path clip-path="url(#SVGID_44_)" fill="#73D1D0" d="M782.206,27.489l0.006-0.064c0.092-1.037,0.809-1.758,2.415-1.814
						l-0.386,4.408C782.514,29.215,782.115,28.527,782.206,27.489 M788.886,38.492l-0.006,0.065
						c-0.103,1.167-0.94,1.779-2.486,1.873l0.397-4.538C788.487,36.693,788.979,37.422,788.886,38.492 M793.994,24.839
						c-1.673-1.39-3.544-2.401-5.818-2.893l0.174-1.973l-3.365-0.293l-0.165,1.876c-4.121,0.065-7.046,2.192-7.359,5.755
						l-0.005,0.066c-0.338,3.855,1.808,5.805,6.363,7.476l-0.451,5.151c-1.881-0.556-3.421-1.604-5.052-3.085l-2.849,3.472
						c1.994,1.807,4.616,3.146,7.375,3.746l-0.286,3.268l3.365,0.294l0.28-3.204c4.121-0.064,7.109-2.153,7.426-5.781l0.006-0.065
						c0.318-3.633-1.612-5.795-6.422-7.554l0.433-4.926c1.299,0.472,2.634,1.275,3.852,2.263L793.994,24.839z"/>
				</g>
			</g>
		</g>
	</g>
	<g clip-path="url(#SVGID_2_)">
		<defs>
			<rect id="SVGID_45_" x="428.489" y="367.824" width="49.781" height="24.288"/>
		</defs>
		<clipPath id="SVGID_46_">
			<use xlink:href="#SVGID_45_"  overflow="visible"/>
		</clipPath>
		<path clip-path="url(#SVGID_46_)" fill="#272222" d="M435.905,376.371c0.275-0.237,0.58-0.439,0.914-0.593
			c0.576-0.262,1.197-0.372,1.828-0.372c1.342,0,2.619,0.355,3.545,1.37c0.95,1.046,1.233,2.465,1.233,3.838v5.815
			c0,0.663-0.528,0.562-1.352,0.562c-0.78,0-1.269,0.081-1.269-0.533v-5.412c0-0.767-0.095-1.763-0.581-2.394
			c-0.427-0.554-1.085-0.716-1.756-0.716c-0.752,0-1.428,0.21-1.865,0.85c-0.538,0.795-0.619,2.169-0.619,3.096v4.594
			c0,0.619-0.616,0.515-1.387,0.515c-0.77,0-1.224,0.109-1.224-0.529v-10.45c0-0.663,0.454-0.548,1.249-0.548
			c0.797,0,1.284-0.125,1.284,0.545V376.371z"/>
		<path clip-path="url(#SVGID_46_)" fill="#272222" d="M457.366,377.892h-1.507c-0.492,0-0.437-0.679-0.437-1.346
			c0-0.633-0.013-1.114,0.421-1.114h1.523v-2.74c0-0.541,0.335-0.695,1.3-0.695c0.967,0,1.301,0.14,1.301,0.695v2.74h1.243
			c0.638,0,0.632,0.365,0.632,1.253c0,0.821-0.019,1.207-0.577,1.207h-1.298v8.609c0,0.611-0.481,0.493-1.259,0.493
			c-0.72,0-1.342,0.089-1.342-0.476V377.892z"/>
		<path clip-path="url(#SVGID_46_)" fill="#1ABAEC" d="M453.166,379.082c-0.001,0.001-0.002,0.001-0.002,0.001
			c-0.015,0.011-0.03,0.018-0.044,0.027c-0.014,0.008-0.026,0.017-0.041,0.025l-0.667,0.366l-4.901,2.687
			c0.022,0.08,0.054,0.157,0.095,0.23c0.142,0.253,0.379,0.434,0.661,0.505c0.343,0.086,0.698-0.003,1.002-0.17l5.195-2.849
			c0.256-0.138,0.43-0.36,0.534-0.628c0.357-0.928-1.135-2.267-1.641-2.651c-0.568-0.432-1.196-0.744-1.85-0.939
			c0.118,0.077,0.233,0.158,0.348,0.244c0.637,0.485,1.159,1.082,1.568,1.769c0.181,0.261,0.257,0.559,0.14,0.863
			c-0.023,0.061-0.051,0.12-0.082,0.176C453.402,378.874,453.298,378.992,453.166,379.082"/>
		<path clip-path="url(#SVGID_46_)" fill="#45C5F0" d="M455.283,382.059c-0.142-0.264-0.366-0.449-0.654-0.535
			c-0.286-0.085-0.578-0.053-0.84,0.089c-0.264,0.141-0.448,0.363-0.535,0.65c-0.108,0.336-0.263,0.653-0.459,0.944v0.001v-0.001
			c-0.139,0.294-0.313,0.569-0.519,0.826c-0.036,0.045-0.073,0.089-0.111,0.131c-0.309,0.349-0.678,0.631-1.09,0.853
			c-0.2,0.108-0.408,0.198-0.621,0.269c-0.207,0.07-0.419,0.121-0.636,0.154c-0.029,0.005-0.057,0.01-0.086,0.014
			c-0.173,0.022-0.346,0.034-0.519,0.035c-0.288,0.003-0.576-0.025-0.859-0.086c-3.706-0.79-4.174-5.948-0.801-7.494
			c0.338-0.155,0.7-0.26,1.078-0.307l0.016-0.002c0.088-0.011,0.176-0.018,0.265-0.023c0,0,0.007,0,0.01-0.001
			c0.085-0.004,0.171-0.006,0.256-0.004h0.02c0.083,0,0.167,0.004,0.249,0.011c0.009,0,0.018,0.001,0.026,0.002
			c0.082,0.006,0.164,0.015,0.245,0.026c0.005,0.001,0.01,0.001,0.015,0.002c0.016,0.002,0.033,0.005,0.05,0.007
			c0.002,0,0.006,0.001,0.008,0.001c0,0,0.002,0,0.003,0.001c0.867,0.005,1.731,0.31,2.392,0.876l0.094,0.081l-0.108,0.06
			c-1.345,0.739-2.69,1.475-4.033,2.214c-0.295,0.162-0.532,0.411-0.628,0.738c-0.056,0.194-0.056,0.404-0.001,0.598l4.901-2.688
			l0.668-0.366c0.014-0.008,0.027-0.017,0.041-0.025c0.014-0.008,0.029-0.016,0.043-0.026c0,0,0.001-0.001,0.003-0.002
			c0.132-0.089,0.236-0.207,0.314-0.344c0.032-0.055,0.059-0.114,0.083-0.176c0.117-0.304,0.041-0.602-0.14-0.863
			c-0.409-0.687-0.931-1.284-1.569-1.768c-0.114-0.087-0.229-0.168-0.347-0.245c-2.212-0.662-4.721,0.011-6.216,1.925
			c-0.927,1.186-1.382,2.654-1.242,4.155c0.072,0.771,0.307,1.507,0.675,2.186c0.377,0.698,0.873,1.317,1.497,1.809
			c0.587,0.464,1.249,0.81,1.969,1.014c0.713,0.2,1.45,0.26,2.186,0.183c0.768-0.078,1.501-0.317,2.18-0.683
			c0.678-0.366,1.315-0.824,1.825-1.406c0.499-0.569,0.818-1.249,0.994-1.984C455.456,382.604,455.421,382.314,455.283,382.059"/>
		<path clip-path="url(#SVGID_46_)" fill="#0097C4" d="M449.474,377.584c-0.009-0.001-0.017-0.001-0.026-0.002
			c-0.083-0.006-0.166-0.01-0.249-0.011h-0.021c-0.085-0.001-0.17,0.001-0.255,0.005c0,0-0.007,0-0.011,0.001
			c-0.088,0.005-0.177,0.012-0.265,0.023l-0.016,0.002c-0.377,0.046-0.739,0.153-1.077,0.307c-3.374,1.545-2.905,6.704,0.8,7.493
			c0.284,0.061,0.571,0.089,0.859,0.087c0.174-0.001,0.346-0.014,0.519-0.036c0.029-0.003,0.058-0.009,0.087-0.013
			c0.217-0.033,0.429-0.084,0.635-0.154c0.214-0.071,0.421-0.161,0.622-0.269c0.411-0.222,0.781-0.504,1.089-0.853
			c0.038-0.043,0.075-0.087,0.112-0.132c0.206-0.255,0.379-0.531,0.518-0.825c-0.059,0.088-0.123,0.174-0.19,0.257
			c-0.298,0.371-0.668,0.666-1.086,0.891c-0.379,0.205-0.788,0.34-1.216,0.396c-0.415,0.053-0.835,0.041-1.245-0.046
			c-0.408-0.087-0.795-0.245-1.15-0.462c-0.989-0.605-1.706-2.026-1.676-3.175c0.045-1.695,1.388-3.21,3.078-3.419
			c0.16-0.02,0.321-0.029,0.482-0.028c-0.003-0.001-0.006-0.001-0.009-0.001c-0.021-0.004-0.043-0.006-0.065-0.009
			C449.637,377.6,449.556,377.59,449.474,377.584"/>
		<path clip-path="url(#SVGID_46_)" fill="#50C8F0" d="M468.027,386.788c0.179-0.057,0.358-0.124,0.538-0.2
			c0.712-0.308,1.357-0.74,1.906-1.295c0.542-0.549,0.967-1.19,1.278-1.897c0.279-0.641,0.433-1.317,0.467-2.012
			c0.004-0.099,0.007-0.199,0.007-0.299c0-0.052-0.001-0.104-0.001-0.156c-0.001-0.032-0.002-0.064-0.003-0.095
			c-0.028-0.725-0.187-1.43-0.482-2.097c-0.107-0.242-0.23-0.476-0.366-0.701c-0.259-0.438-0.573-0.843-0.94-1.207
			c-0.39-0.391-0.828-0.724-1.301-0.998c-0.033-0.018-0.06-0.035-0.092-0.052c-0.163-0.091-0.33-0.175-0.502-0.252
			c-0.071-0.031-0.143-0.061-0.214-0.09c0.005,0.001,0.009,0.002,0.014,0.002c-0.006-0.002-0.012-0.005-0.018-0.007
			c-0.232-0.03-0.465-0.045-0.701-0.045h-0.009h-0.008c-0.795,0.03-1.574,0.195-2.304,0.514c-0.686,0.301-1.316,0.715-1.846,1.246
			c-0.526,0.524-0.934,1.142-1.225,1.825c-0.305,0.712-0.447,1.472-0.447,2.246c0,0.793,0.141,1.574,0.459,2.305
			c0.294,0.686,0.715,1.306,1.252,1.827c0.531,0.516,1.153,0.917,1.838,1.2c0.622,0.257,1.279,0.394,1.948,0.425
			c0.009-0.001,0.018-0.003,0.027-0.004c-0.008-0.001-0.015,0-0.022-0.001C467.533,386.926,467.782,386.865,468.027,386.788
			 M466.977,385.469c-0.526,0-1.037-0.097-1.518-0.305c-0.471-0.202-0.893-0.483-1.252-0.845c-0.363-0.36-0.645-0.782-0.849-1.251
			c-0.207-0.482-0.303-0.993-0.303-1.516c0-0.53,0.1-1.045,0.307-1.533c0.2-0.472,0.478-0.898,0.845-1.261
			c0.359-0.361,0.781-0.643,1.252-0.844c0.481-0.208,0.991-0.305,1.518-0.305c0.112,0,0.224,0.004,0.335,0.013
			c-0.003,0-0.005,0.001-0.009,0.001c0.003,0.001,0.006,0.001,0.009,0.001c0.086-0.007,0.174-0.009,0.262-0.009
			c0.482,0,0.957,0.091,1.401,0.28c0.432,0.182,0.821,0.439,1.155,0.77c0.33,0.332,0.587,0.722,0.77,1.153
			c0.188,0.445,0.279,0.917,0.279,1.4c0,0.479-0.086,0.947-0.279,1.387c-0.105,0.249-0.237,0.482-0.393,0.699
			c-0.001,0.003-0.002,0.005-0.004,0.008c0.002-0.003,0.004-0.005,0.006-0.008c-0.192,0.375-0.437,0.716-0.734,1.015
			c-0.367,0.364-0.793,0.644-1.264,0.844C468.021,385.37,467.507,385.469,466.977,385.469"/>
		<path clip-path="url(#SVGID_46_)" fill="#1ABAEC" d="M472.917,378.957c-0.306-0.685-0.726-1.308-1.256-1.84
			c-0.53-0.528-1.147-0.949-1.829-1.255c-0.48-0.213-0.98-0.355-1.495-0.422c0.066,0.026,0.131,0.053,0.197,0.082
			c0.171,0.077,0.338,0.161,0.502,0.252c0.032,0.017,0.059,0.034,0.092,0.051c0.474,0.275,0.912,0.608,1.303,0.999
			c0.366,0.365,0.681,0.77,0.94,1.209c0.136,0.225,0.259,0.459,0.366,0.701c0.295,0.668,0.454,1.375,0.483,2.1
			c0.001,0.032,0.002,0.063,0.002,0.095c0.001,0.051,0.002,0.104,0.002,0.156c0,0.1-0.003,0.199-0.008,0.299
			c-0.034,0.695-0.188,1.372-0.466,2.014c-0.312,0.708-0.738,1.349-1.279,1.899c-0.55,0.555-1.196,0.988-1.909,1.296
			c-0.18,0.077-0.359,0.143-0.538,0.2c-0.239,0.075-0.479,0.134-0.722,0.177c0.092,0.004,0.183,0.007,0.276,0.007
			c0.786,0,1.559-0.146,2.282-0.457c0.688-0.298,1.309-0.715,1.837-1.248c0.521-0.53,0.934-1.148,1.232-1.829
			c0.309-0.705,0.458-1.456,0.458-2.225C473.387,380.436,473.234,379.673,472.917,378.957"/>
		<path clip-path="url(#SVGID_46_)" fill="#0097C4" d="M465.458,377.915c-0.47,0.202-0.893,0.483-1.251,0.844
			c-0.367,0.363-0.646,0.79-0.845,1.261c-0.207,0.488-0.307,1.003-0.307,1.532c0,0.524,0.096,1.035,0.303,1.517
			c0.203,0.469,0.486,0.89,0.849,1.251c0.358,0.361,0.781,0.643,1.251,0.844c0.482,0.208,0.992,0.305,1.518,0.305
			c0.53,0,1.044-0.099,1.534-0.305c0.47-0.201,0.897-0.481,1.263-0.844c0.296-0.298,0.54-0.636,0.73-1.008
			c-0.112,0.155-0.236,0.301-0.373,0.437c-0.333,0.331-0.722,0.588-1.155,0.771c-0.444,0.189-0.918,0.28-1.4,0.28
			c-0.481,0-0.948-0.089-1.389-0.279c-0.431-0.183-0.816-0.441-1.147-0.772c-0.331-0.329-0.589-0.715-0.772-1.143
			c-0.191-0.44-0.282-0.909-0.282-1.388c0-0.483,0.094-0.955,0.282-1.401c0.183-0.431,0.441-0.821,0.772-1.153
			c0.331-0.33,0.716-0.588,1.147-0.772c0.357-0.154,0.733-0.241,1.117-0.269c-0.108-0.008-0.217-0.013-0.327-0.013
			C466.45,377.609,465.939,377.707,465.458,377.915"/>
	</g>
	<g clip-path="url(#SVGID_2_)">
		<path fill="#FFFFFF" d="M477.883,381.99c0.289-0.048,0.667-0.09,1.149-0.09c0.592,0,1.025,0.138,1.3,0.386
			c0.255,0.22,0.406,0.557,0.406,0.97c0,0.42-0.124,0.75-0.358,0.991c-0.316,0.337-0.833,0.509-1.417,0.509
			c-0.179,0-0.344-0.007-0.482-0.041v1.858h-0.599V381.99z M478.482,384.227c0.131,0.034,0.296,0.048,0.496,0.048
			c0.723,0,1.163-0.351,1.163-0.991c0-0.612-0.434-0.908-1.094-0.908c-0.262,0-0.461,0.021-0.564,0.048V384.227z"/>
	</g>
	<g clip-path="url(#SVGID_2_)">
		<path fill="#FFFFFF" d="M486.446,384.206c0,1.597-0.97,2.443-2.154,2.443c-1.225,0-2.085-0.95-2.085-2.354
			c0-1.473,0.916-2.436,2.154-2.436C485.627,381.859,486.446,382.83,486.446,384.206z M482.847,384.282
			c0,0.991,0.537,1.878,1.479,1.878c0.95,0,1.487-0.874,1.487-1.927c0-0.922-0.482-1.886-1.48-1.886
			C483.343,382.348,482.847,383.263,482.847,384.282z"/>
	</g>
	<g clip-path="url(#SVGID_2_)">
		<path fill="#FFFFFF" d="M488.823,386.573l-1.177-4.638h0.633l0.551,2.347c0.137,0.578,0.261,1.156,0.344,1.604h0.014
			c0.076-0.461,0.22-1.012,0.379-1.61l0.619-2.34h0.626l0.564,2.354c0.131,0.55,0.255,1.101,0.324,1.59h0.014
			c0.096-0.509,0.227-1.025,0.372-1.604l0.612-2.34h0.612l-1.314,4.638h-0.626l-0.585-2.416c-0.145-0.592-0.241-1.046-0.303-1.514
			h-0.014c-0.083,0.461-0.186,0.916-0.358,1.514l-0.661,2.416H488.823z"/>
		<path fill="#FFFFFF" d="M496.292,384.398h-1.803v1.672h2.009v0.502h-2.607v-4.638h2.505v0.502h-1.906v1.466h1.803V384.398z"/>
		<path fill="#FFFFFF" d="M497.278,381.997c0.303-0.062,0.736-0.097,1.148-0.097c0.641,0,1.054,0.117,1.343,0.379
			c0.233,0.206,0.364,0.523,0.364,0.881c0,0.612-0.386,1.018-0.874,1.184v0.021c0.357,0.124,0.571,0.454,0.682,0.936
			c0.151,0.646,0.261,1.094,0.357,1.273h-0.619c-0.076-0.131-0.179-0.53-0.31-1.108c-0.138-0.64-0.386-0.881-0.93-0.901h-0.563
			v2.009h-0.599V381.997z M497.877,384.109h0.612c0.64,0,1.046-0.351,1.046-0.881c0-0.599-0.434-0.86-1.066-0.867
			c-0.289,0-0.496,0.027-0.592,0.055V384.109z"/>
		<path fill="#FFFFFF" d="M503.383,384.398h-1.803v1.672h2.009v0.502h-2.607v-4.638h2.505v0.502h-1.906v1.466h1.803V384.398z"/>
		<path fill="#FFFFFF" d="M504.369,381.997c0.364-0.055,0.798-0.097,1.272-0.097c0.86,0,1.473,0.2,1.879,0.578
			c0.413,0.378,0.653,0.916,0.653,1.666c0,0.757-0.233,1.376-0.667,1.803c-0.434,0.434-1.149,0.668-2.051,0.668
			c-0.427,0-0.784-0.021-1.087-0.055V381.997z M504.968,386.099c0.151,0.027,0.371,0.034,0.605,0.034
			c1.279,0,1.975-0.716,1.975-1.968c0.007-1.094-0.612-1.789-1.879-1.789c-0.31,0-0.543,0.027-0.701,0.062V386.099z"/>
	</g>
	<g clip-path="url(#SVGID_2_)">
		<path fill="#FFFFFF" d="M517.442,381.997c0.261-0.055,0.674-0.097,1.094-0.097c0.599,0,0.984,0.104,1.273,0.337
			c0.24,0.179,0.385,0.454,0.385,0.819c0,0.447-0.296,0.84-0.784,1.019v0.014c0.44,0.11,0.956,0.475,0.956,1.163
			c0,0.399-0.158,0.702-0.392,0.929c-0.323,0.296-0.847,0.434-1.604,0.434c-0.413,0-0.729-0.028-0.929-0.055V381.997z
			 M518.041,383.896h0.543c0.634,0,1.005-0.331,1.005-0.778c0-0.543-0.413-0.757-1.019-0.757c-0.275,0-0.434,0.021-0.529,0.041
			V383.896z M518.041,386.119c0.116,0.021,0.289,0.027,0.502,0.027c0.619,0,1.19-0.227,1.19-0.901c0-0.633-0.544-0.895-1.197-0.895
			h-0.495V386.119z"/>
	</g>
	<g clip-path="url(#SVGID_2_)">
		<path fill="#FFFFFF" d="M523.239,386.573v-1.968l-1.466-2.67h0.681l0.654,1.28c0.179,0.351,0.316,0.633,0.461,0.957h0.014
			c0.131-0.303,0.289-0.605,0.468-0.957l0.668-1.28h0.681l-1.555,2.663v1.975H523.239z"/>
		<path fill="#FFFFFF" d="M528.271,382.444h-1.411v-0.509h3.434v0.509h-1.417v4.129h-0.605V382.444z"/>
		<path fill="#FFFFFF" d="M533.214,384.398h-1.803v1.672h2.009v0.502h-2.607v-4.638h2.505v0.502h-1.906v1.466h1.803V384.398z"/>
		<path fill="#FFFFFF" d="M534.199,381.935h0.599v4.136h1.981v0.502h-2.58V381.935z"/>
	</g>
	<g clip-path="url(#SVGID_2_)">
		<path fill="#FFFFFF" d="M542.454,385.844c0.269,0.165,0.661,0.303,1.073,0.303c0.612,0,0.971-0.323,0.971-0.792
			c0-0.433-0.248-0.681-0.874-0.922c-0.757-0.269-1.225-0.661-1.225-1.314c0-0.723,0.599-1.259,1.5-1.259
			c0.475,0,0.818,0.11,1.025,0.227l-0.165,0.489c-0.151-0.083-0.461-0.22-0.881-0.22c-0.634,0-0.874,0.378-0.874,0.695
			c0,0.434,0.282,0.647,0.922,0.895c0.784,0.303,1.184,0.681,1.184,1.363c0,0.715-0.53,1.335-1.624,1.335
			c-0.447,0-0.936-0.131-1.184-0.296L542.454,385.844z"/>
	</g>
	<g clip-path="url(#SVGID_2_)">
		<path fill="#FFFFFF" d="M547.721,382.444h-1.411v-0.509h3.434v0.509h-1.417v4.129h-0.605V382.444z"/>
		<path fill="#FFFFFF" d="M550.262,381.997c0.303-0.062,0.736-0.097,1.148-0.097c0.641,0,1.054,0.117,1.343,0.379
			c0.233,0.206,0.364,0.523,0.364,0.881c0,0.612-0.386,1.018-0.874,1.184v0.021c0.358,0.124,0.571,0.454,0.682,0.936
			c0.151,0.646,0.261,1.094,0.357,1.273h-0.619c-0.076-0.131-0.179-0.53-0.31-1.108c-0.138-0.64-0.386-0.881-0.93-0.901h-0.563
			v2.009h-0.599V381.997z M550.86,384.109h0.612c0.64,0,1.046-0.351,1.046-0.881c0-0.599-0.434-0.86-1.066-0.867
			c-0.289,0-0.496,0.027-0.592,0.055V384.109z"/>
		<path fill="#FFFFFF" d="M554.715,385.114l-0.482,1.459h-0.619l1.576-4.638h0.723l1.583,4.638h-0.641l-0.495-1.459H554.715z
			 M556.235,384.646l-0.454-1.335c-0.104-0.303-0.172-0.578-0.241-0.847h-0.014c-0.068,0.275-0.145,0.558-0.233,0.839l-0.454,1.342
			H556.235z"/>
	</g>
	<g clip-path="url(#SVGID_2_)">
		<defs>
			<rect id="SVGID_47_" width="986.727" height="843.239"/>
		</defs>
		<clipPath id="SVGID_48_">
			<use xlink:href="#SVGID_47_"  overflow="visible"/>
		</clipPath>
		<path clip-path="url(#SVGID_48_)" fill="#F8B77C" d="M377.98,236.217c2.164,5.622,8.476,8.427,14.1,6.261l40.574-15.622
			c5.622-2.166,8.425-8.476,6.26-14.098l-4.308-11.2c-2.165-5.622-8.482-8.427-14.105-6.265l-40.571,15.622
			c-5.623,2.163-8.427,8.484-6.261,14.106L377.98,236.217z"/>
	</g>
</g>
</svg>
